<?xml version="1.0" encoding="UTF-8" standalone="no"?>
<svg
   xmlns:dc="http://purl.org/dc/elements/1.1/"
   xmlns:cc="http://creativecommons.org/ns#"
   xmlns:rdf="http://www.w3.org/1999/02/22-rdf-syntax-ns#"
   xmlns:svg="http://www.w3.org/2000/svg"
   xmlns="http://www.w3.org/2000/svg"
   viewBox="0 0 126.5912 125.55213"
   height="125.55213"
   width="126.5912"
   xml:space="preserve"
   id="svg2"
   version="1.1"><metadata
     id="metadata8"><rdf:RDF><cc:Work
         rdf:about=""><dc:format>image/svg+xml</dc:format><dc:type
           rdf:resource="http://purl.org/dc/dcmitype/StillImage" /></cc:Work></rdf:RDF></metadata><defs
     id="defs6"><clipPath
       id="clipPath18"
       clipPathUnits="userSpaceOnUse"><path
         id="path16"
         d="M 0,94.164 H 94.943 V 0 H 0 Z" /></clipPath></defs><g
     transform="matrix(1.3333333,0,0,-1.3333333,0,125.55213)"
     id="g10"><g
       id="g12"><g
         clip-path="url(#clipPath18)"
         id="g14"><g
           transform="translate(90.2842,65.7739)"
           id="g20"><path
             id="path22"
             style="fill:#826550;fill-opacity:1;fill-rule:nonzero;stroke:none"
             d="M 0,0 C -2.103,4.839 -4.989,9.26 -8.509,13.097 -9.155,11.837 -9.816,10.578 -10.484,9.319 -7.907,6.311 -5.739,2.946 -4.062,-0.694 -2.722,-0.453 -1.367,-0.228 0,0" /></g><g
           transform="translate(90.0088,50.6001)"
           id="g24"><path
             id="path26"
             style="fill:#826550;fill-opacity:1;fill-rule:nonzero;stroke:none"
             d="m 0,0 c 0.095,-1.161 0.155,-2.332 0.155,-3.518 0,-23.793 -19.289,-43.082 -43.082,-43.082 -0.786,0 -1.565,0.023 -2.342,0.066 0.134,-0.57 0.229,-1.177 0.219,-1.841 -0.011,-0.756 -0.158,-1.476 -0.403,-2.155 0.837,-0.045 1.679,-0.07 2.526,-0.07 25.961,0 47.082,21.121 47.082,47.082 0,2.089 -0.15,4.142 -0.416,6.159 C 2.552,1.688 1.303,0.811 0,0" /></g><g
           transform="translate(4,47.082)"
           id="g28"><path
             id="path30"
             style="fill:#826550;fill-opacity:1;fill-rule:nonzero;stroke:none"
             d="m 0,0 c 0,23.794 19.288,43.082 43.082,43.082 7.861,0 15.225,-2.116 21.568,-5.793 1.084,0.859 2.211,1.736 3.362,2.624 -7.235,4.535 -15.779,7.169 -24.93,7.169 C 17.121,47.082 -4,25.961 -4,0 c 0,-19.807 12.3,-36.783 29.657,-43.725 -0.4,1.498 -0.561,3.067 -0.569,4.582 C 10.283,-32.325 0,-17.368 0,0" /></g><g
           transform="translate(36.7871,19.1699)"
           id="g32"><path
             id="path34"
             style="fill:#826550;fill-opacity:1;fill-rule:nonzero;stroke:none"
             d="M 0,0 C -1.856,9.003 7.01,16.95 11.896,9.252 12.156,1.834 5.715,-6.516 0,0 m 10.295,28.913 c 1.427,0 2.584,-1.157 2.584,-2.583 0,-1.428 -1.157,-2.584 -2.584,-2.584 -1.427,0 -2.583,1.156 -2.583,2.584 0,1.426 1.156,2.583 2.583,2.583 M 1.983,-9.912 c 7.738,2.721 16.312,9.662 14.539,19.826 -0.897,5.145 -4.48,5 -7.269,9.252 14.437,11.997 24.212,28.656 33.043,46.261 H 40.313 C 32.867,59.766 18.403,48.444 11.896,38.992 9.293,35.212 7.303,29.679 4.626,25.114 0.084,17.369 -10.499,3.885 -1.982,-5.947 c -1.38,-4.619 -1.205,-12.389 3.964,-12.557 3.27,1.727 -1.384,4.604 0.001,8.592" /></g><g
           transform="translate(55.9531,42.9609)"
           id="g36"><path
             id="path38"
             style="fill:#826550;fill-opacity:1;fill-rule:nonzero;stroke:none"
             d="M 0,0 C 13.963,5.203 30.577,7.753 38.99,18.505 29.576,17.126 20.871,15.036 11.234,13.879 9.101,7.643 4.203,4.168 0,0" /></g><g
           transform="translate(17.6221,46.9272)"
           id="g40"><path
             id="path42"
             style="fill:#826550;fill-opacity:1;fill-rule:nonzero;stroke:none"
             d="M 0,0 C -5.123,10.84 12.891,11.066 14.539,5.287 16.717,-2.345 5.441,-2.746 0,0 M -5.287,7.269 C -9.51,-4.979 3.138,-8.721 16.522,-6.609 c 3.785,4.814 5.85,9.964 1.983,15.861 -4.894,7.461 -20.911,6.373 -23.792,-1.983" /></g></g></g></g></svg>