<?xml version="1.0" encoding="UTF-8" standalone="no"?>
<svg
   xmlns:dc="http://purl.org/dc/elements/1.1/"
   xmlns:cc="http://creativecommons.org/ns#"
   xmlns:rdf="http://www.w3.org/1999/02/22-rdf-syntax-ns#"
   xmlns:svg="http://www.w3.org/2000/svg"
   xmlns="http://www.w3.org/2000/svg"
   viewBox="0 0 59.544266 139.70799"
   height="139.70799"
   width="59.544266"
   xml:space="preserve"
   id="svg2"
   version="1.1"><metadata
     id="metadata8"><rdf:RDF><cc:Work
         rdf:about=""><dc:format>image/svg+xml</dc:format><dc:type
           rdf:resource="http://purl.org/dc/dcmitype/StillImage" /></cc:Work></rdf:RDF></metadata><defs
     id="defs6"><clipPath
       id="clipPath18"
       clipPathUnits="userSpaceOnUse"><path
         id="path16"
         d="M 0,104.781 H 44.658 V 0 H 0 Z" /></clipPath></defs><g
     transform="matrix(1.3333333,0,0,-1.3333333,0,139.708)"
     id="g10"><g
       id="g12"><g
         clip-path="url(#clipPath18)"
         id="g14"><g
           transform="translate(22.3291,76.6309)"
           id="g20"><path
             id="path22"
             style="fill:#826550;fill-opacity:1;fill-rule:nonzero;stroke:none"
             d="M 0,0 C -3.396,0 -6.688,-0.183 -10.142,-0.529 -9.007,1.225 -1.15,2.711 0,2.92 1.149,2.711 9.006,1.225 10.141,-0.529 6.687,-0.183 3.395,0 0,0 M 21.061,28.15 H 20.942 C 18.126,6.625 15.561,5.59 13.981,5.471 12.555,5.361 10.338,7.242 9.061,7.99 7.571,8.863 4.983,10.535 0,10.535 c -4.983,0 -7.572,-1.673 -9.062,-2.545 -1.277,-0.748 -3.494,-2.629 -4.919,-2.519 -1.581,0.119 -4.144,1.154 -6.959,22.679 h -0.12 c -2.072,-12.208 -1.56,-50.203 1.2,-63.599 2.61,-18.52 10.11,-35.105 13.439,-39.6 0.683,-1.039 3.533,-1.566 6.421,-1.582 2.887,0.016 5.737,0.543 6.421,1.582 3.329,4.495 10.829,21.08 13.439,39.6 2.758,13.396 3.273,51.391 1.201,63.599" /></g></g></g></g></svg>