<?xml version="1.0" encoding="UTF-8" standalone="no"?>
<svg
   xmlns:dc="http://purl.org/dc/elements/1.1/"
   xmlns:cc="http://creativecommons.org/ns#"
   xmlns:rdf="http://www.w3.org/1999/02/22-rdf-syntax-ns#"
   xmlns:svg="http://www.w3.org/2000/svg"
   xmlns="http://www.w3.org/2000/svg"
   viewBox="0 0 68.639336 65.971336"
   height="65.971336"
   width="68.639336"
   xml:space="preserve"
   id="svg2"
   version="1.1"><metadata
     id="metadata8"><rdf:RDF><cc:Work
         rdf:about=""><dc:format>image/svg+xml</dc:format><dc:type
           rdf:resource="http://purl.org/dc/dcmitype/StillImage" /></cc:Work></rdf:RDF></metadata><defs
     id="defs6"><clipPath
       id="clipPath18"
       clipPathUnits="userSpaceOnUse"><path
         id="path16"
         d="M 0,49.479 H 51.479 V 0 H 0 Z" /></clipPath></defs><g
     transform="matrix(1.3333333,0,0,-1.3333333,0,65.971333)"
     id="g10"><g
       id="g12"><g
         clip-path="url(#clipPath18)"
         id="g14"><g
           transform="translate(36.9502,21.4229)"
           id="g20"><path
             id="path22"
             style="fill:#826550;fill-opacity:1;fill-rule:nonzero;stroke:none"
             d="m 0,0 c -0.245,-1.553 -1.663,-3.386 -3.359,-3.48 -2.979,-0.167 -4.507,4.415 -7.861,4.379 -3.353,0.036 -4.882,-4.546 -7.86,-4.379 -1.696,0.095 -3.115,1.928 -3.359,3.48 -0.308,1.941 0.611,4.605 1.679,5.64 1.104,1.067 2.822,0.929 4.68,1.2 2.037,0.295 3.798,0.881 4.859,1.947 0,0.038 0,0.038 0,0 C -10.157,7.722 -8.397,7.136 -6.36,6.84 -4.503,6.569 -2.784,6.707 -1.681,5.64 -0.61,4.606 0.308,1.942 0,0 M 13.929,28.056 H 13.688 C 11.382,20.362 10.763,10.982 4.33,7.416 c -1.189,3.355 -4.109,4.893 -7.439,6.359 -2.118,0.934 -4.547,2.558 -6.602,2.641 -0.496,0.02 -1.049,0.032 -1.5,-0.315 -0.451,0.348 -1.003,0.335 -1.5,0.315 -2.054,-0.083 -4.484,-1.707 -6.602,-2.641 -3.33,-1.467 -6.25,-3.004 -7.438,-6.359 -6.435,3.565 -7.054,12.946 -9.36,20.64 h -0.241 c -0.315,-0.683 -0.398,-1.6 -0.598,-2.401 0,-1.92 0.543,-21.462 1.92,-28.439 1.24,-6.289 6.077,-10.83 10.8,-13.801 3.29,-2.068 8.506,-4.838 13.02,-4.838 4.513,0 9.729,2.77 13.02,4.838 4.722,2.97 9.56,7.512 10.799,13.801 1.377,6.977 1.92,26.519 1.92,28.439 -0.201,0.801 -0.284,1.718 -0.6,2.401" /></g></g></g></g></svg>