<?xml version="1.0" encoding="UTF-8" standalone="no"?>
<svg
   xmlns:dc="http://purl.org/dc/elements/1.1/"
   xmlns:cc="http://creativecommons.org/ns#"
   xmlns:rdf="http://www.w3.org/1999/02/22-rdf-syntax-ns#"
   xmlns:svg="http://www.w3.org/2000/svg"
   xmlns="http://www.w3.org/2000/svg"
   viewBox="0 0 83.196671 104.65173"
   height="104.65173"
   width="83.196671"
   xml:space="preserve"
   id="svg2"
   version="1.1"><metadata
     id="metadata8"><rdf:RDF><cc:Work
         rdf:about=""><dc:format>image/svg+xml</dc:format><dc:type
           rdf:resource="http://purl.org/dc/dcmitype/StillImage" /></cc:Work></rdf:RDF></metadata><defs
     id="defs6"><clipPath
       id="clipPath18"
       clipPathUnits="userSpaceOnUse"><path
         id="path16"
         d="M 0,78.489 H 62.397 V 0 H 0 Z" /></clipPath></defs><g
     transform="matrix(1.3333333,0,0,-1.3333333,0,104.65173)"
     id="g10"><g
       id="g12"><g
         clip-path="url(#clipPath18)"
         id="g14"><g
           transform="translate(33.2373,51.7285)"
           id="g20"><path
             id="path22"
             style="fill:#826550;fill-opacity:1;fill-rule:nonzero;stroke:none"
             d="m 0,0 c -0.687,0.135 -3.394,0.135 -4.08,0 -1.732,-0.34 -5.761,-0.988 -5.761,1.08 0,1.068 6.72,2.295 7.801,2.295 1.08,0 7.801,-1.228 7.802,-2.295 C 5.762,-0.988 1.733,-0.34 0,0 m 29.16,-15.24 c 0,5.213 -2.367,7.775 -3.598,9.961 -0.906,1.605 -3.977,10.752 -4.201,17.639 -0.066,4.906 -1.692,12.447 -2.88,14.4 -0.864,0 -1.521,-7.781 -2.28,-11.639 -1.428,-7.043 -3.765,-8.934 -4.438,-9 -0.758,2.809 -4.114,7.363 -13.677,7.725 -0.048,0.016 -0.083,0.029 -0.125,0.043 -0.043,-0.014 -0.078,-0.027 -0.126,-0.043 -9.562,-0.361 -12.918,-4.916 -13.675,-7.725 -0.674,0.066 -3.011,1.957 -4.438,9 -0.76,3.858 -1.416,11.639 -2.281,11.639 -1.188,-1.953 -2.813,-9.494 -2.879,-14.4 -0.226,-6.887 -3.294,-16.032 -4.201,-17.639 -1.231,-2.186 -3.598,-4.748 -3.598,-9.961 0,-3.744 5.199,-7.203 5.638,-11.399 0.125,-1.222 -0.031,-2.349 0.12,-3.361 2.003,-17.483 17.868,-21.729 25.439,-21.729 7.573,0 23.438,4.245 25.44,21.729 0.152,1.012 -0.004,2.139 0.121,3.361 0.439,4.196 5.639,7.653 5.639,11.399" /></g></g></g></g></svg>