<?xml version="1.0" encoding="UTF-8" standalone="no"?>
<svg
   xmlns:dc="http://purl.org/dc/elements/1.1/"
   xmlns:cc="http://creativecommons.org/ns#"
   xmlns:rdf="http://www.w3.org/1999/02/22-rdf-syntax-ns#"
   xmlns:svg="http://www.w3.org/2000/svg"
   xmlns="http://www.w3.org/2000/svg"
   viewBox="0 0 76.9076 91.51947"
   height="91.51947"
   width="76.9076"
   xml:space="preserve"
   id="svg2"
   version="1.1"><metadata
     id="metadata8"><rdf:RDF><cc:Work
         rdf:about=""><dc:format>image/svg+xml</dc:format><dc:type
           rdf:resource="http://purl.org/dc/dcmitype/StillImage" /></cc:Work></rdf:RDF></metadata><defs
     id="defs6"><clipPath
       id="clipPath18"
       clipPathUnits="userSpaceOnUse"><path
         id="path16"
         d="M 0,68.64 H 57.681 V 0 H 0 Z" /></clipPath></defs><g
     transform="matrix(1.3333333,0,0,-1.3333333,0,91.519467)"
     id="g10"><g
       id="g12"><g
         clip-path="url(#clipPath18)"
         id="g14"><g
           transform="translate(28.8418,42.6943)"
           id="g20"><path
             id="path22"
             style="fill:#826550;fill-opacity:1;fill-rule:nonzero;stroke:none"
             d="m 0,0 v 0 c -2.54,-0.037 -5.066,0.094 -7.16,0.505 0.663,2.052 4.034,1.559 7.08,1.559 H 0 0.079 c 3.046,0 6.417,0.493 7.079,-1.559 C 5.064,0.095 2.539,-0.037 0,0 m 22.758,3.745 c 0.121,1.696 0.474,3.51 0.72,5.4 0.704,5.426 1.596,11.669 -0.121,16.8 h -0.24 C 21.795,22.202 21.858,17.598 20.959,13.585 20.295,10.623 19.186,7.932 17.72,6.024 17.19,5.337 16.66,4.479 15.799,4.224 15.136,8.146 11.516,9.167 8.118,10.585 5.989,11.473 4.147,12.601 2,12.744 1.211,12.797 0.531,12.557 0,12.514 c -0.532,0.044 -1.211,0.284 -2,0.23 -2.148,-0.144 -3.99,-1.271 -6.119,-2.159 -3.397,-1.418 -7.018,-2.439 -7.681,-6.361 -0.861,0.255 -1.391,1.113 -1.921,1.8 -1.466,1.908 -2.574,4.599 -3.238,7.561 -0.9,4.013 -0.836,8.617 -2.16,12.36 h -0.24 c -1.718,-5.131 -0.826,-11.374 -0.12,-16.8 0.245,-1.891 0.597,-3.704 0.718,-5.4 0.792,-11.052 -6.95,-23.12 -6,-28.92 0.93,-7.529 8.397,-9.396 14.16,-12.359 4.347,-2.237 8.313,-4.951 13.322,-5.16 H -10e-4 0 1.277 c 5.01,0.209 8.976,2.924 13.321,5.16 5.764,2.964 13.229,4.83 14.16,12.359 0.952,5.801 -6.792,17.868 -6,28.92" /></g></g></g></g></svg>