<?xml version="1.0" encoding="UTF-8" standalone="no"?>
<svg
   xmlns:dc="http://purl.org/dc/elements/1.1/"
   xmlns:cc="http://creativecommons.org/ns#"
   xmlns:rdf="http://www.w3.org/1999/02/22-rdf-syntax-ns#"
   xmlns:svg="http://www.w3.org/2000/svg"
   xmlns="http://www.w3.org/2000/svg"
   viewBox="0 0 29.424534 28.280533"
   height="28.280533"
   width="29.424534"
   xml:space="preserve"
   id="svg2"
   version="1.1"><metadata
     id="metadata8"><rdf:RDF><cc:Work
         rdf:about=""><dc:format>image/svg+xml</dc:format><dc:type
           rdf:resource="http://purl.org/dc/dcmitype/StillImage" /></cc:Work></rdf:RDF></metadata><defs
     id="defs6"><clipPath
       id="clipPath18"
       clipPathUnits="userSpaceOnUse"><path
         id="path16"
         d="M 0,21.21 H 22.068 V 0 H 0 Z" /></clipPath></defs><g
     transform="matrix(1.3333333,0,0,-1.3333333,0,28.280533)"
     id="g10"><g
       id="g12"><g
         clip-path="url(#clipPath18)"
         id="g14"><g
           transform="translate(15.8389,9.1836)"
           id="g20"><path
             id="path22"
             style="fill:#826550;fill-opacity:1;fill-rule:nonzero;stroke:none"
             d="M 0,0 C -0.104,-0.666 -0.713,-1.451 -1.438,-1.492 -2.716,-1.563 -3.372,0.4 -4.809,0.386 -6.247,0.4 -6.901,-1.563 -8.178,-1.492 -8.905,-1.451 -9.513,-0.665 -9.617,0 c -0.133,0.833 0.262,1.975 0.72,2.417 0.472,0.459 1.209,0.4 2.004,0.515 0.874,0.127 1.629,0.378 2.084,0.835 0,0.016 0,0.016 0,0 C -4.353,3.31 -3.599,3.059 -2.726,2.932 -1.929,2.816 -1.192,2.875 -0.72,2.417 -0.261,1.975 0.133,0.833 0,0 M 5.972,12.027 H 5.868 C 4.879,8.729 4.613,4.708 1.856,3.179 1.347,4.617 0.095,5.276 -1.332,5.905 -2.239,6.305 -3.281,7.001 -4.163,7.037 -4.376,7.045 -4.612,7.051 -4.806,6.902 -4.999,7.051 -5.235,7.046 -5.448,7.037 -6.328,7.001 -7.371,6.306 -8.278,5.905 -9.706,5.276 -10.957,4.617 -11.467,3.179 c -2.758,1.529 -3.022,5.55 -4.012,8.848 h -0.103 c -0.135,-0.292 -0.171,-0.686 -0.257,-1.029 0,-0.823 0.234,-9.2 0.823,-12.191 0.532,-2.696 2.606,-4.643 4.629,-5.916 1.41,-0.887 3.647,-2.075 5.582,-2.075 1.934,0 4.17,1.189 5.581,2.075 2.026,1.273 4.099,3.22 4.63,5.916 0.591,2.991 0.823,11.368 0.823,12.191 -0.085,0.343 -0.121,0.737 -0.257,1.029" /></g></g></g></g></svg>