<?xml version="1.0" encoding="UTF-8" standalone="no"?>
<svg
   xmlns:dc="http://purl.org/dc/elements/1.1/"
   xmlns:cc="http://creativecommons.org/ns#"
   xmlns:rdf="http://www.w3.org/1999/02/22-rdf-syntax-ns#"
   xmlns:svg="http://www.w3.org/2000/svg"
   xmlns="http://www.w3.org/2000/svg"
   viewBox="0 0 188.888 186.05467"
   height="186.05467"
   width="188.888"
   xml:space="preserve"
   id="svg2"
   version="1.1"><metadata
     id="metadata8"><rdf:RDF><cc:Work
         rdf:about=""><dc:format>image/svg+xml</dc:format><dc:type
           rdf:resource="http://purl.org/dc/dcmitype/StillImage" /></cc:Work></rdf:RDF></metadata><defs
     id="defs6"><clipPath
       id="clipPath18"
       clipPathUnits="userSpaceOnUse"><path
         id="path16"
         d="M 0,139.541 H 141.666 V 0 H 0 Z" /></clipPath></defs><g
     transform="matrix(1.3333333,0,0,-1.3333333,0,186.05467)"
     id="g10"><g
       id="g12"><g
         clip-path="url(#clipPath18)"
         id="g14"><g
           transform="translate(71.833,118.0781)"
           id="g20"><path
             id="path22"
             style="fill:#ffffff;fill-opacity:1;fill-rule:nonzero;stroke:none"
             d="m 0,0 v 20.463 c 0,0.553 -0.447,1 -1,1 -0.553,0 -1,-0.447 -1,-1 V 0 c 0.334,0.007 0.665,0.025 1,0.025 0.335,0 0.666,-0.018 1,-0.025" /></g><g
           transform="translate(45.7676,111.1045)"
           id="g24"><path
             id="path26"
             style="fill:#ffffff;fill-opacity:1;fill-rule:nonzero;stroke:none"
             d="M 0,0 C 0.568,0.346 1.149,0.674 1.733,0.997 L -8.505,18.695 c -0.275,0.479 -0.887,0.644 -1.366,0.365 -0.478,-0.277 -0.642,-0.888 -0.364,-1.367 z" /></g><g
           transform="translate(10.502,104.8145)"
           id="g28"><path
             id="path30"
             style="fill:#ffffff;fill-opacity:1;fill-rule:nonzero;stroke:none"
             d="m 0,0 c -0.278,-0.478 -0.115,-1.089 0.362,-1.366 l 17.682,-10.271 c 0.323,0.583 0.652,1.163 0.999,1.731 L 1.366,0.362 C 0.889,0.639 0.277,0.478 0,0" /></g><g
           transform="translate(106.4102,131.0205)"
           id="g32"><path
             id="path34"
             style="fill:#ffffff;fill-opacity:1;fill-rule:nonzero;stroke:none"
             d="m 0,0 c -0.478,0.277 -1.089,0.116 -1.366,-0.362 l -10.804,-18.6 c 0.583,-0.324 1.162,-0.653 1.731,-1 L 0.362,-1.366 C 0.641,-0.889 0.478,-0.277 0,0" /></g><g
           transform="translate(131.7822,103.873)"
           id="g36"><path
             id="path38"
             style="fill:#ffffff;fill-opacity:1;fill-rule:nonzero;stroke:none"
             d="M 0,0 C 0.478,0.276 0.642,0.888 0.364,1.366 0.089,1.845 -0.521,2.011 -1.002,1.73 L -19.615,-9.037 c 0.345,-0.568 0.674,-1.15 0.997,-1.734 z" /></g><g
           transform="translate(22.5,69.7705)"
           id="g40"><path
             id="path42"
             style="fill:#ffffff;fill-opacity:1;fill-rule:nonzero;stroke:none"
             d="M 0,0 C 0,0.335 0.019,0.666 0.025,1 H -21.5 c -0.553,0 -1,-0.447 -1,-1 0,-0.553 0.447,-1 1,-1 H 0.025 C 0.019,-0.666 0,-0.335 0,0" /></g><g
           transform="translate(140.666,70.7705)"
           id="g44"><path
             id="path46"
             style="fill:#ffffff;fill-opacity:1;fill-rule:nonzero;stroke:none"
             d="m 0,0 h -21.525 c 0.006,-0.334 0.025,-0.665 0.025,-1 0,-0.335 -0.019,-0.666 -0.025,-1 H 0 c 0.553,0 1,0.447 1,1 0,0.553 -0.447,1 -1,1" /></g><g
           transform="translate(130.8018,36.0928)"
           id="g48"><path
             id="path50"
             style="fill:#ffffff;fill-opacity:1;fill-rule:nonzero;stroke:none"
             d="m 0,0 -17.682,10.271 c -0.323,-0.584 -0.653,-1.164 -1,-1.731 L -1.004,-1.729 c 0.158,-0.091 0.33,-0.135 0.501,-0.135 0.345,0 0.68,0.178 0.865,0.498 C 0.641,-0.889 0.478,-0.277 0,0" /></g><g
           transform="translate(9.8838,35.668)"
           id="g52"><path
             id="path54"
             style="fill:#ffffff;fill-opacity:1;fill-rule:nonzero;stroke:none"
             d="m 0,0 c -0.478,-0.276 -0.642,-0.888 -0.364,-1.366 0.184,-0.321 0.52,-0.499 0.866,-0.499 0.17,0 0.342,0.043 0.5,0.135 L 19.615,9.037 c -0.345,0.568 -0.674,1.15 -0.997,1.734 z" /></g><g
           transform="translate(95.8984,28.4365)"
           id="g56"><path
             id="path58"
             style="fill:#ffffff;fill-opacity:1;fill-rule:nonzero;stroke:none"
             d="M 0,0 C -0.568,-0.346 -1.149,-0.674 -1.733,-0.997 L 8.505,-18.695 c 0.184,-0.321 0.52,-0.499 0.866,-0.499 0.17,0 0.342,0.043 0.5,0.134 0.478,0.277 0.642,0.888 0.364,1.367 z" /></g><g
           transform="translate(34.8936,9.8867)"
           id="g60"><path
             id="path62"
             style="fill:#ffffff;fill-opacity:1;fill-rule:nonzero;stroke:none"
             d="m 0,0 c -0.278,-0.478 -0.115,-1.089 0.362,-1.366 0.159,-0.092 0.33,-0.136 0.501,-0.136 0.345,0 0.68,0.179 0.866,0.498 l 10.803,18.6 c -0.583,0.324 -1.162,0.653 -1.73,1 z" /></g><g
           transform="translate(69.833,21.4629)"
           id="g64"><path
             id="path66"
             style="fill:#ffffff;fill-opacity:1;fill-rule:nonzero;stroke:none"
             d="m 0,0 v -20.463 c 0,-0.553 0.447,-1 1,-1 0.553,0 1,0.447 1,1 V 0 C 1.666,-0.007 1.335,-0.025 1,-0.025 0.665,-0.025 0.334,-0.007 0,0" /></g><g
           transform="translate(70.833,67.1035)"
           id="g68"><path
             id="path70"
             style="fill:#ffffff;fill-opacity:1;fill-rule:nonzero;stroke:none"
             d="m 0,0 c -1.471,0 -2.667,1.196 -2.667,2.667 0,1.471 1.196,2.667 2.667,2.667 1.471,0 2.667,-1.196 2.667,-2.667 C 2.667,1.196 1.471,0 0,0 M -4.451,6.168 C -4.468,6.146 -4.483,6.124 -4.5,6.103 c 0.017,0.021 0.032,0.043 0.049,0.065 M -4.877,5.544 C -4.884,5.531 -4.892,5.52 -4.898,5.507 -4.892,5.52 -4.884,5.531 -4.877,5.544 M 4.903,5.5 C 4.896,5.512 4.889,5.523 4.882,5.535 4.889,5.523 4.896,5.512 4.903,5.5 M 4.51,6.089 C 4.49,6.114 4.473,6.141 4.452,6.166 4.473,6.141 4.49,6.114 4.51,6.089 m 29.401,14.462 c 0.717,0.415 0.962,1.333 0.548,2.05 -0.415,0.716 -1.333,0.962 -2.05,0.547 L 3.978,6.701 C 2.954,7.71 1.551,8.334 0,8.334 c -1.547,0 -2.948,-0.622 -3.971,-1.627 l -20.342,11.818 c -0.716,0.416 -1.634,0.172 -2.051,-0.543 -0.416,-0.716 -0.173,-1.634 0.543,-2.05 L -5.475,4.111 C -5.596,3.649 -5.667,3.167 -5.667,2.667 -5.667,-0.463 -3.13,-3 0,-3 c 3.13,0 5.667,2.537 5.667,5.667 0,0.497 -0.07,0.976 -0.19,1.435 z" /></g></g></g></g></svg>