<?xml version="1.0" encoding="UTF-8" standalone="no"?>
<svg
   xmlns:dc="http://purl.org/dc/elements/1.1/"
   xmlns:cc="http://creativecommons.org/ns#"
   xmlns:rdf="http://www.w3.org/1999/02/22-rdf-syntax-ns#"
   xmlns:svg="http://www.w3.org/2000/svg"
   xmlns="http://www.w3.org/2000/svg"
   viewBox="0 0 28 26.666668"
   height="26.666668"
   width="28"
   xml:space="preserve"
   id="svg2"
   version="1.1"><metadata
     id="metadata8"><rdf:RDF><cc:Work
         rdf:about=""><dc:format>image/svg+xml</dc:format><dc:type
           rdf:resource="http://purl.org/dc/dcmitype/StillImage" /></cc:Work></rdf:RDF></metadata><defs
     id="defs6"><clipPath
       id="clipPath18"
       clipPathUnits="userSpaceOnUse"><path
         id="path16"
         d="M 0,20 H 21 V 0 H 0 Z" /></clipPath></defs><g
     transform="matrix(1.3333333,0,0,-1.3333333,0,26.666667)"
     id="g10"><g
       id="g12"><g
         clip-path="url(#clipPath18)"
         id="g14"><g
           transform="translate(21,19)"
           id="g20"><path
             id="path22"
             style="fill:#826550;fill-opacity:1;fill-rule:nonzero;stroke:none"
             d="m 0,0 h -4 l -6,-6 2,-2 z m -11,-8.5 c 0.3,0 0.5,-0.2 0.5,-0.5 0,-0.3 -0.2,-0.5 -0.5,-0.5 -0.3,0 -0.5,0.2 -0.5,0.5 0,0.3 0.2,0.5 0.5,0.5 m -6,-8.5 c -1.1,0 -2,0.9 -2,2 0,1.1 0.9,2 2,2 1.1,0 2,-0.9 2,-2 0,-1.1 -0.9,-2 -2,-2 m 0,12 c -1.1,0 -2,0.9 -2,2 0,1.1 0.9,2 2,2 1.1,0 2,-0.9 2,-2 0,-1.1 -0.9,-2 -2,-2 m 4,2 c 0,2.2 -1.8,4 -4,4 -2.2,0 -4,-1.8 -4,-4 0,-2.2 1.8,-4 4,-4 0.6,0 1.1,0.1 1.6,0.4 l 2.4,-2.4 -2.4,-2.4 c -0.5,0.3 -1,0.4 -1.6,0.4 -2.2,0 -4,-1.8 -4,-4 0,-2.2 1.8,-4 4,-4 2.2,0 4,1.8 4,4 0,0.6 -0.1,1.1 -0.4,1.6 l 2.4,2.4 7,-7 h 4 l -13.4,13.4 c 0.3,0.5 0.4,1 0.4,1.6" /></g></g></g></g></svg>