<?xml version="1.0" encoding="UTF-8" standalone="no"?>
<svg
   xmlns:dc="http://purl.org/dc/elements/1.1/"
   xmlns:cc="http://creativecommons.org/ns#"
   xmlns:rdf="http://www.w3.org/1999/02/22-rdf-syntax-ns#"
   xmlns:svg="http://www.w3.org/2000/svg"
   xmlns="http://www.w3.org/2000/svg"
   viewBox="0 0 28.929733 21.454399"
   height="21.454399"
   width="28.929733"
   xml:space="preserve"
   id="svg2"
   version="1.1"><metadata
     id="metadata8"><rdf:RDF><cc:Work
         rdf:about=""><dc:format>image/svg+xml</dc:format><dc:type
           rdf:resource="http://purl.org/dc/dcmitype/StillImage" /></cc:Work></rdf:RDF></metadata><defs
     id="defs6"><clipPath
       id="clipPath18"
       clipPathUnits="userSpaceOnUse"><path
         id="path16"
         d="M 0,16.091 H 21.697 V 0 H 0 Z" /></clipPath></defs><g
     transform="matrix(1.3333333,0,0,-1.3333333,0,21.4544)"
     id="g10"><g
       id="g12"><g
         clip-path="url(#clipPath18)"
         id="g14"><g
           transform="translate(21.4043,15.7979)"
           id="g20"><path
             id="path22"
             style="fill:#373737;fill-opacity:1;fill-rule:nonzero;stroke:none"
             d="m 0,0 c -0.392,0.391 -1.023,0.391 -1.414,0 l -13.383,-13.384 -4.9,4.901 c -0.391,0.39 -1.023,0.39 -1.414,0 -0.391,-0.392 -0.391,-1.024 0,-1.414 l 5.607,-5.608 c 0.194,-0.195 0.451,-0.293 0.707,-0.293 0.256,0 0.512,0.098 0.707,0.293 L 0,-1.415 C 0.391,-1.024 0.391,-0.391 0,0" /></g></g></g></g></svg>