<?xml version="1.0" encoding="UTF-8" standalone="no"?>
<svg
   xmlns:dc="http://purl.org/dc/elements/1.1/"
   xmlns:cc="http://creativecommons.org/ns#"
   xmlns:rdf="http://www.w3.org/1999/02/22-rdf-syntax-ns#"
   xmlns:svg="http://www.w3.org/2000/svg"
   xmlns="http://www.w3.org/2000/svg"
   viewBox="0 0 47.909466 26.593733"
   height="26.593733"
   width="47.909466"
   xml:space="preserve"
   id="svg2"
   version="1.1"><metadata
     id="metadata8"><rdf:RDF><cc:Work
         rdf:about=""><dc:format>image/svg+xml</dc:format><dc:type
           rdf:resource="http://purl.org/dc/dcmitype/StillImage" /></cc:Work></rdf:RDF></metadata><defs
     id="defs6"><clipPath
       id="clipPath18"
       clipPathUnits="userSpaceOnUse"><path
         id="path16"
         d="M 0,19.945 H 35.932 V 0 H 0 Z" /></clipPath></defs><g
     transform="matrix(1.3333333,0,0,-1.3333333,0,26.593733)"
     id="g10"><g
       id="g12"><g
         clip-path="url(#clipPath18)"
         id="g14"><g
           transform="translate(0,9.9219)"
           id="g20"><path
             id="path22"
             style="fill:#ffffff;fill-opacity:1;fill-rule:nonzero;stroke:none"
             d="m 0,0 c 0,-0.538 0.51,-0.978 1.134,-0.978 h 33.664 c 0.624,0 1.134,0.44 1.134,0.978 0,0.537 -0.51,0.977 -1.134,0.977 H 1.134 C 0.51,0.977 0,0.537 0,0" /></g><g
           transform="translate(1.1338,19.9453)"
           id="g24"><path
             id="path26"
             style="fill:#ffffff;fill-opacity:1;fill-rule:nonzero;stroke:none"
             d="m 0,0 c -0.624,0 -1.134,-0.439 -1.134,-0.977 0,-0.538 0.51,-0.977 1.134,-0.977 h 33.665 c 0.623,0 1.133,0.439 1.133,0.977 0,0.538 -0.51,0.977 -1.133,0.977 z" /></g><g
           transform="translate(0,0.9766)"
           id="g28"><path
             id="path30"
             style="fill:#ffffff;fill-opacity:1;fill-rule:nonzero;stroke:none"
             d="m 0,0 c 0,-0.537 0.51,-0.977 1.134,-0.977 h 33.664 c 0.624,0 1.134,0.44 1.134,0.977 0,0.538 -0.51,0.978 -1.134,0.978 H 1.134 C 0.51,0.978 0,0.538 0,0" /></g></g></g></g></svg>