<?xml version="1.0" encoding="UTF-8" standalone="no"?>
<!DOCTYPE svg PUBLIC "-//W3C//DTD SVG 1.1//EN" "http://www.w3.org/Graphics/SVG/1.1/DTD/svg11.dtd">
<svg width="100%" height="100%" viewBox="0 0 1240 200" version="1.1" xmlns="http://www.w3.org/2000/svg" xmlns:xlink="http://www.w3.org/1999/xlink" xml:space="preserve" xmlns:serif="http://www.serif.com/" style="fill-rule:evenodd;clip-rule:evenodd;stroke-linejoin:round;stroke-miterlimit:1.41421;">
    <g transform="matrix(1,0,0,1,-59.2231,106.804)">
        <path d="M148.896,-92.668L77.706,-92.668L77.706,38.582L58.386,38.582L58.386,-107.368L168.216,-107.368L168.216,38.582L148.896,38.582L148.896,-92.668Z" style="fill-rule:nonzero;"/>
        <path d="M242.346,-56.548C234.786,-56.548 228.311,-53.871 222.921,-48.516C217.531,-43.161 214.136,-35.058 212.736,-24.208L266.286,-24.208C267.126,-35.2 265.271,-43.338 260.721,-48.622C256.171,-53.906 250.046,-56.548 242.346,-56.548ZM281.196,29.552C277.416,32.772 272.516,35.432 266.496,37.532C260.476,39.632 253.616,40.682 245.916,40.682C229.116,40.682 216.236,35.887 207.276,26.297C198.316,16.707 193.836,3.162 193.836,-14.338C193.836,-22.878 195.096,-30.543 197.616,-37.333C200.136,-44.123 203.601,-49.898 208.011,-54.658C212.421,-59.418 217.601,-63.023 223.551,-65.473C229.501,-67.923 235.906,-69.148 242.766,-69.148C249.906,-69.148 256.311,-67.923 261.981,-65.473C267.651,-63.023 272.341,-59.383 276.051,-54.553C279.761,-49.723 282.281,-43.703 283.611,-36.493C284.941,-29.283 284.906,-20.988 283.506,-11.608L212.106,-11.608C212.946,13.452 224.776,25.982 247.596,25.982C253.616,25.982 259.006,25.111 263.766,23.37C268.526,21.629 272.936,19.419 276.996,16.742L281.196,29.552Z" style="fill-rule:nonzero;"/>
        <path d="M358.476,28.082C367.856,28.082 375.451,24.749 381.261,18.082C387.071,11.416 389.976,0.644 389.976,-14.233C389.976,-28.83 387.071,-39.532 381.261,-46.339C375.451,-53.145 367.856,-56.548 358.476,-56.548C353.856,-56.548 349.446,-55.741 345.246,-54.127C341.046,-52.512 337.371,-49.986 334.221,-46.549C331.071,-43.111 328.586,-38.725 326.766,-33.391C324.946,-28.057 324.036,-21.671 324.036,-14.233C324.036,-6.653 324.946,-0.197 326.766,5.136C328.586,10.469 331.071,14.82 334.221,18.187C337.371,21.555 341.046,24.046 345.246,25.66C349.446,27.275 353.856,28.082 358.476,28.082ZM361.206,40.682C353.366,40.682 346.471,38.967 340.521,35.537C334.571,32.107 329.706,27.382 325.926,21.362L325.926,77.852L308.076,77.852L308.076,-67.048L323.826,-67.048L325.086,-48.358C328.866,-54.658 333.801,-59.698 339.891,-63.478C345.981,-67.258 353.366,-69.148 362.046,-69.148C368.206,-69.148 374.086,-68.028 379.686,-65.788C385.286,-63.548 390.221,-60.188 394.491,-55.708C398.761,-51.228 402.156,-45.523 404.676,-38.593C407.196,-31.663 408.456,-23.578 408.456,-14.338C408.456,-5.098 407.161,2.987 404.571,9.917C401.981,16.847 398.516,22.587 394.176,27.137C389.836,31.687 384.831,35.082 379.161,37.322C373.491,39.562 367.506,40.682 361.206,40.682Z" style="fill-rule:nonzero;"/>
        <path d="M474.186,-56.548C466.626,-56.548 460.151,-53.871 454.761,-48.516C449.371,-43.161 445.976,-35.058 444.576,-24.208L498.126,-24.208C498.966,-35.2 497.111,-43.338 492.561,-48.622C488.011,-53.906 481.886,-56.548 474.186,-56.548ZM513.036,29.552C509.256,32.772 504.356,35.432 498.336,37.532C492.316,39.632 485.456,40.682 477.756,40.682C460.956,40.682 448.076,35.887 439.116,26.297C430.156,16.707 425.676,3.162 425.676,-14.338C425.676,-22.878 426.936,-30.543 429.456,-37.333C431.976,-44.123 435.441,-49.898 439.851,-54.658C444.261,-59.418 449.441,-63.023 455.391,-65.473C461.341,-67.923 467.746,-69.148 474.606,-69.148C481.746,-69.148 488.151,-67.923 493.821,-65.473C499.491,-63.023 504.181,-59.383 507.891,-54.553C511.601,-49.723 514.121,-43.703 515.451,-36.493C516.781,-29.283 516.746,-20.988 515.346,-11.608L443.946,-11.608C444.786,13.452 456.616,25.982 479.436,25.982C485.456,25.982 490.846,25.111 495.606,23.37C500.366,21.629 504.776,19.419 508.836,16.742L513.036,29.552Z" style="fill-rule:nonzero;"/>
        <path d="M557.766,-54.448L557.766,38.582L539.916,38.582L539.916,-67.048L602.916,-67.048L602.916,-54.448L557.766,-54.448Z" style="fill-rule:nonzero;"/>
        <path d="M666.546,40.682C659.686,40.682 653.176,39.457 647.016,37.007C640.856,34.557 635.466,30.987 630.846,26.297C626.226,21.607 622.551,15.867 619.821,9.077C617.091,2.287 615.726,-5.518 615.726,-14.338C615.726,-23.158 617.091,-30.963 619.821,-37.753C622.551,-44.543 626.226,-50.248 630.846,-54.868C635.466,-59.488 640.856,-63.023 647.016,-65.473C653.176,-67.923 659.686,-69.148 666.546,-69.148C673.406,-69.148 679.951,-67.923 686.181,-65.473C692.411,-63.023 697.871,-59.488 702.561,-54.868C707.251,-50.248 710.996,-44.543 713.796,-37.753C716.596,-30.963 717.996,-23.158 717.996,-14.338C717.996,-5.518 716.596,2.287 713.796,9.077C710.996,15.867 707.251,21.607 702.561,26.297C697.871,30.987 692.411,34.557 686.181,37.007C679.951,39.457 673.406,40.682 666.546,40.682ZM666.546,27.032C670.746,27.032 674.841,26.305 678.831,24.85C682.821,23.395 686.356,21.004 689.436,17.677C692.516,14.35 695.001,10.054 696.891,4.788C698.781,-0.477 699.726,-6.853 699.726,-14.338C699.726,-21.822 698.781,-28.162 696.891,-33.358C695.001,-38.554 692.516,-42.816 689.436,-46.143C686.356,-49.47 682.821,-51.861 678.831,-53.316C674.841,-54.771 670.746,-55.498 666.546,-55.498C662.346,-55.498 658.321,-54.771 654.471,-53.316C650.621,-51.861 647.156,-49.47 644.076,-46.143C640.996,-42.816 638.546,-38.554 636.726,-33.358C634.906,-28.162 633.996,-21.822 633.996,-14.338C633.996,-6.853 634.906,-0.477 636.726,4.788C638.546,10.054 640.996,14.35 644.076,17.677C647.156,21.004 650.621,23.395 654.471,24.85C658.321,26.305 662.346,27.032 666.546,27.032Z" style="fill-rule:nonzero;"/>
        <path d="M759.366,-54.448L759.366,-23.158L777.006,-23.158C784.986,-23.158 790.761,-24.663 794.331,-27.673C797.901,-30.683 799.686,-34.638 799.686,-39.538C799.686,-45.418 797.831,-49.373 794.121,-51.403C790.411,-53.433 785.196,-54.448 778.476,-54.448L759.366,-54.448ZM759.366,-10.558L759.366,25.982L778.266,25.982C785.826,25.982 791.916,24.617 796.536,21.887C801.156,19.157 803.466,14.292 803.466,7.292C803.466,-4.608 795.066,-10.558 778.266,-10.558L759.366,-10.558ZM741.516,-67.048L778.686,-67.048C791.426,-67.048 801.051,-64.983 807.561,-60.853C814.071,-56.723 817.326,-50.108 817.326,-41.008C817.326,-29.248 810.746,-21.688 797.586,-18.328C805.846,-16.928 811.971,-14.023 815.961,-9.613C819.951,-5.203 821.946,0.572 821.946,7.712C821.946,13.172 820.861,17.862 818.691,21.782C816.521,25.702 813.511,28.887 809.661,31.337C805.811,33.787 801.226,35.607 795.906,36.797C790.586,37.987 784.776,38.582 778.476,38.582L741.516,38.582L741.516,-67.048Z" style="fill-rule:nonzero;"/>
        <path d="M890.406,40.682C883.546,40.682 877.036,39.457 870.876,37.007C864.716,34.557 859.326,30.987 854.706,26.297C850.086,21.607 846.411,15.867 843.681,9.077C840.951,2.287 839.586,-5.518 839.586,-14.338C839.586,-23.158 840.951,-30.963 843.681,-37.753C846.411,-44.543 850.086,-50.248 854.706,-54.868C859.326,-59.488 864.716,-63.023 870.876,-65.473C877.036,-67.923 883.546,-69.148 890.406,-69.148C897.266,-69.148 903.811,-67.923 910.041,-65.473C916.271,-63.023 921.731,-59.488 926.421,-54.868C931.111,-50.248 934.856,-44.543 937.656,-37.753C940.456,-30.963 941.856,-23.158 941.856,-14.338C941.856,-5.518 940.456,2.287 937.656,9.077C934.856,15.867 931.111,21.607 926.421,26.297C921.731,30.987 916.271,34.557 910.041,37.007C903.811,39.457 897.266,40.682 890.406,40.682ZM890.406,27.032C894.606,27.032 898.701,26.305 902.691,24.85C906.681,23.395 910.216,21.004 913.296,17.677C916.376,14.35 918.861,10.054 920.751,4.788C922.641,-0.477 923.586,-6.853 923.586,-14.338C923.586,-21.822 922.641,-28.162 920.751,-33.358C918.861,-38.554 916.376,-42.816 913.296,-46.143C910.216,-49.47 906.681,-51.861 902.691,-53.316C898.701,-54.771 894.606,-55.498 890.406,-55.498C886.206,-55.498 882.181,-54.771 878.331,-53.316C874.481,-51.861 871.016,-49.47 867.936,-46.143C864.856,-42.816 862.406,-38.554 860.586,-33.358C858.766,-28.162 857.856,-21.822 857.856,-14.338C857.856,-6.853 858.766,-0.477 860.586,4.788C862.406,10.054 864.856,14.35 867.936,17.677C871.016,21.004 874.481,23.395 878.331,24.85C882.181,26.305 886.206,27.032 890.406,27.032Z" style="fill-rule:nonzero;"/>
        <path d="M1015.78,28.082C1025.16,28.082 1032.75,24.749 1038.56,18.082C1044.37,11.416 1047.28,0.644 1047.28,-14.233C1047.28,-28.83 1044.37,-39.532 1038.56,-46.339C1032.75,-53.145 1025.16,-56.548 1015.78,-56.548C1011.16,-56.548 1006.75,-55.741 1002.55,-54.127C998.346,-52.512 994.671,-49.986 991.521,-46.549C988.371,-43.111 985.886,-38.725 984.066,-33.391C982.246,-28.057 981.336,-21.671 981.336,-14.233C981.336,-6.653 982.246,-0.197 984.066,5.136C985.886,10.469 988.371,14.82 991.521,18.187C994.671,21.555 998.346,24.046 1002.55,25.66C1006.75,27.275 1011.16,28.082 1015.78,28.082ZM1018.51,40.682C1010.67,40.682 1003.77,38.967 997.821,35.537C991.871,32.107 987.006,27.382 983.226,21.362L983.226,77.852L965.376,77.852L965.376,-67.048L981.126,-67.048L982.386,-48.358C986.166,-54.658 991.101,-59.698 997.191,-63.478C1003.28,-67.258 1010.67,-69.148 1019.35,-69.148C1025.51,-69.148 1031.39,-68.028 1036.99,-65.788C1042.59,-63.548 1047.52,-60.188 1051.79,-55.708C1056.06,-51.228 1059.46,-45.523 1061.98,-38.593C1064.5,-31.663 1065.76,-23.578 1065.76,-14.338C1065.76,-5.098 1064.46,2.987 1061.87,9.917C1059.28,16.847 1055.82,22.587 1051.48,27.137C1047.14,31.687 1042.13,35.082 1036.46,37.322C1030.79,39.562 1024.81,40.682 1018.51,40.682Z" style="fill-rule:nonzero;"/>
        <path d="M1153.96,38.582L1109.86,-17.803L1153.33,-67.048L1172.02,-67.048L1128.97,-19.903L1174.96,38.582L1153.96,38.582ZM1107.13,-67.048L1107.13,38.582L1089.28,38.582L1089.28,-67.048L1107.13,-67.048Z" style="fill-rule:nonzero;"/>
        <path d="M1193.65,-67.048L1211.5,-67.048L1211.5,14.642L1269.67,-67.048L1286.05,-67.048L1286.05,38.582L1268.2,38.582L1268.2,-43.318L1210.24,38.582L1193.65,38.582L1193.65,-67.048Z" style="fill-rule:nonzero;"/>
    </g>
</svg>
