<?xml version="1.0" encoding="UTF-8" standalone="no"?>
<!DOCTYPE svg PUBLIC "-//W3C//DTD SVG 1.1//EN" "http://www.w3.org/Graphics/SVG/1.1/DTD/svg11.dtd">
<svg width="100%" height="100%" viewBox="0 0 1240 200" version="1.1" xmlns="http://www.w3.org/2000/svg" xmlns:xlink="http://www.w3.org/1999/xlink" xml:space="preserve" xmlns:serif="http://www.serif.com/" style="fill-rule:evenodd;clip-rule:evenodd;stroke-linejoin:round;stroke-miterlimit:1.41421;">
    <g transform="matrix(1,0,0,1,-59.2231,106.804)">
        <path d="M77.706,-92.668L77.706,-28.408L102.906,-28.408C108.086,-28.408 112.811,-29.138 117.081,-30.598C121.351,-32.059 125.061,-34.249 128.211,-37.171C131.361,-40.092 133.811,-43.709 135.561,-48.02C137.311,-52.332 138.186,-57.409 138.186,-63.252C138.186,-72.988 135.211,-80.325 129.261,-85.262C123.311,-90.2 115.086,-92.668 104.586,-92.668L77.706,-92.668ZM77.706,-13.708L77.706,38.582L58.386,38.582L58.386,-107.368L104.586,-107.368C121.106,-107.368 134.056,-103.677 143.436,-96.294C152.816,-88.911 157.506,-77.977 157.506,-63.491C157.506,-55.194 156.141,-47.916 153.411,-41.658C150.681,-35.399 146.901,-30.196 142.071,-26.047C137.241,-21.899 131.501,-18.805 124.851,-16.766C118.201,-14.728 110.886,-13.708 102.906,-13.708L77.706,-13.708Z" style="fill-rule:nonzero;"/>
        <path d="M219.036,-56.548C211.476,-56.548 205.001,-53.871 199.611,-48.516C194.221,-43.161 190.826,-35.058 189.426,-24.208L242.976,-24.208C243.816,-35.2 241.961,-43.338 237.411,-48.622C232.861,-53.906 226.736,-56.548 219.036,-56.548ZM257.886,29.552C254.106,32.772 249.206,35.432 243.186,37.532C237.166,39.632 230.306,40.682 222.606,40.682C205.806,40.682 192.926,35.887 183.966,26.297C175.006,16.707 170.526,3.162 170.526,-14.338C170.526,-22.878 171.786,-30.543 174.306,-37.333C176.826,-44.123 180.291,-49.898 184.701,-54.658C189.111,-59.418 194.291,-63.023 200.241,-65.473C206.191,-67.923 212.596,-69.148 219.456,-69.148C226.596,-69.148 233.001,-67.923 238.671,-65.473C244.341,-63.023 249.031,-59.383 252.741,-54.553C256.451,-49.723 258.971,-43.703 260.301,-36.493C261.631,-29.283 261.596,-20.988 260.196,-11.608L188.796,-11.608C189.636,13.452 201.466,25.982 224.286,25.982C230.306,25.982 235.696,25.111 240.456,23.37C245.216,21.629 249.626,19.419 253.686,16.742L257.886,29.552Z" style="fill-rule:nonzero;"/>
        <path d="M337.056,-50.248C333.416,-50.528 329.846,-50.248 326.346,-49.408C322.846,-48.568 319.591,-47.238 316.581,-45.418C313.571,-43.598 310.841,-41.358 308.391,-38.698C305.941,-36.038 304.016,-33.098 302.616,-29.878L302.616,38.582L284.766,38.582L284.766,-67.048L300.516,-67.048L302.196,-44.158L302.616,-44.158C304.016,-47.238 305.801,-50.213 307.971,-53.083C310.141,-55.953 312.661,-58.473 315.531,-60.643C318.401,-62.813 321.621,-64.598 325.191,-65.998C328.761,-67.398 332.716,-68.098 337.056,-68.098L337.056,-50.248Z" style="fill-rule:nonzero;"/>
        <path d="M399.426,-56.548C391.866,-56.548 385.391,-53.871 380.001,-48.516C374.611,-43.161 371.216,-35.058 369.816,-24.208L423.366,-24.208C424.206,-35.2 422.351,-43.338 417.801,-48.622C413.251,-53.906 407.126,-56.548 399.426,-56.548ZM438.276,29.552C434.496,32.772 429.596,35.432 423.576,37.532C417.556,39.632 410.696,40.682 402.996,40.682C386.196,40.682 373.316,35.887 364.356,26.297C355.396,16.707 350.916,3.162 350.916,-14.338C350.916,-22.878 352.176,-30.543 354.696,-37.333C357.216,-44.123 360.681,-49.898 365.091,-54.658C369.501,-59.418 374.681,-63.023 380.631,-65.473C386.581,-67.923 392.986,-69.148 399.846,-69.148C406.986,-69.148 413.391,-67.923 419.061,-65.473C424.731,-63.023 429.421,-59.383 433.131,-54.553C436.841,-49.723 439.361,-43.703 440.691,-36.493C442.021,-29.283 441.986,-20.988 440.586,-11.608L369.186,-11.608C370.026,13.452 381.856,25.982 404.676,25.982C410.696,25.982 416.086,25.111 420.846,23.37C425.606,21.629 430.016,19.419 434.076,16.742L438.276,29.552Z" style="fill-rule:nonzero;"/>
        <path d="M508.836,27.662C513.176,27.662 517.446,26.712 521.646,24.812C525.846,22.912 529.556,20.169 532.776,16.581C535.996,12.994 538.586,8.597 540.546,3.39C542.506,-1.816 543.486,-7.725 543.486,-14.338C543.486,-20.951 542.506,-26.86 540.546,-32.067C538.586,-37.273 535.996,-41.705 532.776,-45.362C529.556,-49.02 525.846,-51.799 521.646,-53.698C517.446,-55.598 513.106,-56.548 508.626,-56.548C504.006,-56.548 499.736,-55.563 495.816,-53.593C491.896,-51.624 488.536,-48.845 485.736,-45.257C482.936,-41.67 480.766,-37.238 479.226,-31.962C477.686,-26.685 476.916,-20.811 476.916,-14.338C476.916,-1.113 479.856,9.194 485.736,16.581C491.616,23.968 499.316,27.662 508.836,27.662ZM506.106,78.272C496.026,78.272 487.836,77.327 481.536,75.437C475.236,73.547 470.476,71.622 467.256,69.662L473.766,54.962C476.286,56.697 480.346,58.565 485.946,60.568C491.546,62.571 498.336,63.572 506.316,63.572C519.336,63.572 528.436,60.486 533.616,54.315C538.796,48.145 541.386,39.234 541.386,27.583L541.386,19.472C537.606,25.772 532.706,30.812 526.686,34.592C520.666,38.372 513.596,40.262 505.476,40.262C499.036,40.262 492.981,39.037 487.311,36.587C481.641,34.137 476.706,30.567 472.506,25.877C468.306,21.187 464.981,15.447 462.531,8.657C460.081,1.867 458.856,-5.798 458.856,-14.338C458.856,-23.018 460.081,-30.753 462.531,-37.543C464.981,-44.333 468.341,-50.073 472.611,-54.763C476.881,-59.453 481.851,-63.023 487.521,-65.473C493.191,-67.923 499.316,-69.148 505.896,-69.148C514.156,-69.148 521.366,-67.188 527.526,-63.268C533.686,-59.348 538.726,-54.098 542.646,-47.518L542.856,-50.248C542.856,-51.508 542.891,-52.908 542.961,-54.448C543.031,-55.988 543.136,-57.528 543.276,-59.068C543.416,-60.608 543.556,-62.078 543.696,-63.478C543.836,-64.878 543.976,-66.068 544.116,-67.048L560.286,-67.048C560.006,-65.228 559.761,-62.533 559.551,-58.963C559.341,-55.393 559.236,-52.488 559.236,-50.248L559.236,27.452C559.236,35.152 558.256,42.152 556.296,48.452C554.336,54.752 551.221,60.107 546.951,64.517C542.681,68.927 537.186,72.322 530.466,74.702C523.746,77.082 515.626,78.272 506.106,78.272Z" style="fill-rule:nonzero;"/>
        <path d="M633.996,40.682C627.136,40.682 620.626,39.457 614.466,37.007C608.306,34.557 602.916,30.987 598.296,26.297C593.676,21.607 590.001,15.867 587.271,9.077C584.541,2.287 583.176,-5.518 583.176,-14.338C583.176,-23.158 584.541,-30.963 587.271,-37.753C590.001,-44.543 593.676,-50.248 598.296,-54.868C602.916,-59.488 608.306,-63.023 614.466,-65.473C620.626,-67.923 627.136,-69.148 633.996,-69.148C640.856,-69.148 647.401,-67.923 653.631,-65.473C659.861,-63.023 665.321,-59.488 670.011,-54.868C674.701,-50.248 678.446,-44.543 681.246,-37.753C684.046,-30.963 685.446,-23.158 685.446,-14.338C685.446,-5.518 684.046,2.287 681.246,9.077C678.446,15.867 674.701,21.607 670.011,26.297C665.321,30.987 659.861,34.557 653.631,37.007C647.401,39.457 640.856,40.682 633.996,40.682ZM633.996,27.032C638.196,27.032 642.291,26.305 646.281,24.85C650.271,23.395 653.806,21.004 656.886,17.677C659.966,14.35 662.451,10.054 664.341,4.788C666.231,-0.477 667.176,-6.853 667.176,-14.338C667.176,-21.822 666.231,-28.162 664.341,-33.358C662.451,-38.554 659.966,-42.816 656.886,-46.143C653.806,-49.47 650.271,-51.861 646.281,-53.316C642.291,-54.771 638.196,-55.498 633.996,-55.498C629.796,-55.498 625.771,-54.771 621.921,-53.316C618.071,-51.861 614.606,-49.47 611.526,-46.143C608.446,-42.816 605.996,-38.554 604.176,-33.358C602.356,-28.162 601.446,-21.822 601.446,-14.338C601.446,-6.853 602.356,-0.477 604.176,4.788C605.996,10.054 608.446,14.35 611.526,17.677C614.606,21.004 618.071,23.395 621.921,24.85C625.771,26.305 629.796,27.032 633.996,27.032Z" style="fill-rule:nonzero;"/>
        <path d="M694.896,-67.048L713.586,-67.048L744.036,26.402L774.066,-67.048L790.656,-67.048L755.376,38.582L729.966,38.582L694.896,-67.048Z" style="fill-rule:nonzero;"/>
        <path d="M850.926,40.682C844.066,40.682 837.556,39.457 831.396,37.007C825.236,34.557 819.846,30.987 815.226,26.297C810.606,21.607 806.931,15.867 804.201,9.077C801.471,2.287 800.106,-5.518 800.106,-14.338C800.106,-23.158 801.471,-30.963 804.201,-37.753C806.931,-44.543 810.606,-50.248 815.226,-54.868C819.846,-59.488 825.236,-63.023 831.396,-65.473C837.556,-67.923 844.066,-69.148 850.926,-69.148C857.786,-69.148 864.331,-67.923 870.561,-65.473C876.791,-63.023 882.251,-59.488 886.941,-54.868C891.631,-50.248 895.376,-44.543 898.176,-37.753C900.976,-30.963 902.376,-23.158 902.376,-14.338C902.376,-5.518 900.976,2.287 898.176,9.077C895.376,15.867 891.631,21.607 886.941,26.297C882.251,30.987 876.791,34.557 870.561,37.007C864.331,39.457 857.786,40.682 850.926,40.682ZM850.926,27.032C855.126,27.032 859.221,26.305 863.211,24.85C867.201,23.395 870.736,21.004 873.816,17.677C876.896,14.35 879.381,10.054 881.271,4.788C883.161,-0.477 884.106,-6.853 884.106,-14.338C884.106,-21.822 883.161,-28.162 881.271,-33.358C879.381,-38.554 876.896,-42.816 873.816,-46.143C870.736,-49.47 867.201,-51.861 863.211,-53.316C859.221,-54.771 855.126,-55.498 850.926,-55.498C846.726,-55.498 842.701,-54.771 838.851,-53.316C835.001,-51.861 831.536,-49.47 828.456,-46.143C825.376,-42.816 822.926,-38.554 821.106,-33.358C819.286,-28.162 818.376,-21.822 818.376,-14.338C818.376,-6.853 819.286,-0.477 821.106,4.788C822.926,10.054 825.376,14.35 828.456,17.677C831.536,21.004 835.001,23.395 838.851,24.85C842.701,26.305 846.726,27.032 850.926,27.032Z" style="fill-rule:nonzero;"/>
        <path d="M978.186,-50.248C974.546,-50.528 970.976,-50.248 967.476,-49.408C963.976,-48.568 960.721,-47.238 957.711,-45.418C954.701,-43.598 951.971,-41.358 949.521,-38.698C947.071,-36.038 945.146,-33.098 943.746,-29.878L943.746,38.582L925.896,38.582L925.896,-67.048L941.646,-67.048L943.326,-44.158L943.746,-44.158C945.146,-47.238 946.931,-50.213 949.101,-53.083C951.271,-55.953 953.791,-58.473 956.661,-60.643C959.531,-62.813 962.751,-64.598 966.321,-65.998C969.891,-67.398 973.846,-68.098 978.186,-68.098L978.186,-50.248Z" style="fill-rule:nonzero;"/>
        <path d="M1018.3,-113.668L1018.3,38.582L1000.45,38.582L1000.45,-113.668L1018.3,-113.668ZM1065.13,38.582L1021.03,-17.803L1064.5,-67.048L1083.19,-67.048L1040.14,-19.903L1086.13,38.582L1065.13,38.582Z" style="fill-rule:nonzero;"/>
        <path d="M1113.64,-83.008C1110.14,-83.008 1107.37,-84.058 1105.34,-86.158C1103.31,-88.258 1102.3,-90.918 1102.3,-94.138C1102.3,-97.358 1103.31,-100.088 1105.34,-102.328C1107.37,-104.568 1110.14,-105.688 1113.64,-105.688C1117,-105.688 1119.73,-104.568 1121.83,-102.328C1123.93,-100.088 1124.98,-97.358 1124.98,-94.138C1124.98,-90.918 1123.93,-88.258 1121.83,-86.158C1119.73,-84.058 1117,-83.008 1113.64,-83.008ZM1122.67,-67.048L1122.67,38.582L1104.82,38.582L1104.82,-67.048L1122.67,-67.048Z" style="fill-rule:nonzero;"/>
    </g>
</svg>
