<svg width="66" height="529" viewBox="0 0 66 529" fill="none" xmlns="http://www.w3.org/2000/svg">
<path d="M2.00806 93.5389C8.56493 86.982 14.0113 83.1194 16.5732 74.1529C18.5932 67.083 21.394 61.3009 21.394 53.8438V41.843C21.394 35.6141 24.9163 30.3435 25.8046 24.3033C26.8568 17.1485 26.9329 10.2928 26.9329 3.07103C26.9329 -0.56527 29.0005 10.0582 29.651 13.6359C30.3675 17.5767 29.7183 21.5626 31.7537 25.2264C36.4971 33.7646 42.6923 40.4358 45.1905 50.1512C47.5065 59.1577 46.931 68.4443 50.9345 76.9223C52.9932 81.2818 54.0138 85.9636 56.0118 90.3591C58.3219 95.4414 61.4175 99.7345 63.8585 104.617M34.318 72.3066C34.318 87.1334 31.5486 101.63 31.5486 116.412V163.698C31.5486 197.591 41.251 230.829 40.7287 265.038C40.3397 290.52 38.0106 315.826 38.0106 341.351C38.0106 367.85 37.4601 394.349 36.9848 420.844C36.6756 438.083 35.6991 455.301 35.3437 472.54C35.1204 483.37 34.3977 495.008 36.7797 505.67C38.4098 512.967 43.5494 519.811 43.5494 527.415" stroke="black" stroke-width="3" stroke-linecap="round" stroke-linejoin="round"/>
</svg>
