<svg width="71" height="77" viewBox="0 0 71 77" fill="none" xmlns="http://www.w3.org/2000/svg">
<path d="M4.86513 4.21091C4.96057 16.8563 4.2448 29.462 2.71783 42.0677C2.28837 45.675 1.81119 49.2426 1.23857 52.8103C1.14314 53.5634 2.57467 53.5634 2.67011 52.8103C4.62654 40.2838 5.77177 27.6385 6.15351 14.9931C6.24895 11.3859 6.29667 7.77856 6.29667 4.17127C6.29667 3.85414 5.96264 3.57666 5.5809 3.57666C5.19915 3.57666 4.86513 3.85414 4.86513 4.21091Z" fill="black" stroke="black" stroke-miterlimit="10"/>
<path d="M6.58298 4.64691C7.29875 10.7119 9.15975 16.6184 12.1183 22.168C13.5975 24.9429 15.3631 27.5988 17.3672 30.1358C18.3693 31.4043 19.4191 32.6332 20.5643 33.8224C21.6618 34.972 22.8548 36.0819 23.5705 37.4297C24.334 38.8567 24.0954 40.3234 24 41.8298C23.9046 43.2172 24 44.6839 25.3361 45.6749C26.0041 46.1902 27.0539 45.3578 26.3382 44.8425C25.2407 44.01 25.3361 42.7415 25.4315 41.6316C25.527 40.3234 25.7178 39.0153 25.1929 37.7468C24.668 36.399 23.6183 35.2098 22.5685 34.0999C21.5187 32.9899 20.4212 31.8007 19.4191 30.6115C15.3153 25.6961 12.2137 20.2653 10.2095 14.5174C9.11203 11.3065 8.34854 8.01636 7.9668 4.64691C7.9668 3.89374 6.53527 3.89374 6.58298 4.64691Z" fill="black" stroke="black" stroke-miterlimit="10"/>
<path d="M27.5788 47.1422C27.7697 44.0503 29.1058 41.1961 30.5373 38.3817C31.9689 35.4879 33.4004 32.5941 34.7842 29.6607C37.4564 23.8336 39.8423 17.9271 41.9419 11.9414C43.1348 8.57192 44.2324 5.16283 45.2821 1.75374L43.8983 1.59518C44.9004 13.7252 46.2365 25.8156 47.7635 37.9456C48.1929 41.3547 48.6701 44.7638 49.1473 48.1332C49.2427 48.8864 50.6743 48.8864 50.5788 48.1332C48.9087 36.0429 47.4295 23.9525 46.2365 11.8225C45.9025 8.41336 45.6162 5.00427 45.2821 1.59518C45.2344 0.96093 44.0892 0.762727 43.8506 1.43662C42.0373 7.54127 39.9855 13.5666 37.5996 19.5524C35.2137 25.5381 32.4938 31.4445 29.5353 37.3114C27.9606 40.4826 26.3382 43.6935 26.1473 47.1422C26.0996 47.8954 27.5311 47.8954 27.5788 47.1422Z" fill="black" stroke="black" stroke-miterlimit="10"/>
<path d="M52.0104 50.1146C53.8714 44.0099 57.307 38.4206 60.695 32.8313C64.083 27.1626 67.4709 21.4148 69.0933 15.1912C70.0477 11.7028 70.2863 8.13516 69.7614 4.56751C69.7614 4.25038 69.4274 3.9729 69.0456 3.9729C68.6639 3.9729 68.3299 4.25038 68.3299 4.56751C67.9958 13.8038 67.6141 23.04 67.2801 32.2763L66.2303 59.7869L65.6577 75.4449C65.6099 76.1981 67.0415 76.1981 67.0892 75.4449L68.139 47.7361L69.1888 20.2255L69.7614 4.56751H68.3299C69.3319 10.91 67.4232 17.1732 64.6079 23.04C61.7925 28.9068 58.0228 34.2583 54.9212 39.9666C53.1556 43.1378 51.7241 46.428 50.6265 49.7974C50.388 50.5506 51.7718 50.8677 52.0104 50.1146Z" fill="black" stroke="black" stroke-miterlimit="10"/>
<path d="M0.99961 49.9957L2.19256 74.2558C2.19256 74.5729 2.47886 74.8504 2.86061 74.8504C2.86061 74.8504 2.86061 74.8504 2.90832 74.8504C11.0681 74.1765 19.1801 73.6215 27.3876 73.1855C35.595 72.7494 43.7071 72.4719 51.7714 72.353C56.4 72.2737 61.0287 72.2341 65.6573 72.2341C66.039 72.2341 66.3731 71.9566 66.3731 71.6395C66.3731 71.3224 66.039 71.0449 65.6573 71.0449C57.4975 71.0449 49.2901 71.1638 41.1303 71.4413C32.9706 71.7188 24.8108 72.1152 16.7465 72.6305C12.1179 72.908 7.53695 73.2648 2.95604 73.6612L3.67181 74.2558L2.43115 49.9957C2.38343 49.2029 0.951893 49.2029 0.99961 49.9957Z" fill="black" stroke="black" stroke-miterlimit="10"/>
</svg>
