<svg width="74" height="62" viewBox="0 0 74 62" fill="none" xmlns="http://www.w3.org/2000/svg">
<path d="M6.86111 33.3356C7.05715 33.1266 7.24723 32.9145 7.43346 32.7008M7.43346 32.7008C8.7939 31.1402 9.94907 29.4977 11.7222 28.3857C12.3964 27.9629 12.8622 26.8567 13.1986 26.1817C13.6457 25.2843 14.6585 24.6024 15.4671 24.0861C17.0502 23.0753 18.1708 21.6622 19.5 20.3286C20.5303 19.2948 24.0346 17.9822 24.3431 16.589C24.7697 14.6629 25.4351 12.5942 27.2778 11.6211C28.4271 11.0141 29.3113 10.5941 30.3565 9.77841C31.1059 9.19355 31.248 8.24002 31.9588 7.62864C33.3135 6.46353 34.2893 4.55945 35.6317 3.34715C36.8993 2.20246 40.099 2.76906 41.7351 2.76906C50.585 2.76906 59.4927 3.09424 68.2731 3.09424H70.7037C72.9471 3.09424 71.6066 3.1499 70.7757 3.81685C69.6185 4.74581 68.152 5.26794 67.463 6.99635C67.2148 7.61874 66.4101 8.2485 65.8426 8.54997C65.1798 8.90205 64.6892 9.96015 64.1502 10.501C62.8318 11.8239 61.8495 13.8487 60.1893 14.8006C59.6832 15.0908 59.0535 16.2194 58.6409 16.6794C58.117 17.2636 57.3447 18.0483 56.6065 18.3775C55.0698 19.0628 54.5924 20.8193 53.2037 21.557C51.8285 22.2875 51.196 24.2589 49.8009 24.881C48.6376 25.3998 46.6705 27.3177 46.0021 28.458C45.1038 29.9901 43.2339 30.5614 42.5093 32.1975C41.694 34.038 40.053 33.9859 38.2963 33.9859C34.6976 33.9859 31.2177 34.3111 27.6019 34.3111C23.9339 34.3111 20.2941 33.9859 16.5833 33.9859C15.4436 33.9859 12.548 34.0488 11.5602 33.4982C10.778 33.0622 8.86147 32.7838 7.43346 32.7008ZM7.43346 32.7008C6.94944 32.6727 6.52154 32.667 6.21296 32.6852C5.48194 32.7284 6.04906 37.2461 5.87088 38.0506C5.41498 40.1092 3.70729 41.4885 3.62037 43.669C3.55306 45.3573 2.64815 46.9961 2.64815 48.7814C2.64815 51.0338 2 53.4348 2 55.7727M2 59.3497H37.3241M40.8889 34.3111C40.8889 35.9563 40.5648 37.425 40.5648 39.0262C40.5648 39.8854 40.8415 41.3282 40.4928 42.1153C40.2943 42.5635 40.0406 43.1005 39.9347 43.5786C39.8032 44.1724 39.3967 44.3817 39.2865 44.8793C39.0594 45.9049 39.5376 47.1048 39.2505 48.113C38.9696 49.0996 38.9444 50.0983 38.9444 51.2203C38.9444 52.406 37.9722 53.1698 37.9722 54.3094C37.9722 55.4277 37.5738 59.5495 36.6759 60M41.8611 34.6363C42.4907 31.8288 46.0122 31.8173 47.0463 28.9638C47.4008 27.9856 47.5624 27.7689 48.1625 26.9947C48.6624 26.3498 49.6377 26.2091 50.035 25.5314C51.7262 22.6465 54.7602 20.4288 56.9486 18.233C58.2582 16.9188 59.9783 16.2403 60.9095 14.4754C61.5531 13.2555 63.0044 11.9031 64.0602 11.0791C65.6291 9.85471 68.231 8.28975 69.2634 6.49051C69.7685 5.6102 71.1474 3.84714 72 3.41941M36.3519 2.76906H46.8843C48.1098 2.76906 49.5382 2.1187 50.9352 2.1187C52.3019 2.1187 53.9791 1.83996 55.3102 2.13677C58.0473 2.74708 60.9851 2.52124 63.7181 3.16649C66.382 3.79543 69.2494 3.74458 72 3.74458C70.9818 6.14853 69.7315 8.88888 69.7315 11.4765C69.7315 12.011 69.6614 14.3194 69.3354 14.7283C68.6904 15.5372 69.4216 16.8008 69.0113 17.7271C68.1416 19.6906 67.463 21.7741 67.463 23.9055C67.463 26.2112 66.4907 28.1799 66.4907 30.409M38.2963 58.0489C39.2545 57.4538 40.3256 56.8479 41.0329 55.9353C41.3567 55.5176 41.0583 54.8745 41.537 54.5443C42.1061 54.1517 42.1182 52.9495 42.6893 52.3764C44.0038 51.0575 46.1493 50.6389 47.4424 49.3415C49.7747 47.0013 52.3241 44.6238 54.662 42.2779C56.9724 39.9597 59.2731 36.6017 62.1337 34.9615C63.5611 34.143 64.2506 32.7858 65.5185 31.9626C66.3394 31.4297 66.064 30.2229 66.6708 29.6141C67.2179 29.0652 67.9236 28.6461 68.4352 28.1328M38.2963 26.8321C39.919 24.6771 41.1677 22.0376 43.8056 20.9789M47.3704 17.402C51.0325 14.9888 54.3371 10.9811 56.7685 7.32152" stroke="black" stroke-width="3" stroke-linecap="round" stroke-linejoin="round"/>
</svg>
