<svg width="653" height="263" viewBox="0 0 653 263" fill="none" xmlns="http://www.w3.org/2000/svg">
<g clip-path="url(#clip0)">
<path d="M5.54322 196.508C24.6735 195.203 43.7109 192.694 62.6244 189.517C81.5379 186.34 100.149 182.573 118.823 178.642C137.636 174.696 156.446 170.717 175.254 166.703C194.191 162.675 213.109 158.563 232.01 154.368C250.823 150.184 269.599 145.86 288.34 141.396L295.308 139.726C299.667 138.67 297.816 131.958 293.457 132.984C274.82 137.489 256.147 141.831 237.437 146.01C218.64 150.231 199.816 154.345 180.967 158.353C162.242 162.361 143.502 166.333 124.746 170.269C106.165 174.153 87.5844 178.036 68.8799 181.369C50.1754 184.701 31.4709 187.404 12.5961 188.958C10.2735 189.16 7.89676 189.331 5.54322 189.494C4.62605 189.516 3.75243 189.891 3.10371 190.542C2.45499 191.193 2.08099 192.069 2.05936 192.989C2.05936 194.784 3.65419 196.617 5.54322 196.485V196.508Z" fill="black"/>
<path d="M3.48386 198.707C42.2841 200.9 81.1921 200.257 119.899 196.78C158.284 193.316 196.343 186.822 234.766 183.73C256.281 181.99 277.912 181.361 299.465 182.954C301.339 183.093 302.949 181.252 302.949 179.458C302.931 178.537 302.558 177.658 301.909 177.006C301.259 176.355 300.384 175.981 299.465 175.963C261.058 173.158 222.642 177.407 184.567 182.223C165.352 184.655 146.152 187.234 126.875 189.144C107.597 191.055 88.3585 192.252 69.0424 192.741C47.1844 193.311 25.3316 192.974 3.48386 191.731C2.55989 191.731 1.67375 192.099 1.0204 192.755C0.367049 193.41 0 194.3 0 195.227C0 196.154 0.367049 197.043 1.0204 197.698C1.67375 198.354 2.55989 198.722 3.48386 198.722V198.707Z" fill="black"/>
<path d="M296.562 183.35L365.388 180.67L434.128 177.99L472.745 176.53C473.669 176.53 474.555 176.161 475.208 175.506C475.862 174.85 476.229 173.961 476.229 173.034C476.229 172.107 475.862 171.218 475.208 170.562C474.555 169.907 473.669 169.539 472.745 169.539L403.617 172.226L334.877 174.906L296.562 176.397C295.638 176.397 294.752 176.766 294.099 177.421C293.445 178.077 293.078 178.966 293.078 179.893C293.078 180.82 293.445 181.709 294.099 182.365C294.752 183.02 295.638 183.388 296.562 183.388V183.35Z" fill="black"/>
<path d="M472.722 175.559C479.689 173.469 484.954 168.412 489.754 163.231C492.074 160.632 494.542 158.171 497.147 155.86C497.31 155.72 497.48 155.572 497.651 155.44L497.945 155.199C497.643 155.44 498.177 155.021 498.247 154.974L498.642 154.679C499.416 154.143 500.19 153.63 500.964 153.172C501.638 152.784 502.334 152.434 503.047 152.123C502.396 152.411 503.519 151.952 503.666 151.898C504.053 151.758 504.44 151.634 504.851 151.517C505.261 151.401 505.756 151.277 506.213 151.176L506.817 151.059C507.135 151.005 507.467 150.974 506.956 151.059C507.869 150.954 508.788 150.923 509.705 150.966L510.309 151.013C510.68 151.013 510.595 151.067 510.309 151.013C510.75 151.098 511.191 151.176 511.633 151.292C512.074 151.409 512.492 151.564 512.918 151.712C512.314 151.51 512.786 151.65 512.918 151.712C513.189 151.851 513.46 151.984 513.692 152.139C514.49 152.608 515.44 152.739 516.335 152.505C517.229 152.27 517.994 151.689 518.461 150.888C518.928 150.088 519.059 149.134 518.825 148.237C518.592 147.339 518.012 146.572 517.214 146.103C510.402 142.305 502.002 143.991 495.793 148.201C489.584 152.411 485.302 158.392 479.844 163.324C479.132 163.969 478.397 164.591 477.638 165.196C478.102 164.824 477.638 165.196 477.584 165.196L476.941 165.67C476.554 165.945 476.159 166.204 475.757 166.447C474.916 166.989 474.042 167.477 473.14 167.907L472.706 168.109C471.785 168.537 473.333 167.9 472.373 168.241C471.878 168.42 471.382 168.599 470.871 168.746C469.98 168.992 469.223 169.584 468.766 170.39C468.31 171.196 468.191 172.152 468.437 173.046C468.682 173.94 469.271 174.7 470.075 175.158C470.878 175.616 471.831 175.735 472.722 175.489V175.559Z" fill="black"/>
<path d="M296.841 142.033C333.514 128.61 373.346 129.364 411.831 128.502L474.433 127.103L505.4 126.412C509.651 126.319 514.133 126.21 516.703 122.264C518.252 119.841 518.337 116.749 518.035 113.976C517.842 112.12 517.547 110.426 517.392 108.974C517.315 108.236 517.253 107.482 517.238 106.736C517.238 106.379 517.238 106.022 517.238 105.665C517.238 104.888 517.114 106.014 517.284 105.237C517.348 104.917 517.43 104.6 517.532 104.29C517.307 104.934 517.625 104.111 517.725 103.971C518.229 103.272 517.269 104.196 517.981 103.668C518.217 103.485 518.478 103.336 518.755 103.225C521 102.278 523.942 102.301 526.342 101.858C537.036 99.8579 547.424 96.4631 557.24 91.7603L552.471 86.9754L538.241 116.78C537.142 119.072 538.435 122.086 541.245 122.039C563.387 121.638 585.463 119.511 607.276 115.677C618.027 113.787 628.69 111.48 639.266 108.756L643.23 107.715C644.004 107.498 645.421 106.814 646.272 107.024C645.986 106.954 646.272 106.434 646.195 107.257C646.117 108.08 646.032 109.028 645.839 109.945C644.677 115.452 643.477 120.959 642.301 126.467C639.591 139.081 636.884 151.701 634.179 164.326H640.899C635.588 147.3 614.213 143.517 599.016 141.87C588.914 140.786 578.719 140.927 568.652 142.289C558.587 143.641 548.879 146.445 539.008 148.706C528.448 151.129 517.462 152.799 506.832 149.863C502.497 148.667 500.639 155.409 504.974 156.598C524.074 161.872 543.103 154.267 561.699 150.5C571.243 148.579 580.983 147.817 590.708 148.232C599.658 148.597 608.84 149.785 617.387 152.52C624.308 154.757 631.895 158.734 634.21 166.183C635.186 169.29 640.172 169.717 640.93 166.183L648.455 131.081L652.218 113.525C653.224 108.865 654.44 101.928 648.254 100.274C645.537 99.5513 642.695 100.631 640.086 101.322C637.335 102.053 634.582 102.752 631.826 103.42C626.19 104.787 620.528 106.037 614.84 107.171C603.444 109.445 591.963 111.234 580.396 112.539C567.405 113.984 554.365 114.82 541.276 115.048L544.288 120.307L558.518 90.5097C558.879 89.8417 559.016 89.0744 558.908 88.3221C558.799 87.5697 558.452 86.8727 557.916 86.3347C557.381 85.7968 556.687 85.4468 555.937 85.3369C555.188 85.227 554.423 85.363 553.756 85.7248C545.244 89.749 536.282 92.7375 527.062 94.6266C524.74 95.1004 522.417 95.4966 520.094 95.8539C517.772 96.2112 515.449 96.755 513.522 98.3939C511.16 100.437 510.332 103.521 510.332 106.55C510.332 109.579 511.029 112.321 511.222 114.908C511.269 115.561 511.284 116.221 511.269 116.873C511.269 116.873 511.168 117.93 511.269 117.409C511.369 116.889 511.145 117.922 511.152 117.899C511.16 117.875 510.82 118.971 511.075 118.217C510.998 118.403 510.896 118.578 510.773 118.738C511.338 118.178 510.549 118.924 510.502 118.955C511.06 118.629 509.999 119.126 509.883 119.165C507.932 119.779 505.416 119.421 503.372 119.468L494.933 119.662L479.449 120.004L417.46 121.379C397.764 121.821 378.022 121.946 358.366 123.282C336.874 124.734 315.305 127.849 294.99 135.291C294.113 135.557 293.371 136.151 292.919 136.951C292.466 137.75 292.337 138.694 292.559 139.586C293.024 141.295 295.068 142.693 296.841 142.025V142.033Z" fill="black"/>
<path d="M562.396 146.678L562.257 182.107C562.267 183.031 562.637 183.914 563.288 184.567C563.94 185.221 564.82 185.592 565.741 185.602C566.658 185.581 567.532 185.205 568.18 184.555C568.829 183.904 569.203 183.027 569.225 182.107C569.31 181.214 569.41 180.32 569.519 179.435C569.523 179.299 569.542 179.163 569.573 179.031C569.643 178.588 569.705 178.145 569.782 177.703C570.053 176.04 570.37 174.393 570.75 172.755C571.48 169.593 572.405 166.48 573.521 163.433C573.792 162.656 574.071 161.965 574.365 161.235C574.404 161.126 574.907 159.922 574.652 160.52C574.83 160.109 575.008 159.697 575.194 159.285C575.829 157.856 576.507 156.445 577.23 155.052C578.785 152.072 580.528 149.195 582.448 146.437C582.911 145.637 583.04 144.686 582.806 143.791C582.573 142.896 581.996 142.13 581.201 141.66C580.399 141.213 579.455 141.094 578.567 141.327C577.679 141.56 576.914 142.127 576.432 142.911C568.415 154.535 563.531 168.044 562.257 182.122H569.225L569.364 146.694C569.364 145.767 568.997 144.878 568.344 144.222C567.69 143.567 566.804 143.198 565.88 143.198C564.956 143.198 564.07 143.567 563.417 144.222C562.763 144.878 562.396 145.767 562.396 146.694V146.678Z" fill="black"/>
<path d="M576.092 140.13C574.257 146.74 575.596 153.522 577.369 159.992C578.213 163.099 579.142 166.152 579.831 169.313C580.009 170.137 580.18 170.968 580.319 171.799C580.319 171.939 580.52 173.252 580.42 172.428C580.42 172.739 580.497 173.05 580.528 173.368C580.696 175.028 580.716 176.699 580.59 178.363C580.592 179.205 580.9 180.018 581.456 180.65C582.011 181.281 582.776 181.689 583.609 181.796C585.158 181.998 587.194 181.019 587.434 179.295C589.222 166.478 592.566 153.928 597.39 141.924C598.071 140.223 596.616 138.041 594.951 137.629C592.938 137.163 591.398 138.25 590.67 140.068C585.847 152.069 582.503 164.616 580.714 177.431L587.558 178.363C588.061 171.784 586.087 165.352 584.345 159.091C583.919 157.538 583.501 156.023 583.137 154.469C582.974 153.762 582.819 153.04 582.68 152.325C582.603 151.914 582.525 151.51 582.463 151.098C582.463 150.95 582.27 149.653 582.37 150.5C582.183 148.985 582.116 147.458 582.169 145.933C582.169 145.63 582.169 145.327 582.223 145.024C582.223 144.861 582.425 143.594 582.285 144.433C582.425 143.657 582.595 142.818 582.812 142.018C582.933 141.575 582.967 141.112 582.91 140.657C582.853 140.201 582.708 139.761 582.482 139.362C582.256 138.963 581.953 138.612 581.592 138.33C581.231 138.048 580.818 137.84 580.377 137.718C579.486 137.472 578.534 137.591 577.73 138.049C577.332 138.276 576.983 138.579 576.702 138.942C576.42 139.304 576.213 139.718 576.092 140.161V140.13Z" fill="black"/>
<path d="M353.906 128.059C357.429 127.531 360.17 124.812 361.973 121.891C363.777 118.971 364.939 115.444 366.007 112.127C368.251 104.866 369.765 97.3976 370.528 89.8339C372.201 74.8577 371.62 59.7494 371.844 44.7111C371.906 40.4388 372.03 36.1666 372.286 31.8943C372.41 29.8048 372.572 27.7075 372.766 25.618C372.866 24.5771 372.975 23.5285 373.091 22.5109L373.277 20.9574L373.37 20.266C373.292 20.8719 373.416 19.932 373.432 19.8077H366.712L376.443 66.4142L381.305 89.7174C382.079 93.5469 382.892 97.3764 383.697 101.206C384.348 104.972 385.528 108.625 387.204 112.057C387.982 113.472 388.869 114.823 389.86 116.097C390.479 116.873 391.099 117.72 391.726 118.52C391.997 118.854 392.26 119.196 392.5 119.538L392.763 119.879C393.019 120.206 392.43 119.437 392.825 119.965C393.827 121.256 394.725 122.625 395.511 124.059C395.682 124.377 395.829 124.711 395.984 125.037C396.208 125.496 395.798 124.478 395.984 124.96C396.053 125.177 396.146 125.387 396.216 125.597C396.324 125.946 396.425 126.296 396.51 126.653C396.549 126.832 396.58 127.01 396.626 127.189C396.797 127.919 396.564 126.536 396.626 127.36C396.812 129.177 398.097 130.949 400.11 130.855C401.837 130.778 403.795 129.302 403.594 127.36C403.234 124.091 402.06 120.966 400.18 118.272C399.243 116.889 398.206 115.568 397.176 114.256L396.549 113.479L396.216 113.044C395.751 112.438 395.287 111.824 394.853 111.195C393.946 109.922 393.168 108.561 392.531 107.133C392.368 106.76 392.531 107.094 392.531 107.133C392.446 106.915 392.361 106.698 392.283 106.48C392.121 106.045 391.973 105.602 391.834 105.16C391.548 104.274 391.308 103.365 391.06 102.464C390.146 98.7046 389.434 94.8907 388.644 91.1078L378.967 44.4781L373.432 17.9435C373.226 17.2075 372.787 16.5589 372.18 16.0963C371.574 15.6336 370.833 15.3822 370.072 15.3801C368.678 15.4423 366.928 16.4055 366.712 17.9435C364.637 32.7876 364.869 47.7405 364.792 62.6934C364.753 70.0261 364.629 77.3667 364.017 84.6839C363.87 86.5248 363.7 88.358 363.491 90.1912C363.444 90.5873 363.398 90.968 363.344 91.3874C363.344 91.6205 363.29 91.8457 363.259 92.071C363.259 92.1564 363.158 92.8478 363.212 92.4594C363.266 92.071 363.212 92.6613 363.212 92.6846C363.212 92.9099 363.143 93.1352 363.112 93.3604C363.042 93.8731 362.964 94.3858 362.879 94.914C362.328 98.4838 361.594 102.023 360.681 105.517C360.164 107.459 359.592 109.385 358.962 111.296C358.629 112.283 358.281 113.261 357.917 114.24C357.746 114.698 357.561 115.164 357.383 115.623C357.321 115.778 357.112 116.229 357.421 115.553L357.189 116.058C356.848 116.822 356.46 117.564 356.028 118.279C355.811 118.637 355.563 118.971 355.346 119.32C355.13 119.67 355.718 118.893 355.393 119.258C355.246 119.429 355.106 119.608 354.952 119.771C354.797 119.934 354.456 120.268 354.177 120.547C353.728 120.975 354.177 120.548 354.278 120.485C354.061 120.633 353.852 120.781 353.628 120.913C353.512 120.963 353.401 121.023 353.295 121.091C353.039 121.34 353.891 120.913 353.295 121.091C352.878 121.227 352.451 121.328 352.017 121.394C350.214 121.666 349.052 124.051 349.586 125.698C350.221 127.671 351.909 128.424 353.875 128.137L353.906 128.059Z" fill="black"/>
<path d="M403.904 127.034L412.908 79.2232L421.935 31.4128L427.037 4.36551H420.317L428.577 49.2941L436.884 94.4091L441.529 119.732C441.777 120.623 442.367 121.38 443.169 121.837C443.971 122.294 444.921 122.414 445.811 122.171C446.69 121.907 447.433 121.313 447.887 120.513C448.341 119.713 448.471 118.769 448.249 117.875L439.997 72.9468L431.682 27.8241L427.021 2.53232C426.402 -0.815574 420.928 -0.800039 420.301 2.53232L411.29 50.3117L402.278 98.1221L397.16 125.169C396.82 126.964 397.656 129.053 399.591 129.473C401.31 129.861 403.517 128.952 403.88 127.034H403.904Z" fill="black"/>
<path d="M449.806 123.492C450.131 120.384 450.479 117.565 450.866 114.877C451.307 111.824 451.803 108.772 452.329 105.734C453.375 99.7766 454.559 93.842 455.798 87.9153C458.298 75.9452 460.993 64.0139 463.052 51.9506C464.244 44.9597 465.22 37.9221 465.847 30.8535C466.002 29.129 464.407 27.6376 462.827 27.4201C461.248 27.2026 459.251 28.1969 459.003 29.9291C457.208 42.4122 456.285 55.0059 456.239 67.6182C456.235 80.2949 457.118 92.9563 458.879 105.509C459.839 112.464 461.08 119.367 462.603 126.218C462.854 127.108 463.444 127.862 464.245 128.32C465.045 128.778 465.993 128.902 466.884 128.665C467.764 128.399 468.507 127.804 468.961 127.003C469.415 126.201 469.545 125.256 469.323 124.361C466.683 112.542 464.9 100.545 463.989 88.4668C463.052 76.3186 462.957 64.1199 463.702 51.9584C463.909 48.4888 464.187 45.0218 464.538 41.5574C464.887 38.1474 465.313 34.6441 465.723 31.7623L458.879 30.8302C458.314 37.2152 457.609 42.3575 456.556 48.6105C455.573 54.5761 454.412 60.5185 453.196 66.4763C450.735 78.4542 448.009 90.3854 445.857 102.425C444.603 109.416 443.535 116.407 442.822 123.499C442.636 125.325 444.564 127.08 446.306 126.995C447.223 126.973 448.097 126.598 448.746 125.947C449.394 125.296 449.768 124.419 449.79 123.499L449.806 123.492Z" fill="black"/>
<path d="M351.677 124.828L332.128 102.402C330.224 100.219 325.935 101.882 326.183 104.88C327.158 115.397 328.131 125.912 329.101 136.425C329.272 138.242 330.58 140.013 332.585 139.92C334.327 139.843 336.247 138.367 336.069 136.425C335.094 125.912 334.121 115.397 333.15 104.88L327.205 107.35L346.784 129.776C347.441 130.425 348.327 130.789 349.25 130.789C350.172 130.789 351.058 130.425 351.715 129.776C352.347 129.107 352.698 128.222 352.698 127.302C352.698 126.381 352.347 125.496 351.715 124.828H351.677Z" fill="black"/>
<path d="M322.939 131.516C319.217 129.656 315.648 127.505 312.263 125.084C310.443 123.779 309.677 123.181 307.912 121.689C306.278 120.307 304.706 118.854 303.189 117.347C302.697 116.864 302.074 116.538 301.397 116.409C300.721 116.281 300.022 116.356 299.388 116.625C298.765 116.9 298.234 117.347 297.854 117.914C297.475 118.48 297.263 119.143 297.243 119.825L295.919 131.182L295.261 136.767L295.176 137.543C295.238 137.155 295.23 137.124 295.176 137.458C295.014 138.103 295.563 136.945 295.176 137.543C294.975 137.862 295.014 137.831 295.316 137.442C295.218 137.559 295.112 137.668 294.998 137.769C295.237 137.522 295.54 137.347 295.873 137.264C298.257 138.429 299.083 138.602 298.35 137.784C297.181 136.37 294.619 136.479 293.427 137.784C292.794 138.45 292.441 139.335 292.441 140.254C292.441 141.174 292.794 142.058 293.427 142.724C295.316 145.016 298.707 144.278 300.394 142.196C301.214 141.244 301.777 140.097 302.028 138.864C302.26 137.473 302.368 136.06 302.531 134.661L304.211 119.825L298.265 122.295C304.47 128.467 311.608 133.616 319.416 137.551C321.05 138.367 323.287 138.04 324.185 136.3C325.021 134.747 324.673 132.417 322.939 131.516Z" fill="black"/>
<path d="M290.655 138.468L283.811 120.462C283.615 119.812 283.239 119.232 282.726 118.789C282.213 118.346 281.585 118.059 280.916 117.961C280.238 117.863 279.546 117.969 278.928 118.266C278.31 118.564 277.795 119.039 277.447 119.631C273.504 127.24 270.97 135.504 269.968 144.022C269.744 145.847 271.726 147.595 273.452 147.517C275.527 147.424 276.696 145.964 276.936 144.022C276.936 143.789 276.99 143.556 277.021 143.33C276.967 143.711 277.021 143.439 277.021 143.214C277.091 142.755 277.168 142.289 277.246 141.831C277.408 140.852 277.594 139.874 277.803 138.91C278.206 137.02 278.694 135.156 279.267 133.318C279.816 131.531 280.451 129.776 281.148 128.043C281.217 127.872 281.349 127.562 281.202 127.904C281.287 127.694 281.388 127.476 281.481 127.259C281.69 126.777 281.907 126.303 282.123 125.83C282.549 124.929 282.99 124.035 283.447 123.157L277.076 122.326L283.919 140.324C284.562 142.025 286.296 143.385 288.201 142.763C289.858 142.227 291.298 140.293 290.639 138.468H290.655Z" fill="black"/>
<path d="M262.699 138.918C255.889 141.111 248.769 142.176 241.618 142.072L243.375 148.589L263.047 139.61C264.596 138.903 265.107 136.697 264.472 135.244C264.141 134.469 263.544 133.839 262.79 133.469C262.035 133.098 261.173 133.011 260.361 133.224C250.292 135.616 240.474 138.969 231.042 143.237L234.557 149.273L248.446 139.563C249.163 139.125 249.7 138.444 249.961 137.644C250.223 136.844 250.19 135.976 249.87 135.197C249.545 134.418 248.949 133.784 248.193 133.413C247.437 133.042 246.572 132.958 245.76 133.178C237.542 135.723 229.66 139.254 222.286 143.695C221.563 144.128 221.021 144.808 220.759 145.61C220.497 146.413 220.533 147.283 220.861 148.061C221.489 149.49 223.339 150.756 224.965 150.08L238.172 144.643C239.907 143.921 241.145 142.313 240.603 140.34C240.349 139.453 239.758 138.701 238.958 138.245C238.158 137.789 237.212 137.666 236.322 137.901C225.357 141.162 215.041 146.311 205.834 153.118C205.188 153.523 204.686 154.123 204.398 154.831C204.111 155.539 204.052 156.32 204.232 157.064C204.603 158.415 206.098 159.821 207.592 159.635C221.108 157.957 234.314 154.339 246.805 148.892C248.353 148.208 248.856 145.956 248.229 144.527C247.602 143.097 245.767 141.87 244.126 142.499L192.418 162.408C190.66 163.084 189.453 164.738 189.987 166.703C190.24 167.592 190.83 168.345 191.631 168.801C192.431 169.257 193.378 169.379 194.268 169.142C206.609 164.883 217.997 158.238 227.791 149.583C228.329 149.032 228.673 148.32 228.771 147.554C228.869 146.788 228.715 146.012 228.332 145.342C227.928 144.694 227.33 144.191 226.624 143.904C225.918 143.617 225.14 143.56 224.4 143.742C211.386 146.12 198.823 150.529 187.169 156.807C183.747 158.641 186.085 164.575 189.847 163.192C195.845 161.059 201.06 157.154 204.805 151.991C205.711 150.764 205.269 148.768 204.263 147.758C203.706 147.231 202.998 146.893 202.238 146.794C201.479 146.695 200.708 146.839 200.036 147.206L172.714 160.326L176.942 165.818L187.293 155.984C189.383 154.003 187.873 149.77 184.831 150.018C176.65 150.608 168.796 153.479 162.155 158.306C160.606 159.425 159.878 161.344 160.9 163.091C161.38 163.88 162.146 164.451 163.038 164.683C163.929 164.915 164.876 164.79 165.677 164.334L195.809 147.789C196.534 147.359 197.079 146.679 197.341 145.876C197.603 145.072 197.565 144.201 197.233 143.424C196.614 141.994 194.748 140.713 193.13 141.396C177.13 148.159 161.491 155.668 146.214 163.923C141.93 166.237 137.685 168.609 133.478 171.038C132.693 171.517 132.124 172.285 131.891 173.177C131.658 174.07 131.781 175.019 132.232 175.823C133.262 177.586 135.275 177.858 137.001 177.073C144.002 173.863 150.518 169.679 156.356 164.645C156.896 164.096 157.242 163.385 157.34 162.62C157.437 161.855 157.282 161.079 156.898 160.412C156.499 159.757 155.903 159.248 155.195 158.959C154.487 158.669 153.706 158.615 152.965 158.804C144.604 160.741 136.397 163.291 128.407 166.432C126.797 167.069 125.636 168.436 125.915 170.269C126.02 171.105 126.426 171.874 127.056 172.432C127.686 172.989 128.496 173.297 129.337 173.298C144.468 172.229 159.424 169.404 173.907 164.878C174.712 164.647 175.406 164.132 175.864 163.429C176.322 162.726 176.512 161.881 176.4 161.049C176.167 159.495 174.727 157.825 172.978 158.011C152.658 160.171 132.418 162.926 112.258 166.276C92.3198 169.59 72.4928 173.5 52.7767 178.005C41.6231 180.553 30.5083 183.288 19.4322 186.208C18.991 186.33 18.578 186.538 18.2168 186.82C17.8557 187.102 17.5534 187.453 17.3273 187.852C17.1012 188.251 16.9557 188.691 16.8991 189.147C16.8425 189.603 16.8759 190.065 16.9974 190.508C17.1189 190.95 17.3261 191.365 17.6072 191.727C17.8883 192.089 18.2378 192.393 18.6357 192.62C19.0336 192.846 19.4722 192.992 19.9263 193.049C20.3804 193.106 20.8413 193.072 21.2825 192.951C40.7509 187.819 60.3638 183.259 80.1211 179.272C99.8785 175.284 119.718 171.892 139.641 169.096C150.743 167.542 161.871 166.173 173.024 164.987L172.103 158.12C158.226 162.497 143.89 165.244 129.383 166.307L130.304 173.174C138.285 170.032 146.485 167.482 154.838 165.546L151.447 159.705C146.021 164.329 139.972 168.162 133.478 171.092L137.001 177.128C151.7 168.645 166.784 160.878 182.253 153.825C186.474 151.898 190.717 150.029 194.98 148.216L192.294 141.831L162.155 158.345L165.677 164.334C171.262 160.154 177.897 157.615 184.838 157.002L182.376 151.036L172.018 160.862C171.427 161.465 171.074 162.262 171.024 163.106C170.974 163.951 171.231 164.784 171.747 165.453C172.269 166.113 173.007 166.566 173.831 166.731C174.655 166.896 175.51 166.763 176.245 166.354L203.558 153.226L198.789 148.441C198.565 148.744 198.302 149.078 197.883 149.56C197.465 150.042 197.016 150.523 196.56 150.974C196.103 151.424 195.723 151.751 195.282 152.17L194.508 152.799C194.392 152.9 194.271 152.993 194.144 153.079C192.241 154.472 190.157 155.598 187.951 156.427L190.637 162.82C201.777 156.861 213.778 152.688 226.203 150.453L222.812 144.612C213.903 152.451 203.566 158.486 192.371 162.385L194.222 169.119L245.93 149.218L243.243 142.833C231.865 147.772 219.846 151.068 207.545 152.621L209.303 159.13C217.994 152.644 227.749 147.734 238.126 144.62L236.276 137.877L223.068 143.315L225.754 149.708C232.601 145.561 239.925 142.265 247.563 139.889L244.885 133.504L230.996 143.214C230.216 143.699 229.652 144.466 229.42 145.356C229.188 146.247 229.306 147.193 229.749 147.999C230.779 149.77 232.792 150.026 234.511 149.249C243.415 145.266 252.677 142.145 262.172 139.928L259.486 133.535L239.814 142.515C238.428 143.144 237.832 145.078 238.211 146.461C238.425 147.192 238.866 147.836 239.471 148.297C240.075 148.758 240.812 149.013 241.571 149.024C249.347 149.132 257.09 147.984 264.503 145.622C265.382 145.356 266.125 144.76 266.578 143.959C267.03 143.157 267.158 142.212 266.934 141.318C266.681 140.43 266.09 139.677 265.29 139.221C264.489 138.765 263.542 138.642 262.652 138.879L262.699 138.918Z" fill="black"/>
<path d="M105.468 179.947L105.561 179.008C105.608 178.526 105.561 179.062 105.561 179.233C105.604 179.041 105.635 178.846 105.654 178.65C105.762 178.029 105.894 177.415 106.057 176.809C106.219 176.203 106.428 175.52 106.653 174.891C106.781 174.604 106.895 174.311 106.993 174.013C106.947 174.192 106.722 174.611 106.916 174.192L107.164 173.656C107.721 172.483 108.376 171.361 109.122 170.3L109.401 169.912C109.664 169.546 109.401 169.912 109.285 170.059C109.5 169.83 109.699 169.586 109.881 169.329C110.346 168.793 110.833 168.28 111.337 167.775C111.983 167.117 112.346 166.23 112.346 165.305C112.346 164.381 111.983 163.493 111.337 162.835C110.676 162.195 109.793 161.838 108.875 161.838C107.956 161.838 107.074 162.195 106.413 162.835C101.797 167.377 98.9943 173.454 98.5314 179.924C98.5375 180.849 98.9065 181.735 99.5585 182.389C100.211 183.043 101.093 183.413 102.015 183.42C102.933 183.4 103.808 183.025 104.457 182.374C105.106 181.723 105.479 180.845 105.499 179.924L105.468 179.947Z" fill="black"/>
<path d="M111.902 160.536L114.309 175.388C114.604 177.198 116.942 178.371 118.598 177.835C119.474 177.564 120.214 176.967 120.666 176.167C121.118 175.367 121.248 174.424 121.029 173.531L118.622 158.664C118.328 156.854 115.989 155.681 114.333 156.225C113.456 156.492 112.716 157.087 112.263 157.886C111.811 158.685 111.682 159.628 111.902 160.52V160.536Z" fill="black"/>
<path d="M114.58 178.083C115.407 176.678 116.089 175.191 116.617 173.648C117.124 172.087 117.474 170.478 117.662 168.847C117.662 168.388 117.571 167.934 117.396 167.51C117.221 167.086 116.964 166.701 116.64 166.377C116.316 166.052 115.932 165.794 115.509 165.618C115.086 165.442 114.632 165.351 114.174 165.351C113.716 165.351 113.262 165.442 112.839 165.618C112.416 165.794 112.032 166.052 111.708 166.377L111.166 167.084C110.853 167.618 110.69 168.228 110.694 168.847V168.979L110.818 168.055C110.583 169.723 110.138 171.354 109.494 172.91L109.842 172.071C109.479 172.926 109.06 173.756 108.588 174.557C108.356 174.953 108.203 175.391 108.14 175.846C108.077 176.301 108.104 176.764 108.22 177.209C108.336 177.654 108.538 178.071 108.815 178.437C109.092 178.803 109.439 179.11 109.835 179.342C110.635 179.785 111.575 179.901 112.459 179.667C113.343 179.432 114.103 178.865 114.58 178.083Z" fill="black"/>
<path d="M110.555 156.644C111.244 156.644 111.917 156.439 112.49 156.055C113.063 155.671 113.51 155.125 113.773 154.486C114.037 153.848 114.106 153.145 113.972 152.467C113.837 151.789 113.505 151.166 113.018 150.677C112.531 150.188 111.91 149.855 111.234 149.72C110.558 149.585 109.858 149.655 109.221 149.919C108.585 150.184 108.041 150.632 107.658 151.207C107.275 151.782 107.071 152.457 107.071 153.149C107.081 154.073 107.451 154.956 108.102 155.609C108.753 156.263 109.634 156.634 110.555 156.644Z" fill="black"/>
<path d="M82.5985 181.517C86.7627 176.46 90.3465 170.949 93.2824 165.088C94.0953 163.457 93.7701 161.204 92.0359 160.303C90.4875 159.472 88.165 159.813 87.2669 161.561C85.898 164.317 84.381 166.995 82.7224 169.585C81.9018 170.859 81.0476 172.112 80.1598 173.345L79.4863 174.254C79.3779 174.409 79.2618 174.557 79.1456 174.712L78.9908 174.922L78.8282 175.131L78.4721 175.574C78.2089 175.908 77.9456 176.242 77.6979 176.569C76.5444 177.982 76.2192 180.149 77.6979 181.517C78.9753 182.689 81.3908 183.023 82.6218 181.517H82.5985Z" fill="black"/>
<path d="M90.5185 157.771L93.1198 182.744C93.3134 184.561 94.5908 186.333 96.6037 186.239C98.3301 186.162 100.289 184.686 100.088 182.744L97.4863 157.763C97.3004 155.953 96.023 154.174 94.0024 154.267C92.2759 154.345 90.3172 155.821 90.5185 157.763V157.771Z" fill="black"/>
<path d="M71.1095 182.798C71.0166 182.317 71.0012 181.773 70.8618 181.299C71.1018 182.13 70.8618 181.493 70.8618 181.229C70.8618 180.965 70.8076 180.724 70.7844 180.452C70.6992 179.489 70.6528 178.518 70.645 177.547C70.6373 176.576 70.645 175.613 70.7457 174.642C70.7921 174.137 70.8463 173.632 70.9005 173.135C70.9779 172.459 70.8153 173.632 70.9005 173.182C70.9547 172.894 70.9934 172.599 71.0399 172.312L65.2179 173.865L65.8218 174.642C65.9131 174.774 66.0113 174.901 66.116 175.023C65.9766 174.867 65.7444 174.533 66.0076 174.883C66.3947 175.396 66.7818 175.908 67.1534 176.436C67.9173 177.508 68.6579 178.601 69.3754 179.714C70.7855 181.906 72.0777 184.173 73.2463 186.503C73.7176 187.299 74.4818 187.877 75.374 188.112C76.2662 188.348 77.2149 188.222 78.0153 187.762C78.7951 187.277 79.3592 186.51 79.5912 185.619C79.8232 184.729 79.7053 183.783 79.2618 182.977C76.7407 178.003 73.6935 173.315 70.1728 168.995C68.6244 167.03 64.7534 168.063 64.3508 170.548C63.5325 175.243 63.5588 180.047 64.4283 184.732C64.6779 185.623 65.2672 186.379 66.0685 186.837C66.8698 187.295 67.8186 187.418 68.7095 187.179C69.589 186.913 70.3328 186.318 70.7868 185.517C71.2408 184.716 71.3702 183.77 71.1483 182.876L71.1095 182.798Z" fill="black"/>
<path d="M287.457 172.133C280.823 176.141 279.437 184.732 277.509 191.614L270.658 216.091L266.717 230.181C266.595 230.624 266.562 231.086 266.619 231.542C266.675 231.998 266.821 232.438 267.047 232.837C267.273 233.236 267.575 233.587 267.936 233.869C268.297 234.151 268.71 234.359 269.152 234.481C269.593 234.603 270.054 234.636 270.508 234.579C270.962 234.523 271.401 234.377 271.799 234.15C272.196 233.923 272.546 233.62 272.827 233.257C273.108 232.895 273.315 232.481 273.437 232.038L280.134 208.121L283.455 196.26C284.485 192.57 285.429 188.841 286.552 185.191C286.815 184.359 287.117 183.544 287.427 182.728C287.612 182.239 287.187 183.233 287.427 182.767C287.535 182.55 287.628 182.332 287.728 182.115C287.914 181.734 288.116 181.338 288.325 180.988C288.534 180.639 288.774 180.281 289.006 179.932C289.099 179.784 289.424 179.458 288.959 179.971C289.114 179.8 289.254 179.621 289.408 179.45C289.695 179.147 289.997 178.868 290.299 178.588C290.446 178.456 290.802 178.301 290.252 178.588C290.492 178.44 290.717 178.27 290.957 178.13C291.359 177.902 291.711 177.596 291.994 177.23C292.277 176.864 292.484 176.445 292.605 175.998C292.725 175.551 292.755 175.084 292.694 174.625C292.633 174.166 292.482 173.724 292.249 173.324C292.016 172.924 291.706 172.575 291.338 172.296C290.969 172.017 290.549 171.815 290.102 171.7C289.655 171.586 289.189 171.562 288.733 171.629C288.276 171.697 287.837 171.855 287.442 172.094L287.457 172.133Z" fill="black"/>
<path d="M260.415 226.74C259.047 228.223 257.605 229.636 256.095 230.974C255.367 231.626 254.616 232.263 253.85 232.877L253.215 233.389C253.501 233.164 253.331 233.296 253.145 233.436C252.704 233.77 252.27 234.089 251.829 234.407C248.549 236.757 245.049 238.781 241.378 240.45C239.713 241.227 239.179 243.759 240.123 245.227C240.607 246.01 241.371 246.576 242.258 246.81C243.145 247.044 244.088 246.928 244.892 246.486C252.615 242.953 259.564 237.921 265.339 231.681C265.954 231.018 266.289 230.142 266.273 229.236C266.257 228.33 265.892 227.466 265.253 226.826C264.615 226.185 263.754 225.819 262.851 225.803C261.949 225.787 261.075 226.123 260.415 226.74Z" fill="black"/>
<path d="M261.135 232.457C263.659 233.824 266.129 235.3 268.521 236.9C269.713 237.677 270.89 238.524 272.043 239.378L272.941 240.046L273.243 240.279C273.832 240.738 274.412 241.204 274.993 241.678C279.437 245.315 283.532 249.362 287.225 253.764C287.775 254.424 288.309 255.085 288.836 255.753L289.137 256.133C289.478 256.561 288.843 255.745 289.137 256.18L289.912 257.205C290.895 258.526 291.839 259.885 292.753 261.26C293.759 262.814 295.85 263.59 297.522 262.518C299.032 261.54 299.845 259.365 298.768 257.734C291.988 247.48 283.316 238.621 273.22 231.634C270.461 229.731 267.599 227.981 264.65 226.391C264.253 226.159 263.814 226.008 263.359 225.947C262.904 225.885 262.441 225.914 261.997 226.032C261.553 226.15 261.137 226.355 260.772 226.634C260.407 226.914 260.1 227.262 259.869 227.661C259.638 228.059 259.488 228.499 259.427 228.956C259.365 229.412 259.394 229.877 259.512 230.322C259.63 230.767 259.833 231.185 260.112 231.552C260.39 231.918 260.738 232.226 261.135 232.457Z" fill="black"/>
<path d="M324.549 182.394C326.015 184.761 327.38 187.184 328.644 189.665C329.259 190.851 329.842 192.049 330.394 193.261C330.688 193.89 330.975 194.527 331.254 195.164C331.393 195.483 331.532 195.801 331.664 196.12C331.795 196.438 331.757 196.337 331.664 196.12C331.734 196.283 331.803 196.438 331.865 196.601C333.954 201.701 335.629 206.961 336.874 212.331C337.129 213.22 337.721 213.973 338.523 214.429C339.324 214.885 340.272 215.007 341.163 214.77C342.043 214.506 342.788 213.911 343.241 213.109C343.694 212.307 343.82 211.36 343.594 210.467C340.984 199.296 336.589 188.622 330.58 178.86C330.114 178.058 329.35 177.476 328.455 177.24C327.561 177.004 326.61 177.134 325.811 177.602C325.012 178.069 324.431 178.836 324.196 179.733C323.961 180.631 324.091 181.585 324.557 182.386L324.549 182.394Z" fill="black"/>
<path d="M336.928 211.065C332.725 215.133 328.185 218.836 323.357 222.134C318.379 225.542 313.14 228.547 307.687 231.121C306.894 231.594 306.318 232.361 306.085 233.257C305.851 234.153 305.979 235.104 306.441 235.906C306.925 236.687 307.69 237.252 308.577 237.484C309.464 237.717 310.406 237.6 311.21 237.157C322.49 231.803 332.839 224.664 341.86 216.013C342.504 215.351 342.864 214.463 342.864 213.539C342.864 212.614 342.504 211.727 341.86 211.065C341.196 210.428 340.313 210.073 339.394 210.073C338.476 210.073 337.592 210.428 336.928 211.065Z" fill="black"/>
<path d="M328.637 209.931L342.766 225.948C346.946 230.694 352.482 235.766 359.326 234.011C360.211 233.757 360.962 233.165 361.418 232.362C361.874 231.559 361.998 230.609 361.764 229.715C361.503 228.831 360.91 228.082 360.111 227.626C359.311 227.17 358.367 227.042 357.475 227.269L356.895 227.408C357.29 227.362 357.359 227.354 357.104 227.408H356.105C355.377 227.408 356.678 227.579 355.912 227.408C355.633 227.338 355.354 227.284 355.083 227.199L354.541 227.004L354.696 227.074C354.394 226.919 354.077 226.771 353.775 226.6C353.241 226.295 352.724 225.961 352.226 225.598C351.584 225.14 352.497 225.863 351.948 225.373C351.677 225.132 351.39 224.899 351.119 224.651C350.608 224.185 350.121 223.703 349.648 223.214C348.611 222.142 347.651 221.015 346.668 219.905L333.561 204.96C332.903 204.312 332.019 203.95 331.099 203.95C330.178 203.95 329.294 204.312 328.637 204.96C328.004 205.627 327.651 206.513 327.651 207.434C327.651 208.355 328.004 209.24 328.637 209.908V209.931Z" fill="black"/>
<path d="M416.283 176.343C413.389 188.616 409.545 200.643 404.786 212.316C404.631 212.712 404.469 213.092 404.306 213.504C404.237 213.667 404.159 213.838 404.09 214.009C404.02 214.18 403.764 214.786 403.95 214.351C403.617 215.128 403.284 215.904 402.944 216.681C402.17 218.359 401.465 220.021 400.699 221.684C399.932 223.346 400.18 225.567 401.945 226.461C403.493 227.276 405.893 226.981 406.714 225.21C412.166 213.445 416.691 201.269 420.247 188.795C421.243 185.274 422.162 181.737 423.003 178.184C423.125 177.741 423.158 177.279 423.101 176.823C423.045 176.368 422.899 175.928 422.673 175.529C422.447 175.129 422.145 174.779 421.784 174.497C421.422 174.215 421.009 174.007 420.568 173.885C420.127 173.763 419.666 173.729 419.212 173.786C418.758 173.843 418.319 173.989 417.921 174.216C417.523 174.443 417.174 174.746 416.893 175.108C416.612 175.471 416.405 175.885 416.283 176.328V176.343Z" fill="black"/>
<path d="M403.122 214.591L402.27 215.275L401.844 215.609C401.535 215.858 401.705 215.749 401.906 215.562C401.351 216.03 400.769 216.466 400.164 216.867C398.957 217.753 397.733 218.6 396.479 219.423C394.025 221.039 391.478 222.53 388.877 223.897C388.083 224.37 387.508 225.137 387.274 226.033C387.041 226.929 387.169 227.88 387.63 228.682C388.108 229.468 388.871 230.038 389.758 230.273C390.646 230.507 391.589 230.388 392.391 229.941C397.938 226.998 403.181 223.515 408.046 219.54C409.47 218.382 409.331 215.78 408.046 214.591C407.38 213.961 406.499 213.609 405.584 213.609C404.668 213.609 403.787 213.961 403.122 214.591Z" fill="black"/>
<path d="M401.806 224.993L423.932 234.221C425.62 234.927 427.803 233.444 428.221 231.782C428.686 229.739 427.594 228.232 425.782 227.478L403.656 218.258C401.968 217.551 399.785 219.035 399.375 220.697C398.91 222.74 399.994 224.239 401.806 224.993Z" fill="black"/>
<path d="M438.68 188.368C439.336 189.144 439.978 189.921 440.608 190.698C440.753 190.874 440.892 191.053 441.026 191.234L441.104 191.335L442.009 192.562C443.202 194.209 444.327 195.902 445.385 197.642C446.415 199.328 447.382 201.06 448.28 202.816C448.722 203.67 449.14 204.54 449.542 205.41C449.759 205.868 449.968 206.334 450.177 206.8C450.293 207.057 450.402 207.321 450.518 207.577C450.766 208.144 450.208 206.8 450.618 207.834C451.315 209.519 452.941 210.941 454.908 210.28C456.518 209.752 458.089 207.787 457.338 205.977C453.972 197.781 449.34 190.169 443.612 183.42C442.956 182.771 442.071 182.407 441.15 182.407C440.229 182.407 439.344 182.771 438.688 183.42C438.055 184.087 437.702 184.973 437.702 185.894C437.702 186.815 438.055 187.7 438.688 188.368H438.68Z" fill="black"/>
<path d="M448.064 204.936C448.064 205.076 448.017 205.224 448.009 205.371C448.056 204.424 448.071 204.967 448.009 205.208C447.947 205.449 447.909 205.791 447.847 206.086C447.715 206.731 447.553 207.375 447.359 208.012C447.166 208.649 446.964 209.201 446.74 209.783C446.569 210.226 446.74 209.706 446.833 209.566C446.747 209.721 446.686 209.908 446.608 210.071C446.469 210.366 446.322 210.669 446.167 210.964C445.88 211.516 445.563 212.059 445.23 212.587C445.052 212.867 444.866 213.147 444.673 213.419L444.417 213.776C444.107 214.211 444.487 213.597 444.564 213.597C444.448 213.597 444.038 214.242 443.929 214.374C443.713 214.623 443.496 214.871 443.264 215.151C442.807 215.632 442.327 216.091 441.831 216.526C441.185 217.184 440.822 218.071 440.822 218.996C440.822 219.92 441.185 220.808 441.831 221.466C442.493 222.104 443.375 222.46 444.293 222.46C445.211 222.46 446.093 222.104 446.755 221.466C451.469 217.205 454.415 211.321 455.008 204.983C455.194 203.157 453.266 201.41 451.524 201.487C450.608 201.511 449.735 201.887 449.087 202.537C448.439 203.188 448.064 204.063 448.04 204.983L448.064 204.936Z" fill="black"/>
<path d="M450.278 207.671C451.519 213.93 454.62 219.666 459.173 224.123C459.834 224.74 460.707 225.076 461.61 225.06C462.512 225.044 463.373 224.677 464.012 224.037C464.65 223.396 465.016 222.532 465.032 221.627C465.048 220.721 464.713 219.845 464.097 219.182C463.609 218.701 463.129 218.211 462.68 217.699C462.44 217.427 462.2 217.147 461.976 216.868C461.886 216.731 461.782 216.603 461.666 216.487C461.821 216.596 462.046 216.992 461.775 216.619C460.936 215.484 460.176 214.292 459.498 213.054C459.173 212.448 458.871 211.834 458.593 211.205C458.536 211.054 458.471 210.906 458.399 210.762C458.5 210.949 458.639 211.345 458.477 210.925C458.314 210.506 458.213 210.242 458.097 209.9C457.626 208.568 457.258 207.202 456.998 205.814C456.75 204.923 456.161 204.166 455.359 203.709C454.556 203.252 453.607 203.132 452.717 203.375C451.839 203.641 451.096 204.235 450.642 205.034C450.189 205.834 450.058 206.777 450.278 207.671Z" fill="black"/>
<path d="M521.093 133.535C521.944 133.569 522.795 133.509 523.632 133.356C524.192 133.272 524.74 133.124 525.266 132.914L521.875 127.072H521.836L522.541 126.521C522.454 126.591 522.358 126.649 522.254 126.692L523.091 126.342C522.971 126.39 522.846 126.424 522.719 126.443L523.64 126.319C523.512 126.338 523.381 126.338 523.253 126.319L524.182 126.443C524.07 126.43 523.961 126.402 523.857 126.358L524.693 126.715C524.59 126.67 524.492 126.615 524.399 126.552L525.103 127.096C525.045 127.051 524.991 127.001 524.941 126.948L524.236 132.44L524.453 132.331L523.625 132.688C523.811 132.611 524.006 132.556 524.205 132.525L523.284 132.65C523.526 132.619 523.77 132.619 524.012 132.65L523.083 132.525C523.304 132.557 523.52 132.617 523.725 132.704L522.897 132.354C523.084 132.434 523.261 132.536 523.423 132.657L522.711 132.114L522.858 132.23L524.407 126.389C523.903 126.561 523.385 126.686 522.858 126.762L523.787 126.637C523.638 126.657 523.487 126.657 523.338 126.637L524.267 126.769H524.159L524.987 127.127C524.954 127.113 524.923 127.095 524.894 127.072L525.599 127.616C525.568 127.596 525.541 127.57 525.521 127.538L526.063 128.245L526.412 129.076L526.536 130.001V129.923L526.412 130.855V130.77L526.063 131.609V131.57L525.514 132.277C525.53 132.252 525.551 132.231 525.576 132.215L524.871 132.758L524.035 133.116C524.058 133.109 524.082 133.109 524.105 133.116H522.293L521.457 132.758L520.753 132.215L522.301 126.366L520.962 126.676C520.52 126.781 520.112 126.998 519.777 127.305C519.398 127.548 519.089 127.885 518.879 128.284C518.627 128.671 518.485 129.119 518.469 129.581C518.361 130.044 518.383 130.528 518.531 130.98C518.67 131.418 518.894 131.826 519.19 132.177C519.487 132.529 519.849 132.819 520.257 133.03L521.085 133.38C521.691 133.543 522.33 133.543 522.936 133.38L524.283 133.069C524.865 132.911 525.396 132.603 525.822 132.175C526.249 131.747 526.556 131.214 526.714 130.63C526.876 130.034 526.878 129.405 526.72 128.808C526.563 128.21 526.251 127.665 525.816 127.228C525.364 126.774 524.802 126.448 524.184 126.283C523.567 126.118 522.917 126.12 522.301 126.288C521.757 126.441 521.255 126.716 520.833 127.092C520.41 127.468 520.078 127.936 519.862 128.459C519.646 128.983 519.551 129.549 519.585 130.115C519.618 130.68 519.779 131.231 520.056 131.725C520.232 132.026 520.445 132.302 520.691 132.549C521.024 132.91 521.446 133.177 521.914 133.325C522.437 133.576 523.015 133.69 523.594 133.659C524.082 133.621 524.562 133.543 525.042 133.457C525.452 133.386 525.856 133.28 526.249 133.139C526.838 132.978 527.373 132.665 527.803 132.23C528.233 131.796 528.542 131.257 528.699 130.665C528.855 130.074 528.855 129.452 528.697 128.861C528.538 128.27 528.228 127.731 527.798 127.298C527.393 126.903 526.931 126.573 526.427 126.319C526.047 126.134 525.654 125.979 525.251 125.853C524.838 125.758 524.419 125.693 523.996 125.659C523.43 125.627 522.862 125.674 522.309 125.798C521.764 125.922 521.242 126.129 520.76 126.412C520.243 126.715 519.811 127.145 519.506 127.663C519.077 128.492 518.953 129.447 519.158 130.358C519.316 130.946 519.625 131.482 520.056 131.912C520.958 132.803 522.165 133.315 523.431 133.341C523.67 133.341 523.909 133.318 524.143 133.271C524.392 133.252 524.638 133.211 524.879 133.147C525.607 132.91 526.278 132.521 526.845 132.005L527.387 131.29C527.639 130.903 527.784 130.455 527.805 129.993C527.883 129.69 527.883 129.372 527.805 129.069C527.783 128.604 527.638 128.154 527.387 127.764C527.066 127.262 526.641 126.836 526.141 126.513C525.751 126.261 525.303 126.117 524.84 126.094C524.381 125.994 523.903 126.015 523.454 126.156C522.905 126.376 522.33 126.527 521.743 126.606L522.672 126.482C522.159 126.553 521.64 126.568 521.124 126.529C520.659 126.51 520.197 126.615 519.785 126.832C519.362 126.987 518.978 127.233 518.66 127.552C518.342 127.871 518.097 128.256 517.942 128.68C517.725 129.094 517.621 129.557 517.64 130.024C517.649 130.949 518.016 131.835 518.662 132.494L519.367 133.046C519.901 133.356 520.507 133.52 521.124 133.52L521.093 133.535Z" fill="black"/>
<path d="M543.816 133.807L546.208 133.722L547.137 133.597L547.965 133.24L548.67 132.696C549.003 132.39 549.252 132.002 549.39 131.57C549.549 131.305 549.632 131.001 549.63 130.692C549.715 130.387 549.715 130.065 549.63 129.76C549.633 129.448 549.55 129.142 549.39 128.875C549.252 128.445 549.003 128.059 548.67 127.756C548.323 127.453 547.953 127.177 547.563 126.933C547.151 126.715 546.724 126.528 546.285 126.373C546.124 126.318 545.958 126.273 545.79 126.241C545.315 126.15 544.833 126.092 544.35 126.07L547.362 131.337C547.398 131.267 547.44 131.199 547.485 131.135L546.943 131.842C547.018 131.751 547.101 131.668 547.191 131.593L546.487 132.137C546.603 132.053 546.728 131.98 546.858 131.92L546.022 132.277C546.171 132.217 546.327 132.175 546.487 132.153L545.558 132.277C545.702 132.261 545.847 132.261 545.991 132.277L545.062 132.153C545.206 132.172 545.347 132.211 545.48 132.269L544.644 131.912C544.753 131.961 544.857 132.021 544.954 132.09L544.242 131.547L543.351 128.144V128.191L543.7 127.352C543.668 127.421 543.629 127.486 543.583 127.546L544.133 126.839C544.074 126.907 544.01 126.97 543.94 127.026L544.644 126.474C544.584 126.52 544.519 126.56 544.451 126.591L545.287 126.241C545.204 126.272 545.118 126.295 545.031 126.311L545.952 126.187H545.736L546.657 126.319L548.74 131.453C548.737 131.433 548.737 131.412 548.74 131.391L548.198 132.098L548.267 132.028L547.563 132.572L547.687 132.502L546.851 132.852H547.021L546.092 132.976C546.151 132.968 546.211 132.968 546.27 132.976L545.349 132.852C545.407 132.86 545.464 132.876 545.519 132.898L544.683 132.549C544.728 132.564 544.77 132.588 544.807 132.619L544.102 132.075L544.172 132.145L543.63 131.438L543.684 131.523L545.767 126.389C545.376 126.503 544.978 126.586 544.574 126.638L545.503 126.513C544.837 126.591 544.164 126.591 543.498 126.513C543.033 126.488 542.57 126.59 542.159 126.808C541.731 126.953 541.346 127.201 541.036 127.531C540.704 127.838 540.456 128.226 540.316 128.657C540.1 129.074 539.996 129.539 540.014 130.009L540.138 130.933C540.298 131.521 540.607 132.056 541.036 132.487L541.741 133.03C542.274 133.343 542.88 133.51 543.498 133.512C544.044 133.566 544.594 133.566 545.14 133.512C545.977 133.456 546.807 133.318 547.617 133.1C548.202 132.943 548.736 132.635 549.165 132.207C549.499 131.901 549.747 131.512 549.885 131.081C550.102 130.664 550.206 130.198 550.187 129.729C550.185 129.109 550.019 128.501 549.707 127.966L549.653 127.88C549.482 127.621 549.293 127.375 549.088 127.142C548.835 126.902 548.557 126.688 548.26 126.505C548.251 126.502 548.242 126.5 548.233 126.5C548.223 126.5 548.214 126.502 548.205 126.505L547.377 126.148H547.292C546.937 126.06 546.574 126.01 546.208 126.001C545.848 126.002 545.489 126.046 545.14 126.133H545.054H545.008L544.172 126.482C543.864 126.65 543.583 126.862 543.336 127.111L543.274 127.173L542.732 127.88C542.728 127.901 542.728 127.922 542.732 127.942C542.415 128.476 542.249 129.085 542.252 129.706C542.234 130.172 542.338 130.636 542.554 131.05C542.692 131.481 542.94 131.87 543.274 132.176C543.703 132.606 544.237 132.916 544.822 133.077C545.18 133.148 545.542 133.192 545.906 133.209H545.999C546.278 133.209 546.688 133.131 546.967 133.077C547.033 133.07 547.098 133.054 547.16 133.03C547.439 132.929 547.764 132.79 548.035 132.657L548.136 132.603C548.412 132.419 548.671 132.211 548.91 131.982C548.963 131.942 549.012 131.898 549.057 131.85C549.243 131.624 549.46 131.345 549.63 131.073L549.676 131.003C549.697 130.971 549.716 130.937 549.731 130.902C549.87 130.622 549.994 130.296 550.11 130.001C550.273 129.393 550.273 128.753 550.11 128.144C549.95 127.557 549.64 127.022 549.212 126.591C548.908 126.313 548.576 126.068 548.221 125.861C547.905 125.703 547.579 125.565 547.245 125.449L547.075 125.402C546.719 125.331 546.36 125.279 545.999 125.247H545.627C545.264 125.276 544.902 125.325 544.543 125.395C544.419 125.419 544.297 125.455 544.18 125.503C543.787 125.631 543.411 125.803 543.057 126.016C542.774 126.21 542.503 126.42 542.244 126.645C542.192 126.685 542.142 126.729 542.097 126.777C541.868 127.042 541.653 127.32 541.454 127.608C541.418 127.661 541.384 127.716 541.354 127.772C541.048 128.31 540.887 128.919 540.887 129.539C540.887 130.159 541.048 130.768 541.354 131.306C541.663 131.829 542.102 132.264 542.629 132.566C543.155 132.868 543.751 133.028 544.358 133.03H544.737L543.808 132.898C544.075 132.936 544.335 133.009 544.582 133.116L543.754 132.766C543.985 132.866 544.204 132.993 544.404 133.147L543.7 132.603H543.746L546.208 126.638L543.816 126.723C543.35 126.704 542.888 126.808 542.476 127.026C542.054 127.181 541.67 127.427 541.352 127.746C541.034 128.066 540.789 128.451 540.634 128.875C540.417 129.288 540.313 129.752 540.332 130.218L540.456 131.151C540.616 131.738 540.925 132.273 541.354 132.704L542.058 133.256C542.592 133.566 543.198 133.73 543.816 133.729V133.807Z" fill="black"/>
<path d="M534.332 132.859C534.188 132.787 534.041 132.722 533.891 132.665C533.744 132.595 533.594 132.533 533.442 132.479C533.122 132.387 532.79 132.345 532.458 132.354L531.529 132.479L530.693 132.828C530.412 132.989 530.152 133.185 529.919 133.411C529.849 133.496 529.431 134.032 529.369 134.126C529.352 134.143 529.339 134.164 529.331 134.188C529.261 134.32 529.137 134.638 529.145 134.623C529.152 134.607 529.021 134.91 528.967 135.05C528.969 135.063 528.969 135.076 528.967 135.089L528.773 136.137C528.769 136.163 528.769 136.189 528.773 136.215C528.773 136.332 528.881 137.038 528.905 137.155C528.901 137.17 528.901 137.186 528.905 137.202C528.994 137.512 529.119 137.812 529.276 138.095C529.315 138.165 529.772 138.747 529.826 138.809C530.297 139.282 530.881 139.624 531.521 139.804H531.63L532.094 139.866L532.567 139.928H532.721C533.054 139.928 533.38 139.85 533.705 139.796H533.836L534.115 139.703C534.557 139.598 534.965 139.381 535.3 139.074C535.678 138.833 535.985 138.495 536.19 138.095C536.442 137.708 536.586 137.26 536.608 136.798C536.711 136.334 536.69 135.852 536.546 135.399L536.19 134.568C535.89 134.05 535.46 133.619 534.943 133.318L534.115 132.96C533.506 132.797 532.866 132.797 532.257 132.96C532.123 133.018 531.983 133.06 531.839 133.085L532.768 132.96H532.551L533.48 133.085C533.437 133.092 533.392 133.092 533.349 133.085L534.177 133.442L534.076 133.38L534.781 133.931L534.734 133.877L535.276 134.592C535.276 134.592 535.276 134.553 535.276 134.529L535.625 135.361C535.62 135.335 535.62 135.309 535.625 135.283L535.749 136.215C535.741 136.179 535.741 136.142 535.749 136.106L535.625 137.038C535.616 137 535.616 136.96 535.625 136.922L535.269 137.753L535.323 137.668L534.773 138.374L534.82 138.328L534.115 138.872H534.161L533.325 139.229H533.372L532.443 139.353L531.521 139.229H531.568L530.732 138.872C531.117 139.125 531.564 139.267 532.025 139.283C532.478 139.365 532.944 139.347 533.389 139.229C533.835 139.111 534.249 138.896 534.603 138.6C534.978 138.353 535.287 138.017 535.501 137.621L535.849 136.782C536.012 136.174 536.012 135.534 535.849 134.926L535.501 134.087C535.196 133.569 534.764 133.139 534.247 132.836L534.332 132.859Z" fill="black"/>
<path d="M514.497 136.347C513.976 136.907 513.604 137.591 513.418 138.334C513.231 139.077 513.235 139.855 513.429 140.596C513.862 141.885 514.744 142.975 515.914 143.664C517.671 144.775 520.04 145.132 522.03 145.637C526.265 146.709 530.716 147.525 535.098 147.144C539.48 146.764 543.483 145.459 547.601 144.099C550.986 143.048 554.271 141.699 557.418 140.068C561.001 138.21 564.02 135.42 566.159 131.989C566.39 131.593 566.541 131.155 566.604 130.7C566.666 130.245 566.639 129.782 566.523 129.338C566.408 128.894 566.206 128.476 565.929 128.11C565.653 127.744 565.307 127.437 564.912 127.204C564.517 126.972 564.081 126.821 563.627 126.758C563.174 126.695 562.713 126.723 562.27 126.839C561.827 126.955 561.411 127.157 561.046 127.435C560.682 127.712 560.375 128.059 560.143 128.455C559.973 128.742 559.795 129.022 559.609 129.302C559.423 129.581 558.967 130.117 559.408 129.605C558.951 130.141 558.502 130.661 557.999 131.158C557.761 131.381 557.521 131.598 557.279 131.811C557.186 131.888 556.435 132.487 556.76 132.246C557.085 132.005 556.327 132.549 556.203 132.634C555.893 132.844 555.576 133.054 555.258 133.248C554.033 134.003 552.758 134.672 551.441 135.252L551.047 135.43C550.567 135.648 551.558 135.221 551.047 135.43L550.102 135.811C549.421 136.075 548.74 136.332 548.051 136.588C544.974 137.738 541.84 138.723 538.66 139.54C537.831 139.742 536.995 139.912 536.143 140.052C536.074 140.052 535.369 140.169 535.702 140.122C536.035 140.076 535.439 140.122 535.439 140.122C534.943 140.169 534.456 140.208 533.96 140.231C533.101 140.231 532.234 140.231 531.367 140.231C530.879 140.231 530.383 140.161 529.888 140.114L529.338 140.052C528.665 139.975 530.112 140.184 528.974 139.998C527.008 139.687 525.103 139.221 523.137 138.74C522.107 138.475 521.085 138.188 520.04 137.901L519.506 137.753C518.887 137.598 519.885 137.932 519.506 137.753C519.127 137.574 519.653 137.862 519.684 137.908C519.39 137.582 519.429 137.683 519.785 138.211C520.026 138.501 520.167 138.86 520.187 139.237L519.715 141L519.39 141.342C520.513 139.912 520.892 137.784 519.39 136.401C518.136 135.244 515.666 134.848 514.458 136.401L514.497 136.347Z" fill="black"/>
</g>
<defs>
<clipPath id="clip0">
<rect width="653" height="263" fill="white"/>
</clipPath>
</defs>
</svg>
