<svg id="Layer_1" data-name="Layer 1" xmlns="http://www.w3.org/2000/svg" viewBox="0 0 202.35 363.92"><defs><style>.cls-1{fill:none;stroke:#010101;stroke-linecap:round;stroke-linejoin:round;stroke-width:3px;}.cls-2{fill:#010101;}</style></defs><title>clock-down</title><path class="cls-1" d="M184.07,226.85c16.65,0,32.86,2.75,49.5,2.75,16.48,0,32.78-4.12,49.57-4.12,33.53,0,66.72,1.37,100.28,1.37" transform="translate(-182.57 -221.23)"/><path class="cls-1" d="M184.07,225.48c.46,22.57,1.38,45.25,1.38,68v32.39c0,8.7,3.37,14,11.07,18.48,29.47,17.19,54.9,43.38,87.91,54.38" transform="translate(-182.57 -221.23)"/><path class="cls-1" d="M285.81,402.83c4.43-7.26,8.1-8.91,14.82-13.14,5.44-3.43,11.05-8,16.8-10.85,13.85-6.92,23.63-21.41,36.43-30.17,7.32-5,11.55-9.74,16.88-16.26,3.38-4.13,8.28-16.69,3.82-21.7-3.88-4.36-2.14-12.77-2.14-18.56V267.33c0-14.95-1.37-29.56-1.37-44.6" transform="translate(-182.57 -221.23)"/><path class="cls-1" d="M281.69,405.58c-2.34,5.63-6.9,15.71-12.38,18.94-9.06,5.33-14.3,14.41-22,21A148.28,148.28,0,0,1,215,466.83c-5.48,2.62-14.46,7.17-18.26,11.92-3.56,4.45,1.89,15-.61,20.31-3.53,7.45-3.82,18.2-3.82,26.81v18c0,4,.47,19.63-2.75,21.24" transform="translate(-182.57 -221.23)"/><path class="cls-1" d="M283.06,409.7C289,416,294,422,301,427s16,4,23,10c3,4,7,7,11,11,13,10,24,20,36,31a7.64,7.64,0,0,1,2,5,242.81,242.81,0,0,1-4,89c-1,3,2,5,.63,7.89" transform="translate(-182.57 -221.23)"/><path class="cls-1" d="M188.2,582.93H340c6.39,0,25.94,3.27,29.63-4.13" transform="translate(-182.57 -221.23)"/><path class="cls-1" d="M357.87,509.08a3.37,3.37,0,0,1,0-.95,22.41,22.41,0,0,1-1.47-2.5l-.48-.45c-.07-.05-.56-.46-.19-.18a3.1,3.1,0,0,1-1.22-3.73,1.91,1.91,0,0,1-.1-.62c-2.76-3.33-6-6.43-8-9-5.46-7-11.3-12.24-17.26-18.56-11.22-11.87-25.47-19-37.81-28.87-2.2-1.75-7.18-5.77-8.63-8.25-1.66-2.82-6.3,4.1-8.25,5.5-2.53,1.83-2.49,4.21-4.43,6.27-1.57,1.66-4.31,2.18-6.19,3.43-4.51,3-8.89,5.68-13.14,8.86-8.09,6.07-14.19,15-21.23,22a23,23,0,0,1-5.5,4.13c-3.33,1.85-3.72,4.2-6.19,7-3,3.36-3.39,4.82-5.19,8.86-2.79,6.27-.3,19.35-.3,26.12,0,4.28.26,8.54.55,12.82.94,0,1.87.05,2.72.06,3.38,0,3.8,4.6,1.27,5.74a2.85,2.85,0,0,1,0,1c1.7,3.82,2.91,7.75,2.32,12a2.2,2.2,0,0,1-.12.41v0s0,.08,0,.11a2.85,2.85,0,0,1,.29,0l.8.11a3,3,0,0,1,1.79,1.38.67.67,0,0,1,.06.12,3.73,3.73,0,0,1,.48,0,2.7,2.7,0,0,1,2.65,1.74c3.23,0,6.51-.22,9.68-.4a2.64,2.64,0,0,1,2.74-1.93c8.61.21,17.21.56,25.83.59a2.91,2.91,0,0,1,1.52.4,15.77,15.77,0,0,1,4.15-.6,2.78,2.78,0,0,1,1.66.52,2.53,2.53,0,0,1,.33-.42,3,3,0,0,1,2.12-.88,2.17,2.17,0,0,1,1.15.26,2.05,2.05,0,0,1,.59.3,2.75,2.75,0,0,1,2-.76h1.95l.17,0c10.77.05,21.54.35,32.31.37a2.82,2.82,0,0,1,2.13.9c5.8.26,11.5.51,16.94.51,4.07,0,8.46-.28,12.87-.39a2.75,2.75,0,0,1,2.09-2.47,41.52,41.52,0,0,0,9.22-4.13,2.76,2.76,0,0,1-.75-2.78c1-4.1,1.13-8.3,1.46-12.51a3,3,0,0,1,2.6-2.81c0-.37-.05-.74-.06-1.1a3.59,3.59,0,0,1,.08-.75C355.4,526.79,359.17,517.92,357.87,509.08Z" transform="translate(-182.57 -221.23)"/><path class="cls-2" d="M353.73,529.11a36.16,36.16,0,0,1-.74-12.78h-5a34.16,34.16,0,0,1-.47,7.28,2.5,2.5,0,0,0,4.82,1.33l1.68-4.22H349.2a25.43,25.43,0,0,1,1.71,7.65,2.51,2.51,0,0,0,4.91.66l1.75-5.5-4.91-.67a104.44,104.44,0,0,1-.14,14.48,2.5,2.5,0,0,0,5,0,104.44,104.44,0,0,0,.14-14.48,2.51,2.51,0,0,0-4.91-.66L351,527.7l4.92.67a29.69,29.69,0,0,0-1.89-9,2.52,2.52,0,0,0-4.82,0l-1.68,4.22,4.82,1.33a40.12,40.12,0,0,0,.65-8.61,2.5,2.5,0,0,0-5,0,40.14,40.14,0,0,0,.92,14.11c.75,3.13,5.58,1.81,4.82-1.33Z" transform="translate(-182.57 -221.23)"/><path class="cls-2" d="M358.69,524.51a14.44,14.44,0,0,1-.64-6.29c.29-2.17,1.18-4.18,1.39-6.36.44-4.42-2.42-8-5.23-11-6.42-7-12.87-14-19.6-20.69-3.77-3.76-7.65-7.41-11.67-10.9l-3,3.92,5.12,3.33c2.7,1.76,5.21-2.56,2.52-4.31l-5.12-3.33c-2.35-1.53-5.19,2.05-3,3.92,6.88,6,13.3,12.42,19.56,19q4.91,5.18,9.72,10.42c2.25,2.44,6.06,5.52,5.8,9.22a17.93,17.93,0,0,1-.76,3.3,22.55,22.55,0,0,0-.69,3.72,18.62,18.62,0,0,0,.84,7.41c1,3.06,5.79,1.75,4.82-1.33Z" transform="translate(-182.57 -221.23)"/><path class="cls-2" d="M353,518.35a70.71,70.71,0,0,0,1.56-10.12l-4.66,1.26a6.55,6.55,0,0,1,.57,3.52h4.82a36.44,36.44,0,0,0-8.78-15.26c-4.59-4.63-9.5-9-14.25-13.43-2.35-2.2-5.89,1.33-3.54,3.53,4.54,4.26,9.16,8.44,13.6,12.79a31.57,31.57,0,0,1,8.15,13.7,2.56,2.56,0,0,0,2.41,1.83,2.49,2.49,0,0,0,2.41-1.83,12.76,12.76,0,0,0-1.07-7.38,2.51,2.51,0,0,0-2.82-1.14,2.58,2.58,0,0,0-1.84,2.41,59.54,59.54,0,0,1-1.39,8.79c-.72,3.13,4.1,4.46,4.83,1.33Z" transform="translate(-182.57 -221.23)"/><path class="cls-2" d="M335.39,496.92l-.79-.33,6,2.52a22.32,22.32,0,0,1-4.84-2.65l5.06,3.91a14,14,0,0,1-2-2.1l3.91,5.06c-2-2.63-3.69-5.52-5.46-8.31s-3.55-5.69-5.2-8.61-3.07-5.87-4.5-8.86a16.35,16.35,0,0,0-1-1.89,63,63,0,0,0-4.4-5.76c-.27-.31-.52-.62-.81-.91-1-1.07-2.22-2-3.19-3.12l3.91,5.06c-1.91-2.49-3.28-4.84-5.5-7.36-.21-.23-.41-.43-.64-.64l-2.53-2c-.92-.76-1.87-1.48-2.84-2.17-.22-.13-.44-.23-.67-.35l-6-2.52a6.18,6.18,0,0,0-.73-.23c-.25-.06-.51-.09-.76-.13-2.22-.37-4.8-.78-7-.93-.52,0-1.05-.05-1.57-.06h-4.28c-1.32,0-2.64,0-4,0a19.78,19.78,0,0,0-2,.15,47.53,47.53,0,0,0-8.39,1.29c-6.48,2-11.4,5.64-16.34,10.13-4.21,3.83-8.49,7.59-12.61,11.51a54.16,54.16,0,0,0-6.13,7.43,15.67,15.67,0,0,0-.92,1.33c-.13.23-.26.47-.38.71a59.56,59.56,0,0,0-2.82,6.64,11.65,11.65,0,0,0-.4,1.43c-.44,2.15-.73,4.82-.95,7,0,.24-.06.48-.07.73-.21,5.66,1.47,10.15,3.8,15.1.13.27.25.54.4.8a44.83,44.83,0,0,0,4.22,5.5c.15.17.28.34.43.49a44.6,44.6,0,0,0,5.54,4.33,9.22,9.22,0,0,0,1.35.8,53.05,53.05,0,0,0,7.19,3c2.17.65,4.45.8,6.57,1.67l-6-2.52a9.67,9.67,0,0,1,1.59.92l-5.06-3.91a46.23,46.23,0,0,1,4,3.93,86.14,86.14,0,0,0,9.19,7.59,28.47,28.47,0,0,0,4.88,3A77.3,77.3,0,0,0,283.5,548c5.9,1.8,12.14,2.45,18.23,3.25,4.2.55,8.43.89,12.66,1.09,2.45.11,4.9.18,7.35.23a64.09,64.09,0,0,1,6.79.21l-6.65-.89a7.91,7.91,0,0,1,1.52.4l-6-2.52a5.64,5.64,0,0,1,1,.54l-5.06-3.91a4.85,4.85,0,0,1,.67.69l-3.91-5.06a4.92,4.92,0,0,1,.46.84l-2.52-6a3.25,3.25,0,0,1,.17.61l-.9-6.65a2.07,2.07,0,0,1,0,.61l.9-6.65a2.4,2.4,0,0,1-.13.59l2.52-6a1.83,1.83,0,0,1-.29.53l3.91-5.06a2.18,2.18,0,0,1-.48.48l5.06-3.91a2.52,2.52,0,0,1-.6.33l6-2.52a7.74,7.74,0,0,1-1,.28l6.64-.9a68,68,0,0,1-8.33.23c-3,0-5.91,0-8.86,0q-8.87-.12-17.71-.62c-5.91-.33-11.79-.91-17.7-1.32a77.12,77.12,0,0,0-23.2,2c-6,1.44-11.75,3.61-17.84,4.47l6.64-.9a20.62,20.62,0,0,1-5.14.26l6.64.9-.33-.1,6,2.52-.29-.18,5.06,3.9-.19-.22,3.91,5.06-.14-.26,2.52,6a6.29,6.29,0,0,1-.3-1.11l.89,6.64a8.77,8.77,0,0,1,0-2.11l-.89,6.65a32.23,32.23,0,0,1,.94-3.63c.17-.56.33-1.13.45-1.71a66.1,66.1,0,0,0,1.13-8.26c.22-2.6-.06-5.21.28-7.81l-.89,6.65a21.27,21.27,0,0,1,1.37-4.87l-2.52,6a27.53,27.53,0,0,1,3.38-5.76l-3.91,5.06a41.24,41.24,0,0,1,7.36-7.22l-5.06,3.91c2.9-2.23,6-4.22,9-6.23,4.68-3.09,9.12-6.45,13.51-10a93.4,93.4,0,0,0,15-15.12,24.18,24.18,0,0,0,5.17-27.31,18.78,18.78,0,0,0-5.17-8c-4.77-4.38-11-7.62-17.68-7.33l-6.65.9a25,25,0,0,0-11,6.43,94.08,94.08,0,0,1-16.05,15.92l5.06-3.91c-3.64,2.82-7.53,5.27-11.35,7.83-3.51,2.36-6.83,4.93-10.16,7.55a48.62,48.62,0,0,0-4.76,4.2,70.19,70.19,0,0,0-7.43,9.36,52.64,52.64,0,0,0-5.12,10.81c-1.47,3.79-1.8,7.93-2.21,11.93-.26,2.49,0,5-.24,7.5l.9-6.65c-.27,1.94-1,3.74-1.43,5.64-1.25,5.71-1.75,11.69.11,17.36a29.38,29.38,0,0,0,6.57,11.3,22.8,22.8,0,0,0,5.54,4.31c4.21,2.43,8.23,3.15,12.95,3.51a12.46,12.46,0,0,0,1.37,0,82.67,82.67,0,0,0,11.74-1.4c7.39-1.24,14.36-4.25,21.81-5.26l-6.65.89c7.26-.9,14.6.18,21.85.72s14.58.88,21.88,1q5.41.1,10.83.08c5.32,0,11.17.24,16.31-1.19a29.85,29.85,0,0,0,3.65-1.46A34.45,34.45,0,0,0,344,554.7a27.2,27.2,0,0,0,13.29-23.5l0-.3-.89-6.65a28.54,28.54,0,0,0-2.81-6.87,31.29,31.29,0,0,0-4.67-6.09c-3.17-3.35-5.46-4.32-9.25-5.92-4.56-1.92-5.31-1.92-11.14-2.55a23.76,23.76,0,0,0-2.39-.14,211.73,211.73,0,0,1-24.41-1.39l6.64.89a62,62,0,0,1-15.13-3.62l6,2.52a30,30,0,0,1-6.47-3.79l5.06,3.91a50.32,50.32,0,0,1-4.58-4.18,47.4,47.4,0,0,0-8.94-7.56,31.87,31.87,0,0,0-10-3.94,29.82,29.82,0,0,1-4.56-1.14l6,2.52a7.76,7.76,0,0,1-1.64-.92l5.05,3.91a7.74,7.74,0,0,1-.9-.91l3.91,5.06a6.19,6.19,0,0,1-.71-1.25l2.52,6a6.5,6.5,0,0,1-.35-1.38l.89,6.64a9.21,9.21,0,0,1,0-1.82l-.9,6.64a9.41,9.41,0,0,1,.61-2.13l-2.52,6a11.94,11.94,0,0,1,1.45-2.37l-3.91,5.06c2.36-2.93,5.44-5.32,8.21-7.84,3-2.7,5.82-5.57,9-8.07l-5.06,3.91a11.77,11.77,0,0,1,2.56-1.52l-6,2.52a11.51,11.51,0,0,1,2.17-.55l-6.65.89a48.12,48.12,0,0,1,6.24-.15,57.16,57.16,0,0,1,6,.11l-6.65-.9a7.55,7.55,0,0,1,1.49.37l-6-2.52a5.36,5.36,0,0,1,1,.56l-5.06-3.91a7,7,0,0,1,.75.79L277.34,494c2,2.75,3.8,5.69,6.2,8.11,1,1.06,2.23,2,3.18,3.14l-3.91-5.06a26.47,26.47,0,0,1,2.46,4.61q1.2,2.54,2.54,5c1.82,3.36,3.8,6.63,5.84,9.86,2.47,3.92,5,7.77,7.79,11.44a30.7,30.7,0,0,0,3.51,4.22,49.89,49.89,0,0,0,6.76,5.16c3.17,2,7,3.26,10.39,4.65a19,19,0,0,0,10,.45,18.58,18.58,0,0,0,9.3-3,28,28,0,0,0,11.49-14.94l.89-6.64a24.85,24.85,0,0,0-3.41-12.62l-3.91-5.06a25,25,0,0,0-11-6.43Z" transform="translate(-182.57 -221.23)"/><path class="cls-2" d="M300.41,559.92a174.72,174.72,0,0,0,28-1.72c2.36-.29,4.73-.61,7.09-.92,1.45-.2,2.95-.3,4.39-.6a11.74,11.74,0,0,0,2.45-.91,14.43,14.43,0,0,0,8.12-9.16,36.3,36.3,0,0,0,1.16-6.12,60.1,60.1,0,0,0,.93-9.55A33.39,33.39,0,0,0,351,520.86a39.51,39.51,0,0,1-2.19-7.27l.45,3.32c-.61-5.11-.74-10.27-2.23-15.24a49.53,49.53,0,0,0-6-13,48.3,48.3,0,0,0-9.34-10.77c-3.1-2.55-6.08-4.93-10.07-5.91a16.27,16.27,0,0,0-8.34.15,15.57,15.57,0,0,0-8.74,6.78,12.51,12.51,0,0,0,14.12,18.37,13.78,13.78,0,0,0,7.47-5.75l.19-.28-2,2.53a2.34,2.34,0,0,1,.49-.45l-2.53,2A2.55,2.55,0,0,1,323,495l-3,1.26a3.55,3.55,0,0,1,.66-.17l-3.32.45a5,5,0,0,1,1,0l-3.32-.45a8.49,8.49,0,0,1,1.21.38l-3-1.26a15.63,15.63,0,0,1,2.43,1.59l-2.53-1.95a38.17,38.17,0,0,1,6.61,6.59l-2-2.53a39.38,39.38,0,0,1,5.09,8.74l-1.26-3a38.22,38.22,0,0,1,2.54,9.38l-.45-3.32c.49,3.92.44,7.93,1.43,11.79.77,3,2.2,5.71,2.64,8.81l-.44-3.32a33.1,33.1,0,0,1-.15,8.26l.45-3.32a41.07,41.07,0,0,1-1.29,7.05l1.26-3a2.45,2.45,0,0,1-.36.63l2-2.53-.26.25,2.53-2-.28.18,3-1.26a5.21,5.21,0,0,1-1.29.33l3.32-.45c-11.87,1.59-23.8,3.16-35.81,2.74a12.51,12.51,0,0,0-12.5,12.5,12.61,12.61,0,0,0,3.66,8.84,13.32,13.32,0,0,0,8.84,3.66Z" transform="translate(-182.57 -221.23)"/><path class="cls-2" d="M319.16,464.39c-1.35-.56.91.41-.42-.18l-1.2-.54q-1-.46-2-1-2.26-1.12-4.43-2.43c-1.39-.82-2.74-1.7-4.07-2.62-.66-.46-1.31-.93-2-1.41-1.16-.87.76.61-.38-.29l-1-.83L297.64,463l2.61,1.59a5.06,5.06,0,0,0,6.84-1.8,5.11,5.11,0,0,0-1.79-6.84q-7.17-4.8-14.69-9.05l-2.53,9.32,1.11,0c-.07.11-1.15-.16-.06.09.5.11-.83-.56,0,.05-.65-.49-.26-.22.11.18l6.06-7.85c-.55-.38-1.08-.76-1.61-1.15-.31-.22-.78-.58-.22-.14-.23-.18-.46-.36-.68-.55q-1.63-1.31-3.15-2.73a57.54,57.54,0,0,1-5.52-5.95c-1.24-1.53-3.8-1.73-5.46-1a5,5,0,0,0-3.08,4.57c0,.25,0,.51,0,.77,0,1.13.21-.58,0,0-.09.23-.12.5-.2.74l-.12.36q-.19.53.12-.3a4.77,4.77,0,0,1-.79,1.31l.3-.41a3.88,3.88,0,0,1-.39.42c-.23.23-.47.44-.71.65l8.35,2.2c-.13-.41-.16-.39-.08.06a2,2,0,0,1-.08,1c-.09.28-1.1,1.45-.47.87l-7.07-7.08a54.88,54.88,0,0,1-9,9l-1.13.89c-.6.47,1-.72,0,0l-.58.44c-.87.65-1.75,1.29-2.63,1.92-1.73,1.24-3.48,2.45-5.22,3.66-7.44,5.16-14.76,10.47-20.21,17.8-1.45,2-2.6,4.09-3.88,6.16-.33.53-.68,1-1,1.55-.17.25-.34.76.12-.14a3.42,3.42,0,0,1-.58.68c-.2.22-.41.44-.62.64s-.93.7-.3.29-.31.17-.37.21c-.31.18-.63.33-1,.48l5,8.63a15.85,15.85,0,0,0,6-7.68c.71-1.84-.36-4.15-1.79-5.26a5,5,0,0,0-5.56-.39,49.3,49.3,0,0,0-17.11,19.83l9.13,3.85,1.5-4.53a5,5,0,0,0-9.14-3.86,40,40,0,0,0-4.7,16.1,37.78,37.78,0,0,0,.38,8.23c.46,3.27,2.2,6.51,5.65,7.34a5,5,0,1,0,2.65-9.64c.7.17,1.77,1,1.8,1.8a9.43,9.43,0,0,0-.27-1c-.05-.25-.09-.5-.13-.76.08.62.09.63,0,0,0-.43-.09-.86-.12-1.29a37,37,0,0,1,.15-6.05c.12-1.2-.16.7.06-.38.11-.57.2-1.13.33-1.7a29.94,29.94,0,0,1,.78-2.92c.13-.41.27-.82.41-1.23.07-.19.76-1.87.3-.81.4-.93.85-1.83,1.33-2.72l-9.14-3.85-1.5,4.53A5,5,0,0,0,217,508c2.1.89,5.19.22,6.24-2a43.77,43.77,0,0,1,2.87-5.25c.5-.79,1-1.56,1.57-2.31.26-.34.73-.93.19-.26.33-.41.67-.83,1-1.23a44.66,44.66,0,0,1,3.88-4c.69-.63,1.41-1.22,2.13-1.82.44-.34.42-.33-.07.05l.64-.48c.43-.31.87-.61,1.31-.91l-7.34-5.65c.44-1.14,0-.07-.13.19s-.92,1.26-.47.75-.39.38-.5.48c-.92.88.49-.27-.32.29-2.16,1.47-3.33,4.46-1.8,6.84s4.28,2.93,6.84,1.79c4.73-2.1,7-7,9.58-11.1.54-.86,1.13-1.67,1.72-2.49.41-.56-.57.7-.13.17l.45-.55c.37-.46.76-.9,1.15-1.34a50.41,50.41,0,0,1,4.54-4.47c.76-.67,1.54-1.31,2.33-1.95.37-.3.73-.62,1.12-.89-1,.67-.25.2,0,0s.47-.37.71-.55c1.75-1.3,3.52-2.55,5.31-3.79,3.78-2.64,7.57-5.25,11.21-8.08a58.34,58.34,0,0,0,10.42-10.05,5.5,5.5,0,0,0,1.47-3.54,5,5,0,0,0-8.54-3.54,7.38,7.38,0,0,0-1.94,7.77,5,5,0,0,0,8.36,2.21,13.84,13.84,0,0,0,4.74-10.61L277,445.18a62.37,62.37,0,0,0,13.2,12.08c2,1.42,5,.55,6.45-1.29a5,5,0,0,0-.39-6.56,10.11,10.11,0,0,0-8.2-3.21c-2.13.23-4.3,1.38-4.82,3.67a5.13,5.13,0,0,0,2.3,5.65q7.51,4.23,14.69,9.05l5.05-8.64-2.61-1.58a5,5,0,0,0-6.45,1.28c-1.4,1.81-1.55,5,.39,6.57A77.94,77.94,0,0,0,316.5,474c2.43,1,5.61-1.08,6.15-3.49.67-2.91-.89-5.08-3.49-6.15Z" transform="translate(-182.57 -221.23)"/><path class="cls-2" d="M347.16,552.58a162.86,162.86,0,0,1-25.75.8c-2.11-.12-4.23-.28-6.34-.49-1.06-.1-2.11-.22-3.17-.35,0,0-1.61-.22-.62-.08l-1.71-.24c-3.87-.57-7.87-.16-11.77-.62-2.61-.3-5.11,2.52-5,5,.13,3,2.2,4.68,5,5,1.79.21,3.59.31,5.39.36l2.9,0c.39,0,.79,0,1.17,0,1-.07-.75-.16.39,0,4.59.49,9.14,1.16,13.76,1.41a162.86,162.86,0,0,0,25.75-.8c2.6-.28,5.13-2.1,5-5-.11-2.47-2.21-5.3-5-5Z" transform="translate(-182.57 -221.23)"/><path class="cls-2" d="M342.22,545.05a10.59,10.59,0,0,1,.49,2.09l-.18-1.33c.24,1.94.09,3.89.21,5.84a14.06,14.06,0,0,0,2.31,7.56,5.45,5.45,0,0,0,3,2.3,5.08,5.08,0,0,0,3.85-.51,5,5,0,0,0,2.3-3,4.91,4.91,0,0,0-.5-3.86,7.73,7.73,0,0,1-.9-1.55l.5,1.2a10.11,10.11,0,0,1-.63-2.43l.18,1.33c-.43-3.43.18-7-1-10.32a5.31,5.31,0,0,0-2.3-3,5,5,0,0,0-6.84,1.79,5,5,0,0,0-.51,3.85Z" transform="translate(-182.57 -221.23)"/><path class="cls-2" d="M299.88,551.06q-30.25-.62-60.52,0a5,5,0,0,0,0,10q30.25-.6,60.52,0a5,5,0,0,0,0-10Z" transform="translate(-182.57 -221.23)"/><path class="cls-2" d="M214.2,549.06a74.94,74.94,0,0,0,8,13.56l6.84-6.84-.34-.25,1,.78a10.53,10.53,0,0,1-1.77-1.76l.78,1a11.28,11.28,0,0,1-1.27-2.14l.5,1.19a11.61,11.61,0,0,1-.42-1.17,5.22,5.22,0,0,0-2.3-3,5,5,0,0,0-7.34,5.64,14.29,14.29,0,0,0,2,4.27,17.67,17.67,0,0,0,4.08,4.06l1.2.5a3.75,3.75,0,0,0,2,.09,4.72,4.72,0,0,0,2.87-1.38,5.9,5.9,0,0,0,1.29-2.2,4.94,4.94,0,0,0-.51-3.85A75,75,0,0,1,222.84,544a5,5,0,0,0-9.14,1.2,5.73,5.73,0,0,0,.5,3.85Z" transform="translate(-182.57 -221.23)"/><path class="cls-2" d="M283.52,551.19c-7.48.9-15,1.08-22.5,2.13-1.78.26-3.55.55-5.33.81l-1.22.18a4.07,4.07,0,0,1-.61.08c-.89.11-1.79.22-2.68.31-1.78.17-3.57.28-5.37.28-.89,0-1.79,0-2.68-.08-.5,0-1-.07-1.47-.12-1.09-.09.55.11-.63-.08l-1.33,9.82,35.24-2v-10c-12.09.72-24.35.55-36.19,3.46a5,5,0,0,0,2.66,9.64c1.4-.34,2.81-.65,4.23-.91l2-.35,1.13-.17c.1,0,1-.14.48-.07s.59-.07.71-.08l1.15-.13,2.07-.21c1.47-.13,2.94-.24,4.4-.34,5.77-.37,11.55-.5,17.32-.84,2.6-.16,5.12-2.19,5-5-.12-2.58-2.21-5.16-5-5l-35.24,2a5,5,0,0,0-4.91,4.34c-.3,2.22,1.12,5.11,3.58,5.49,8.07,1.24,15.86,0,23.86-1.17l1.21-.18a3.09,3.09,0,0,1,.61-.08l2.67-.29c1.86-.18,3.73-.33,5.6-.47,3.74-.27,7.48-.52,11.2-1,2.59-.3,5.13-2.07,5-5-.11-2.44-2.21-5.33-5-5Z" transform="translate(-182.57 -221.23)"/><path class="cls-2" d="M211.9,548.31a19,19,0,0,0,2.68,6.45c.26.46.53.93.78,1.4.12.23.25.47.36.7a3.4,3.4,0,0,0,.34.72c-.27-.3-.12-.28,0,0a3.39,3.39,0,0,1,.15.41q.13.38.24.75c.06.26.11.52.17.78s0,0,0-.14a2.47,2.47,0,0,0,0,.54l4.66-1.26a3.21,3.21,0,0,1-.19-.31c-.11-.25-.1-.21,0,.11a1.84,1.84,0,0,1-.21-.7,3.62,3.62,0,0,1-.14-.73c0,.71,0-.14,0-.28a31.48,31.48,0,0,0-.37-3.35,21.15,21.15,0,0,0-2.67-6.72,2.5,2.5,0,1,0-4.32,2.52q.45.75.84,1.53c.13.26.25.52.37.79-.24-.52.12.31.15.41a18.82,18.82,0,0,1,.87,3.15c0,.19,0,.12,0-.22,0,.13,0,.25,0,.37l.06.76c0,.5.07,1,.13,1.52a8.78,8.78,0,0,0,1.12,3.67,2.5,2.5,0,0,0,4.66-1.26,16.56,16.56,0,0,0-2.47-7.19c-.54-1-1.1-1.9-1.58-2.89-.06-.13-.12-.27-.19-.4-.2-.42.12.32,0,0s-.19-.49-.27-.74a9.33,9.33,0,0,1-.4-1.72,2.52,2.52,0,0,0-3.08-1.75,2.58,2.58,0,0,0-1.75,3.08Z" transform="translate(-182.57 -221.23)"/><path class="cls-2" d="M350.19,549l.06,0-.51-.39a3,3,0,0,1,.5.5l-.39-.5a2.48,2.48,0,0,1,.37.63l-.25-.6a2.91,2.91,0,0,1,.16.5l.25.6a1.9,1.9,0,0,0,.65.7,1.27,1.27,0,0,0,.55.32,1.78,1.78,0,0,0,1,.21l.67-.08.59-.26a1.8,1.8,0,0,0,.7-.64,1.85,1.85,0,0,0,.45-.85,5.72,5.72,0,0,0,.3-1.48,5.47,5.47,0,0,0-.11-1.51,1.94,1.94,0,0,0-.45-.85,2.26,2.26,0,0,0-1.63-.94,1.86,1.86,0,0,0-1,0l-.6.25a2.43,2.43,0,0,0-.9.9l-.25.59a2.5,2.5,0,0,0,0,1.33v.06l-.09-.66a3,3,0,0,1,0,.84l.09-.67a3.27,3.27,0,0,1-.2.76H355a2.91,2.91,0,0,0-.16-.5,6.24,6.24,0,0,0-.49-1.05,6.69,6.69,0,0,0-.7-.89,1.07,1.07,0,0,0-.19-.18,7.36,7.36,0,0,0-.7-.55,2,2,0,0,0-.93-.3,1.9,1.9,0,0,0-1,0,1.85,1.85,0,0,0-.85.45,1.88,1.88,0,0,0-.64.7l-.25.59a2.5,2.5,0,0,0,0,1.33l.25.6a2.5,2.5,0,0,0,.9.9Z" transform="translate(-182.57 -221.23)"/><path class="cls-2" d="M354.56,537.41c-.1,6.51-2.19,12.72-4,18.93l1.15-1.5c-17.09,8-36.91,3.94-55,3.39a100.73,100.73,0,0,0-14.22.44c-5.36.59-10.72,1.18-16.1,1.65a196.74,196.74,0,0,1-32.2.58c-1.5-.12-3-.4-4.55-.4-1.1,0-2.2.15-3.3.21-2,.1-4.16.17-5.59-1.37-2.68-2.9-2.24-8-2.17-11.62.05-3.21-4.95-3.21-5,0-.09,4.62-.19,10,2.62,13.9a9.43,9.43,0,0,0,6.71,4c2.54.34,5-.26,7.57-.05a177.87,177.87,0,0,0,19.32.73c6.37-.14,12.73-.59,19.07-1.19,6.17-.58,12.34-1.53,18.53-1.82a160,160,0,0,1,17,.33c11.18.68,22.43,1.8,33.59.28a58.23,58.23,0,0,0,9-1.88c1.48-.45,2.95-1,4.39-1.55.84-.35,1.74-.68,2.55-1.11a3.16,3.16,0,0,0,1.68-2.15c2-6.4,3.9-13,4-19.78.05-3.22-4.95-3.22-5,0Z" transform="translate(-182.57 -221.23)"/><path class="cls-2" d="M355.51,506.92q-1.59,11.83-2.61,23.74a2.52,2.52,0,0,0,2.5,2.5,2.55,2.55,0,0,0,2.5-2.5q1-11.91,2.61-23.74c.18-1.34-1.28-2.5-2.5-2.5a2.57,2.57,0,0,0-2.5,2.5Z" transform="translate(-182.57 -221.23)"/><path class="cls-2" d="M356.66,508.31,351.37,551a2.51,2.51,0,0,0,2.5,2.5,2.57,2.57,0,0,0,2.5-2.5l5.29-42.67a2.52,2.52,0,0,0-2.5-2.5,2.56,2.56,0,0,0-2.5,2.5Z" transform="translate(-182.57 -221.23)"/><path class="cls-2" d="M216.72,545v-.26a1.84,1.84,0,0,0-.22-1A1.93,1.93,0,0,0,216,543a2.05,2.05,0,0,0-.81-.52,2,2,0,0,0-1-.21l-.67.09a2.5,2.5,0,0,0-1.1.64l-.39.51a2.43,2.43,0,0,0-.34,1.26V545a1.85,1.85,0,0,0,.21,1,2,2,0,0,0,.52.81,2.83,2.83,0,0,0,1.77.73l.66-.09a2.53,2.53,0,0,0,1.11-.64l.39-.51a2.53,2.53,0,0,0,.34-1.26Z" transform="translate(-182.57 -221.23)"/><path class="cls-2" d="M214,545.67c3.21,0,3.22-5,0-5s-3.23,5,0,5Z" transform="translate(-182.57 -221.23)"/><path class="cls-2" d="M355.87,505.24c3.22,0,3.22-5,0-5s-3.22,5,0,5Z" transform="translate(-182.57 -221.23)"/><path class="cls-2" d="M355.39,506.46l1,.79a1.85,1.85,0,0,0,.93.29,2.55,2.55,0,0,0,2.49-1.19l.26-.6a2.5,2.5,0,0,0,0-1.33l-.26-.59a2.48,2.48,0,0,0-.89-.9l-1-.78a1.71,1.71,0,0,0-.93-.3,1.85,1.85,0,0,0-1,0,1.89,1.89,0,0,0-.85.45,2,2,0,0,0-.65.7l-.25.6a2.5,2.5,0,0,0,0,1.33l.25.6a2.56,2.56,0,0,0,.9.89Z" transform="translate(-182.57 -221.23)"/><path class="cls-2" d="M357,508.42l.26.26a2,2,0,0,0,.81.52,2.3,2.3,0,0,0,1.92,0,2,2,0,0,0,.81-.52l.39-.51a2.53,2.53,0,0,0,.34-1.26l-.09-.66a2.45,2.45,0,0,0-.64-1.1l-.26-.27a1.93,1.93,0,0,0-.81-.51,1.88,1.88,0,0,0-1-.22,1.84,1.84,0,0,0-1,.22,1.93,1.93,0,0,0-.81.51l-.39.51a2.43,2.43,0,0,0-.34,1.26l.09.67a2.5,2.5,0,0,0,.64,1.1Z" transform="translate(-182.57 -221.23)"/><path class="cls-2" d="M359.52,510.72c3.22,0,3.22-5,0-5s-3.22,5,0,5Z" transform="translate(-182.57 -221.23)"/></svg>