<svg width="275" height="494" viewBox="0 0 275 494" fill="none" xmlns="http://www.w3.org/2000/svg">
<g clip-path="url(#clip0)">
<path d="M7.61996 217.64C21.9584 221.589 37.0896 221.651 51.46 217.82C65.8547 214.084 79.0972 206.834 90 196.72C96.0735 191.063 101.229 184.494 105.28 177.25L100.2 179.32C124.722 188.599 151.279 191.153 177.12 186.72C184.245 185.509 191.265 183.75 198.12 181.46L192.58 175.92C185.32 193.3 177.96 214.92 189.64 232.13C195.08 240.13 203.11 245.71 210.86 251.31L237.72 270.74L267.97 292.62C269.88 294 273.06 293.01 274.12 291C274.692 289.964 274.844 288.748 274.545 287.603C274.245 286.458 273.516 285.473 272.51 284.85L220.51 247.21C216.51 244.35 212.51 241.54 208.66 238.59L208.26 238.28L207.87 237.98L206.69 237.04C205.81 236.32 204.93 235.58 204.08 234.82C202.432 233.374 200.882 231.821 199.44 230.17C199.12 229.8 198.81 229.42 198.49 229.04C198.41 228.94 197.98 228.36 198.42 228.95L197.92 228.28C197.31 227.42 196.73 226.53 196.21 225.62C195.661 224.679 195.167 223.708 194.73 222.71C195.04 223.43 194.41 221.89 194.36 221.71C194.16 221.16 193.98 220.61 193.81 220.06C193.5 219.06 193.25 217.98 193.04 216.92C192.94 216.43 192.87 215.92 192.78 215.43C192.92 216.22 192.78 215.5 192.78 215.35C192.78 214.99 192.71 214.64 192.68 214.28C192.505 212.033 192.505 209.777 192.68 207.53C192.68 206.95 192.78 206.36 192.84 205.77C192.84 205.48 192.91 205.19 192.95 204.89C192.86 205.55 192.95 204.82 192.95 204.54C193.14 203.28 193.38 202.03 193.64 200.78C194.19 198.25 194.87 195.78 195.64 193.27C197.24 188.17 199.21 183.2 201.27 178.27C202.6 175.1 198.74 171.73 195.74 172.73C189.768 174.728 183.667 176.318 177.48 177.49C171.54 178.641 165.524 179.353 159.48 179.62C153.268 179.938 147.041 179.852 140.84 179.36C134.88 178.918 128.961 178.039 123.13 176.73C116.139 175.215 109.275 173.163 102.6 170.59C101.643 170.329 100.627 170.39 99.7091 170.764C98.7908 171.138 98.0214 171.804 97.52 172.66C95.8322 175.692 93.9343 178.603 91.84 181.37L91.51 181.81C91.61 181.68 92.06 181.11 91.51 181.76L90.83 182.61C90.25 183.31 89.66 184.01 89.06 184.69C87.94 185.97 86.78 187.21 85.58 188.41C84.33 189.66 83.05 190.86 81.72 192.02C81.1266 192.54 80.5266 193.05 79.92 193.55L78.92 194.36C78.68 194.55 77.64 195.36 78.39 194.78C72.9046 198.949 66.9386 202.444 60.62 205.19L60.11 205.41C60.26 205.35 60.96 205.06 60.17 205.41L59.17 205.82C58.32 206.16 57.46 206.48 56.6 206.82C54.9933 207.4 53.37 207.933 51.73 208.42C48.4017 209.404 45.015 210.179 41.59 210.74L40.33 210.94C40.16 210.94 39.09 211.11 39.66 211.04L38.81 211.14C38.33 211.2 37.81 211.25 37.36 211.29C35.67 211.46 33.97 211.57 32.27 211.63C28.3873 211.762 24.5001 211.608 20.64 211.17C20.36 211.17 18.92 210.92 20.03 211.09L18.59 210.88C17.69 210.73 16.79 210.57 15.9 210.39C13.9 210 12 209.51 9.99996 209C9.43003 208.842 8.83463 208.799 8.24777 208.871C7.66091 208.944 7.09408 209.131 6.57965 209.423C6.06521 209.714 5.61324 210.104 5.24955 210.57C4.88585 211.037 4.61755 211.57 4.45996 212.14C4.30238 212.71 4.25859 213.305 4.33111 213.892C4.40362 214.479 4.59102 215.046 4.88259 215.56C5.17417 216.075 5.56421 216.527 6.03046 216.89C6.49671 217.254 7.03003 217.522 7.59996 217.68L7.61996 217.64Z" fill="black"/>
<path d="M0.189978 216.65C3.99998 228.2 11.72 237.82 20.55 246C28.2787 252.976 36.5479 259.33 45.28 265C62.16 276.19 80.18 285.5 97.55 295.89C106.078 300.897 114.327 306.366 122.26 312.27C122.46 312.41 122.65 312.56 122.84 312.71C122.84 312.71 123.84 313.44 123.26 313.02C122.68 312.6 123.66 313.34 123.67 313.34L124.39 313.91C125.39 314.7 126.39 315.5 127.39 316.31C129.25 317.85 131.08 319.44 132.86 321.07C136.427 324.308 139.802 327.751 142.97 331.38C143.72 332.25 144.46 333.12 145.19 334.01L146.19 335.28C146.42 335.56 146.64 335.85 146.86 336.14C146.39 335.52 146.86 336.08 147.05 336.38C148.52 338.32 149.92 340.32 151.25 342.38C154.268 347.016 156.901 351.893 159.12 356.96L159.46 357.75C159.1 356.92 159.66 358.22 159.68 358.27L160.4 360.07C160.94 361.48 161.46 362.9 161.95 364.32C162.88 367.04 163.7 369.79 164.43 372.57C165.16 375.35 165.79 378.16 166.33 380.99C166.6 382.41 166.85 383.83 167.07 385.26C167.18 385.9 167.27 386.55 167.37 387.19L167.52 388.27C167.39 387.35 167.58 388.74 167.59 388.8C170.59 412.36 168.34 436.27 165.44 459.73C165.08 462.66 164.7 465.58 164.32 468.51C164.04 470.72 166.26 472.66 168.23 472.93C169.304 473.083 170.397 472.84 171.305 472.245C172.212 471.651 172.872 470.746 173.16 469.7C178.69 442.1 184.24 414.46 192.07 387.41C195.892 374.006 200.415 360.811 205.62 347.88C206.95 344.61 207.97 342.22 209.5 338.8C210.94 335.58 212.437 332.387 213.99 329.22C215.366 326.256 216.926 323.38 218.66 320.61C219.06 320 219.47 319.4 219.9 318.82C219.38 319.52 220.25 318.4 220.27 318.37L220.84 317.72C221.418 317.075 222.032 316.464 222.68 315.89L223.35 315.31C222.82 315.75 224.11 314.78 224.25 314.69C227.351 312.767 230.625 311.14 234.03 309.83L245.94 304.72L269.29 294.72C271.46 293.79 272.11 290.43 270.91 288.56C269.45 286.31 267.07 285.95 264.75 286.95L243.31 296.14C236.61 299.01 229.69 301.6 223.2 304.9C220.053 306.443 217.2 308.525 214.77 311.05C212.464 313.597 210.486 316.423 208.88 319.46C205.57 325.53 202.72 331.88 199.99 338.22C188.64 364.5 180.8 392.1 174.4 420C170.8 435.69 167.63 451.48 164.47 467.26L173.31 468.46C176.39 444.82 179.23 420.87 177.41 397.01C175.66 374.01 169.26 351.27 155.35 332.53C143.35 316.33 127.35 303.9 110.35 293.18C93.21 282.33 75.13 273.07 57.89 262.39C53.62 259.74 49.41 257.01 45.28 254.15C43.23 252.72 41.2 251.27 39.2 249.77L37.71 248.65L37.12 248.2C36.12 247.46 37.58 248.56 37 248.1C36 247.29 34.94 246.49 33.93 245.67C29.7041 242.258 25.6963 238.584 21.93 234.67C20.93 233.617 19.9533 232.543 19 231.45L17.75 230L17.07 229.15C16.19 228.05 17.56 229.83 16.72 228.69C14.9763 226.396 13.3989 223.979 12 221.46C11.32 220.21 10.69 218.92 10.1 217.61C9.72998 216.8 9.97998 217.32 10.1 217.5C9.93998 217.1 9.77998 216.7 9.62998 216.3C9.36998 215.62 9.13998 214.94 8.90998 214.3C8.57848 213.159 7.81574 212.192 6.78342 211.604C5.7511 211.016 4.53037 210.853 3.37998 211.15C1.14998 211.88 -0.550022 214.3 0.229978 216.69L0.189978 216.65Z" fill="black"/>
<path d="M100.4 261.27L100.17 264.96L106.94 261.08L100.76 256.85C99.9013 256.35 98.9016 256.148 97.916 256.274C96.9305 256.401 96.0144 256.849 95.31 257.55C94.6244 258.265 94.1864 259.182 94.0604 260.165C93.9344 261.148 94.127 262.145 94.61 263.01L99.23 270.85L98.61 268.58C99.2017 275.577 101.458 282.332 105.19 288.28C105.646 289.039 106.314 289.647 107.112 290.029C107.91 290.411 108.803 290.551 109.68 290.43C110.551 290.321 111.371 289.957 112.036 289.385C112.701 288.812 113.183 288.055 113.42 287.21C114.382 283.153 114.178 278.906 112.83 274.96C112.05 272.74 109.73 271.03 107.3 271.81C105.08 272.53 103.36 274.96 104.16 277.35C105.216 280.53 106.465 283.642 107.9 286.67C109.11 289.21 110.41 292.22 112.62 294.07C115.52 296.48 119.62 296.99 122.47 294.07C125.32 291.15 125.13 286.43 121.55 284.26L117 292.05C125.842 296.482 135.858 298.011 145.62 296.42C147.82 296.07 149.11 293.47 148.84 291.48C148.692 290.41 148.166 289.429 147.357 288.714C146.548 287.998 145.51 287.596 144.43 287.58C139.75 287.305 135.055 287.685 130.48 288.71C126.87 289.5 125.91 295.29 129.41 296.93C136.917 300.538 145.491 301.25 153.49 298.93C154.333 298.685 155.088 298.2 155.661 297.534C156.234 296.868 156.602 296.051 156.72 295.18C156.827 294.306 156.681 293.42 156.3 292.626C155.919 291.832 155.319 291.164 154.57 290.7C147.89 285.99 138.08 287.14 132.37 292.84C130.14 295.08 130.94 299.74 134.37 300.36C147.137 302.698 160.199 302.962 173.05 301.14L170.65 292.46C166.688 293.302 162.926 294.901 159.57 297.17C156.84 299.03 156.5 303.17 159.57 304.94C165.169 308.148 171.712 309.301 178.07 308.2L175.68 299.52C173.966 300.052 172.42 301.021 171.193 302.33C169.966 303.64 169.1 305.245 168.68 306.99C168.388 308.14 168.554 309.359 169.141 310.39C169.728 311.421 170.692 312.184 171.83 312.52C177.38 314.08 183.49 312.52 188.07 309.14C192.65 305.76 196 301 199.09 296.22C199.584 295.359 199.782 294.36 199.653 293.375C199.525 292.391 199.078 291.476 198.38 290.77C197.665 290.087 196.751 289.65 195.77 289.524C194.789 289.398 193.794 289.59 192.93 290.07C189.69 291.87 189.61 296.07 191.93 298.62C192.478 299.203 193.139 299.668 193.874 299.985C194.608 300.303 195.4 300.467 196.2 300.467C197 300.467 197.792 300.303 198.526 299.985C199.26 299.668 199.922 299.203 200.47 298.62C202.23 296.81 202.79 294.22 203.47 291.87L205.73 284.53L197.05 282.14L195.71 288.52H204.38C204.127 287.808 203.91 287.084 203.73 286.35C203.637 285.99 203.557 285.62 203.49 285.24C203.49 285.11 203.31 284.12 203.4 284.87C203.233 283.365 203.217 281.848 203.35 280.34C203.345 279.148 202.869 278.007 202.026 277.164C201.183 276.321 200.042 275.845 198.85 275.84C197.667 275.873 196.541 276.357 195.704 277.194C194.867 278.031 194.383 279.157 194.35 280.34C194.064 283.923 194.527 287.526 195.71 290.92C195.974 291.867 196.54 292.702 197.323 293.296C198.106 293.891 199.062 294.213 200.045 294.213C201.028 294.213 201.984 293.891 202.767 293.296C203.55 292.702 204.116 291.867 204.38 290.92L205.73 284.53C206.21 282.24 205.05 279.53 202.58 279C201.431 278.708 200.214 278.872 199.183 279.457C198.152 280.043 197.388 281.004 197.05 282.14L194.8 289.48L194.29 291.14C194.18 291.5 194.07 292.42 193.79 292.7C194.04 292.15 194.06 292.09 193.84 292.53C193.62 292.97 193.61 292.9 193.96 292.37C195.27 291.2 196.76 291.24 198.43 292.46C199.77 293.94 199.43 295.75 197.43 297.87L191.28 291.71C190.65 292.71 190.02 293.64 189.37 294.59L188.37 296.01C188.28 296.13 187.29 297.46 187.78 296.83C186.422 298.583 184.88 300.186 183.18 301.61C182.93 301.82 182.96 301.79 183.28 301.54L182.61 302C182.15 302.31 181.68 302.59 181.2 302.85C181.05 302.93 179.55 303.63 180.42 303.27C179.917 303.476 179.403 303.653 178.88 303.8C178.36 303.95 177.88 304.06 177.3 304.17C178.3 303.97 176.73 304.17 176.51 304.17C175.976 304.192 175.44 304.168 174.91 304.1C175.97 304.23 174.34 303.92 174.14 303.87L177.28 309.4C177.38 308.97 177.62 308.4 177.28 309.12C177.388 308.903 177.508 308.693 177.64 308.49C177.32 308.87 177.27 308.93 177.48 308.69C177.69 308.45 177.73 308.43 177.86 308.3C177.45 308.59 177.39 308.64 177.65 308.46C178.65 307.9 177.18 308.51 178.03 308.22C179.168 307.884 180.132 307.121 180.719 306.09C181.306 305.059 181.471 303.84 181.18 302.69C180.36 300.15 178.18 299.15 175.64 299.54C175.26 299.6 175.12 299.54 175.58 299.54L174.74 299.61C174.11 299.61 173.48 299.67 172.85 299.66C172.22 299.65 171.72 299.66 171.16 299.57C171.08 299.57 170.22 299.45 170.71 299.57C171.2 299.69 170.04 299.44 170.06 299.44C168.956 299.223 167.87 298.926 166.81 298.55L166.02 298.25C166.76 298.54 165.89 298.17 165.75 298.11C165.17 297.83 164.62 297.53 164.07 297.21V305C165.516 304.007 167.053 303.153 168.66 302.45C167.96 302.75 169.09 302.31 169.21 302.26C169.63 302.11 170.04 301.97 170.46 301.85C171.3 301.59 172.15 301.38 173.01 301.2C174.156 300.873 175.127 300.109 175.714 299.073C176.302 298.037 176.458 296.811 176.15 295.66C175.32 293.1 173.15 292.17 170.61 292.52L170.14 292.59C170.46 292.54 170.47 292.54 170.14 292.59L169.14 292.71L167 292.94C165.49 293.09 164 293.21 162.46 293.29C159.5 293.457 156.543 293.51 153.59 293.45C150.71 293.39 147.83 293.22 144.97 292.94L142.59 292.68L141.59 292.56C142.2 292.64 141.33 292.56 141.12 292.49C139.61 292.28 138.12 292.03 136.62 291.76L138.62 299.28C138.86 299.03 139.12 298.81 139.37 298.57C140.09 297.88 138.78 298.92 139.55 298.44C140.14 298.08 140.74 297.76 141.34 297.44C140.4 297.94 141.34 297.44 141.55 297.38L142.55 297.09C142.88 297.01 143.22 296.94 143.55 296.88C144.66 296.66 142.55 296.88 143.72 296.88C144.42 296.88 145.09 296.88 145.79 296.88C146.73 296.88 144.96 296.67 145.96 296.88C146.29 296.95 146.63 297.01 146.96 297.1C147.29 297.19 147.62 297.31 147.96 297.4C148.76 297.63 147.52 297.15 147.96 297.4C148.626 297.736 149.271 298.113 149.89 298.53L150.96 290.31C150.13 290.55 149.3 290.77 148.45 290.95L147.18 291.18C146.34 291.32 147.39 291.18 146.88 291.18C145.216 291.302 143.547 291.332 141.88 291.27C141.447 291.27 141.017 291.23 140.59 291.15C141.25 291.22 140.59 291.15 140.29 291.1C139.51 290.97 138.73 290.81 137.97 290.62C137.21 290.43 136.3 290.16 135.49 289.87C135.08 289.73 134.67 289.58 134.28 289.42C134.99 289.71 133.91 289.24 133.77 289.17L132.7 297.4C133.7 297.18 134.7 296.98 135.7 296.83C136.02 296.78 136.01 296.78 135.7 296.83L136.64 296.73L138.06 296.6C140.118 296.465 142.182 296.465 144.24 296.6L143.04 287.76L142.17 287.89C142.64 287.82 142.61 287.82 142.06 287.89C141.51 287.96 141.19 287.98 140.75 288.01C139.75 288.09 138.75 288.12 137.68 288.12C136.61 288.12 135.68 288.12 134.62 288C134.11 288 133.62 287.92 133.09 287.86L132.44 287.78C132.91 287.84 132.87 287.83 132.33 287.78C130.301 287.438 128.297 286.964 126.33 286.36C125.33 286.05 124.39 285.7 123.44 285.36C122.49 285.02 123.83 285.56 122.91 285.12L121.32 284.36C119.22 283.3 116.32 283.73 115.17 285.97C114.59 287.006 114.433 288.226 114.733 289.375C115.033 290.523 115.767 291.511 116.78 292.13C116.201 291.762 115.754 291.221 115.501 290.583C115.247 289.946 115.202 289.245 115.37 288.58C115.24 289.02 115.3 288.89 115.56 288.19C115.36 288.5 115.38 288.48 115.56 288.19C115.718 287.912 115.959 287.692 116.25 287.56C115.79 287.8 115.98 287.77 116.8 287.48C117.009 287.363 117.24 287.294 117.479 287.276C117.717 287.259 117.957 287.295 118.18 287.38C117.79 287.26 117.76 287.26 118.1 287.38C118.44 287.5 118.42 287.51 118.1 287.31C118.57 287.68 118.61 287.7 118.24 287.36C117.6 286.74 118.59 288.02 118.07 287.18C117.67 286.51 117.27 285.85 116.91 285.18C116.03 283.53 115.22 281.84 114.47 280.13C114.361 279.922 114.27 279.704 114.2 279.48C114.03 279.04 113.85 278.61 113.69 278.17C113.3 277.17 112.94 276.12 112.59 275.09L103.92 277.48C104.173 278.195 104.386 278.922 104.56 279.66C104.56 279.76 104.78 280.9 104.71 280.41C104.64 279.92 104.77 281.2 104.77 281.17C104.808 281.836 104.808 282.504 104.77 283.17C104.77 283.43 104.67 284.17 104.77 283.56C104.71 284.01 104.61 284.45 104.51 284.9L112.73 283.82C112.11 282.82 111.53 281.82 110.99 280.82C110.73 280.31 110.47 279.82 110.23 279.27L109.87 278.48V278.36C109.081 276.345 108.449 274.273 107.98 272.16C107.86 271.59 107.75 271.02 107.65 270.46C107.65 270.17 107.56 269.89 107.52 269.6C107.58 270.08 107.58 270.05 107.52 269.51C107.485 268.818 107.401 268.13 107.27 267.45C106.978 266.632 106.581 265.856 106.09 265.14L102.2 258.53L96.04 264.69L102.22 268.92C105.22 270.98 108.8 268.18 108.99 265.03L109.22 261.34C109.21 260.15 108.732 259.011 107.89 258.17C107.049 257.328 105.91 256.851 104.72 256.84C103.534 256.866 102.405 257.348 101.566 258.186C100.728 259.025 100.245 260.155 100.22 261.34L100.4 261.27Z" fill="black"/>
<path d="M126.66 291.65C133.423 279.255 137.415 265.539 138.36 251.45L130 253.72C130.33 254.41 130.64 255.11 130.94 255.81C130.75 255.37 130.94 255.81 131.02 256.01C131.17 256.36 131.31 256.72 131.45 257.07C131.96 258.35 132.45 259.64 132.87 260.95C133.81 263.7 134.61 266.5 135.33 269.32C136.73 274.9 137.76 280.57 138.68 286.26C139.05 288.59 142.07 290.09 144.21 289.4C145.343 289.054 146.299 288.286 146.884 287.256C147.468 286.225 147.635 285.01 147.35 283.86C145.43 271.95 142.87 260.18 137.78 249.17C137.274 248.317 136.502 247.653 135.583 247.281C134.663 246.909 133.647 246.849 132.69 247.11C131.757 247.401 130.938 247.975 130.346 248.753C129.755 249.531 129.421 250.473 129.39 251.45C129.28 253.08 129.13 254.72 128.93 256.35C128.93 256.52 128.74 257.78 128.86 256.93C128.81 257.3 128.75 257.66 128.7 258.03C128.57 258.84 128.44 259.65 128.29 260.46C127.719 263.617 126.981 266.741 126.08 269.82C125.18 272.9 124.08 275.93 122.91 278.9L122.73 279.31C122.87 279 122.88 278.98 122.73 279.31C122.58 279.64 122.44 279.99 122.28 280.31C121.92 281.12 121.54 281.94 121.16 282.74C120.44 284.22 119.687 285.68 118.9 287.12C118.592 287.631 118.389 288.197 118.302 288.787C118.215 289.377 118.246 289.978 118.393 290.556C118.54 291.133 118.801 291.676 119.16 292.152C119.519 292.628 119.969 293.028 120.483 293.329C120.998 293.63 121.567 293.825 122.158 293.904C122.749 293.983 123.35 293.944 123.926 293.788C124.501 293.633 125.04 293.365 125.511 293C125.983 292.634 126.376 292.179 126.67 291.66L126.66 291.65Z" fill="black"/>
<path d="M153.86 296.84C159.894 283.071 164.583 268.751 167.86 254.08H159.18C162.834 268.712 169.697 282.347 179.27 294C180.76 295.83 184.1 295.67 185.63 294C186.447 293.143 186.902 292.004 186.902 290.82C186.902 289.636 186.447 288.497 185.63 287.64C185.36 287.31 185.09 286.98 184.83 286.64C184.73 286.53 184.01 285.64 184.47 286.21C183.91 285.47 183.36 284.73 182.81 283.98C181.81 282.587 180.847 281.173 179.92 279.74C178.029 276.807 176.3 273.772 174.74 270.65C173.97 269.12 173.25 267.56 172.56 266C172.48 265.838 172.41 265.671 172.35 265.5L171.87 264.31C171.55 263.52 171.24 262.72 170.95 261.91C169.72 258.568 168.679 255.159 167.83 251.7C166.78 247.48 160.11 247.34 159.15 251.7C157.59 258.76 155.71 265.76 153.48 272.64C152.373 276.087 151.18 279.503 149.9 282.89C148.62 286.28 147.32 289.48 146.09 292.31C145.15 294.46 145.38 297.24 147.7 298.46C149.7 299.46 152.86 299.15 153.86 296.85V296.84Z" fill="black"/>
<path d="M95 193.59C94.89 193.91 94.77 194.22 94.64 194.53L95.0899 193.46C94.4774 194.916 93.681 196.287 92.72 197.54L93.42 196.63C92.4312 197.924 91.282 199.086 90 200.09L90.91 199.39C89.6544 200.347 88.2837 201.144 86.83 201.76L87.9 201.3C87.54 201.447 87.17 201.587 86.79 201.72C85.6728 202.063 84.7173 202.798 84.1 203.79C83.5008 204.843 83.3392 206.089 83.65 207.26C83.8072 207.83 84.0753 208.364 84.4389 208.83C84.8025 209.297 85.2545 209.687 85.7691 209.978C86.2836 210.27 86.8506 210.457 87.4375 210.53C88.0245 210.602 88.62 210.558 89.19 210.4C92.5587 209.283 95.6233 207.402 98.144 204.904C100.665 202.406 102.573 199.359 103.72 196C103.879 195.421 103.921 194.815 103.844 194.22C103.766 193.624 103.571 193.05 103.27 192.53C102.666 191.526 101.705 190.786 100.58 190.46C99.9997 190.305 99.3946 190.266 98.7992 190.345C98.2038 190.423 97.6297 190.619 97.11 190.92C96.1161 191.536 95.3695 192.481 95 193.59Z" fill="black"/>
<path d="M98.78 201.83C111.142 203.582 123.628 204.308 136.11 204L132.93 196.32C129.628 200.465 127.043 205.133 125.28 210.13C124.509 212.333 123.931 214.598 123.55 216.9C123.31 218.34 123.12 219.79 123 221.25C123 221.81 122.92 222.37 122.89 222.94V223.55C122.89 223.72 122.89 224.6 122.89 223.89C122.89 223.18 122.89 223.89 122.89 224.08C122.89 224.27 122.8 224.49 122.75 224.7C122.683 224.893 122.626 225.09 122.58 225.29C122.47 225.88 122.89 224.48 122.68 225.02C122.58 225.28 122.18 225.53 122.68 225.14C122.77 225.06 123.68 224.35 123.25 224.6C122.82 224.85 123.77 224.41 123.95 224.39C124.53 224.33 124.63 224.63 124.16 224.3C124.78 224.74 124.07 224.25 123.87 224.15L123.12 223.78L121.62 223.01C120.62 222.46 119.53 221.88 118.5 221.28C116.44 220.08 114.44 218.797 112.5 217.43C111.58 216.79 110.68 216.13 109.78 215.43C109.08 214.9 109.55 215.24 109.69 215.36L109.04 214.84L107.41 213.51C103.335 210.075 99.5891 206.269 96.22 202.14C94.72 200.31 91.39 200.47 89.85 202.14C89.0378 203 88.5852 204.137 88.5852 205.32C88.5852 206.503 89.0378 207.64 89.85 208.5C96.4265 216.508 104.344 223.312 113.25 228.61C117.82 231.33 124.8 236.11 129.42 231.04C131.3 228.98 131.81 226.21 132 223.53C132.08 222.34 132.13 221.15 132.26 219.96C132.26 219.8 132.41 219.09 132.26 219.9C132.31 219.62 132.35 219.34 132.39 219.06C132.51 218.37 132.65 217.67 132.81 216.98C133.121 215.605 133.501 214.247 133.95 212.91C134.18 212.24 134.43 211.58 134.68 210.91C135.15 209.65 134.46 211.35 134.8 210.62C134.94 210.29 135.08 209.97 135.23 209.62C135.862 208.279 136.566 206.974 137.34 205.71C137.71 205.1 138.09 204.51 138.49 203.93L138.98 203.24C139.08 203.1 139.98 201.97 139.43 202.63C140.039 201.985 140.451 201.178 140.616 200.306C140.78 199.434 140.692 198.533 140.36 197.71C140.022 196.894 139.45 196.196 138.718 195.704C137.985 195.211 137.123 194.945 136.24 194.94C130.287 195.113 124.333 195.04 118.38 194.72C115.44 194.56 112.51 194.34 109.59 194.06C108.12 193.92 106.66 193.77 105.2 193.6C104.47 193.51 103.74 193.43 103.02 193.33C102.15 193.23 101.73 193.17 101.3 193.11C98.98 192.79 96.3 193.67 95.76 196.25C95.28 198.37 96.41 201.44 98.91 201.79L98.78 201.83Z" fill="black"/>
<path d="M149.89 202L134.59 226.62C132.69 229.67 135.21 233.19 138.48 233.39C144.942 233.77 151.327 234.98 157.48 236.99C158.9 237.45 160.32 237.94 161.71 238.47C162.55 238.79 163.39 239.12 164.21 239.47C163.59 239.2 164.28 239.47 164.38 239.54L166.01 240.28C169.12 241.72 172.32 244.03 175.9 243.81C177.08 243.759 178.228 243.411 179.236 242.797C180.245 242.183 181.082 241.324 181.67 240.3C182.594 238.443 182.849 236.323 182.39 234.3C182.089 232.967 181.646 231.669 181.07 230.43C180.38 228.76 179.66 227.1 178.88 225.43C173.067 213.465 164.499 203.05 153.88 195.04C152 193.61 148.76 194.69 147.72 196.66C146.47 199.04 147.33 201.28 149.34 202.81C150.4 203.63 148.67 202.26 149.71 203.1L150.34 203.61C150.86 204.03 151.34 204.47 151.9 204.91C152.97 205.83 154.03 206.78 155.05 207.75C157.051 209.652 158.953 211.654 160.75 213.75C161.19 214.27 161.62 214.79 162.04 215.31L162.55 215.95C163.36 216.95 162.24 215.53 162.71 216.15C163.56 217.29 164.4 218.43 165.2 219.6C166.723 221.832 168.129 224.141 169.41 226.52C170.06 227.7 170.67 228.91 171.25 230.12C171.54 230.73 171.82 231.35 172.1 231.96C172.21 232.21 172.31 232.46 172.42 232.7C172.63 233.19 172.63 233.2 172.42 232.75C172.5 232.93 172.58 233.12 172.65 233.31C172.72 233.5 173.95 236.56 173.74 236.63L173.66 236.11C173.675 236.333 173.675 236.557 173.66 236.78C173.76 236.66 173.84 235.86 173.94 235.71C174.161 235.364 174.487 235.097 174.87 234.95C175.088 234.833 175.333 234.777 175.58 234.79C175.07 234.79 175.1 234.79 175.68 234.79L174.93 234.57C173.79 234.22 175.31 234.84 174.73 234.48C174.15 234.12 173.45 233.82 172.82 233.48C171.41 232.78 169.99 232.11 168.55 231.48C165.589 230.184 162.561 229.046 159.48 228.07C152.66 225.956 145.608 224.684 138.48 224.28L142.36 231.05L157.66 206.43C157.968 205.919 158.171 205.353 158.258 204.763C158.345 204.173 158.314 203.572 158.167 202.994C158.02 202.417 157.759 201.874 157.4 201.398C157.041 200.922 156.591 200.522 156.077 200.221C155.562 199.92 154.993 199.725 154.402 199.646C153.811 199.567 153.21 199.606 152.634 199.762C152.059 199.917 151.52 200.185 151.049 200.55C150.577 200.916 150.184 201.371 149.89 201.89V202Z" fill="black"/>
<path d="M128.55 225.77C121.87 227.861 115.531 230.913 109.73 234.83C107.73 236.15 106.73 238.83 108.11 240.99C109.36 242.92 112.19 243.99 114.27 242.6C116.955 240.774 119.765 239.14 122.68 237.71C123.4 237.36 124.12 237.03 124.85 236.71C125.08 236.61 126.38 235.96 125.24 236.53C125.57 236.37 125.93 236.25 126.24 236.11C127.77 235.51 129.33 234.96 130.9 234.46C132.051 234.143 133.029 233.382 133.619 232.344C134.209 231.306 134.362 230.076 134.045 228.925C133.728 227.774 132.967 226.796 131.929 226.206C130.891 225.616 129.661 225.463 128.51 225.78L128.55 225.77Z" fill="black"/>
<path d="M121.82 233.54C132.097 241.662 144.154 247.231 157 249.79C159.31 250.24 162 249.14 162.54 246.65C162.824 245.499 162.656 244.283 162.07 243.252C161.484 242.221 160.525 241.455 159.39 241.11C151.782 238.132 143.896 235.918 135.85 234.5C128.75 233.25 120.96 231.9 113.85 233.88C109.843 234.916 106.369 237.413 104.11 240.88C103.517 241.913 103.353 243.137 103.654 244.29C103.955 245.442 104.697 246.43 105.72 247.04C106.756 247.618 107.976 247.773 109.124 247.473C110.271 247.173 111.259 246.441 111.88 245.43C112 245.24 112.12 245.05 112.25 244.87C111.87 245.34 111.84 245.38 112.16 245L113.07 244.09C113.44 243.77 113.39 243.81 112.9 244.19C113.07 244.06 113.25 243.94 113.43 243.82C113.791 243.585 114.165 243.372 114.55 243.18L115.13 242.9C114.56 243.14 114.5 243.16 114.97 242.98C115.44 242.8 115.81 242.69 116.24 242.57C116.987 242.287 117.772 242.118 118.57 242.07C117.39 241.98 118.79 242.07 119.11 242.07C119.43 242.07 120.04 242 120.51 241.98C121.45 241.98 122.39 241.98 123.32 241.98C124.25 241.98 125.16 242.09 126.08 242.18L127.93 242.38L128.86 242.5H129.19H129.51L130.44 242.64L132.28 242.93C133.51 243.13 134.74 243.35 135.96 243.59C138.32 244.063 140.653 244.6 142.96 245.2C147.712 246.436 152.387 247.952 156.96 249.74L159.35 241.06C156.411 240.495 153.506 239.764 150.65 238.87C149.22 238.41 147.81 237.92 146.41 237.39C145.74 237.14 145.08 236.86 144.41 236.6C143.96 236.42 144.85 236.8 144.11 236.47L143 236C140.337 234.79 137.746 233.427 135.24 231.92C133.96 231.16 132.7 230.35 131.46 229.51L129.71 228.28L128.71 227.52L128.27 227.18C126.42 225.73 123.69 225.24 121.9 227.18C120.42 228.79 119.9 231.99 121.9 233.54H121.82Z" fill="black"/>
<path d="M114.34 246.59L122.84 244.17L117.76 242.11C117.6 241.82 117.58 241.41 117.68 241.95C117.63 241.7 117.78 240.68 117.68 241.04C117.47 241.64 118.05 240.33 117.76 240.89C117.47 241.45 118.42 240.23 117.69 240.89C114.69 243.32 117.11 248.89 120.87 248.57L141.57 247.02C142.355 247.003 143.123 246.784 143.798 246.383C144.474 245.982 145.034 245.414 145.426 244.733C145.817 244.052 146.026 243.281 146.032 242.496C146.038 241.71 145.841 240.937 145.46 240.25C145.143 239.687 144.718 239.192 144.209 238.795C143.699 238.397 143.117 238.104 142.494 237.933C141.871 237.762 141.22 237.716 140.579 237.798C139.938 237.88 139.32 238.088 138.76 238.41C137.841 238.943 137.096 239.731 136.617 240.679C136.137 241.627 135.944 242.694 136.06 243.75C136.207 244.843 136.692 245.864 137.446 246.669C138.201 247.474 139.188 248.023 140.27 248.24C141.394 248.437 142.545 248.413 143.66 248.17C143.87 248.17 144.11 248.1 144.32 248.04C143.573 248.192 142.796 248.046 142.155 247.633C141.514 247.221 141.06 246.573 140.89 245.83C141.217 246.973 141.979 247.943 143.013 248.53C144.047 249.117 145.271 249.275 146.42 248.97C147.557 248.63 148.518 247.864 149.104 246.831C149.689 245.799 149.852 244.58 149.56 243.43C149.298 242.408 148.752 241.481 147.986 240.756C147.22 240.03 146.265 239.536 145.23 239.33C144.189 239.13 143.12 239.13 142.08 239.33C141.817 239.414 141.545 239.464 141.27 239.48L141.79 239.4C143.18 240.01 143.55 240.08 142.91 239.64L144.52 241.25L144.81 241.94V244.34C145.09 242.72 143.94 243.52 141.36 246.74L139.09 246.13L139.22 246.22L137.6 244.6L137.69 244.78L141.57 238.01L120.87 239.56L124 247.2C126.82 244.88 127.2 240.63 125.51 237.56C125.001 236.712 124.23 236.053 123.314 235.681C122.398 235.31 121.386 235.246 120.43 235.5L111.93 237.91C110.779 238.227 109.801 238.988 109.211 240.026C108.621 241.064 108.468 242.294 108.785 243.445C109.102 244.596 109.863 245.574 110.901 246.164C111.939 246.754 113.169 246.907 114.32 246.59H114.34Z" fill="black"/>
<path d="M97.9999 172.87C97.3199 172.39 96.6499 171.87 95.9999 171.4C95.8599 171.3 94.9999 170.66 95.3899 170.94L95.2399 170.82L94.6399 170.34C93.2899 169.26 91.9699 168.13 90.6399 166.97C88.1253 164.697 85.7383 162.287 83.4899 159.75C82.3899 158.5 81.3199 157.23 80.2899 155.92L79.9299 155.47C79.4999 154.94 80.3399 156.02 79.9299 155.47L79.2299 154.55C78.6999 153.83 78.1699 153.11 77.6599 152.37C75.705 149.597 73.9023 146.719 72.2599 143.75C70.6399 140.83 69.1899 137.83 67.8699 134.75L67.6499 134.23L67.2299 133.16C66.8999 132.33 66.5799 131.49 66.2299 130.64C65.6699 129.08 65.1399 127.5 64.6599 125.9C63.6932 122.646 62.9053 119.341 62.2999 116C62.1399 115.18 61.9999 114.36 61.8699 113.54L61.6899 112.41C61.6899 112.22 61.6899 112.03 61.6099 111.84C61.7099 112.48 61.6099 112.15 61.6099 111.7C61.3999 110.05 61.2399 108.39 61.1199 106.7C59.9999 90.56 64.7999 74.62 62.9999 58.42C62.5499 54.42 61.9299 50.42 61.8299 46.36C61.8299 45.47 61.8299 44.57 61.8299 43.67C61.8299 43.23 61.8299 42.78 61.9199 42.34C62.0099 41.9 61.9699 41.75 61.9999 41.46C61.9499 41.95 61.9999 41.65 61.9999 41.34C62.1531 40.3882 62.3635 39.4465 62.6299 38.52C62.7499 38.08 62.8899 37.66 63.0399 37.23C63.1899 36.8 63.6299 35.93 63.2299 36.73C63.961 35.2693 64.7896 33.8595 65.7099 32.51C65.9899 32.1 65.5899 32.66 65.5599 32.7L65.8999 32.28L66.7299 31.28C67.2699 30.7 67.8299 30.13 68.3999 29.59C68.9699 29.05 69.5899 28.52 70.2099 28.02C70.4699 27.81 71.0999 27.35 70.4699 27.8C70.8799 27.51 71.2799 27.21 71.6899 26.93C73.0299 25.99 74.4199 25.13 75.8399 24.32C78.8115 22.7126 81.8695 21.2704 84.9999 20C84.6299 20.15 85.3399 19.86 85.3199 19.86L85.9699 19.6L87.4799 19C88.4199 18.63 89.3599 18.26 90.3099 17.91C92.3099 17.17 94.3099 16.46 96.3099 15.8C104.147 13.1783 112.169 11.1493 120.31 9.73002C122.31 9.38002 124.31 9.08002 126.31 8.80002C128.65 8.48002 130.13 5.36002 129.45 3.26002C128.62 0.690023 126.45 -0.229977 123.92 0.120023C107.035 2.37809 90.6086 7.2709 75.2399 14.62C68.6799 17.82 62.5299 21.97 58.1299 27.87C53.1299 34.63 52.3699 43.04 53.1299 51.17C53.5499 55.36 54.2299 59.53 54.4299 63.75C54.5801 68.1092 54.4197 72.4736 53.9499 76.81C53.1299 85.21 51.7799 93.57 51.9499 102.03C52.2676 116.573 55.7734 130.87 62.2199 143.91C68.4901 156.8 77.5407 168.139 88.7199 177.11C90.2799 178.34 91.8599 179.54 93.4799 180.69C95.3999 182.06 98.5699 181.1 99.6399 179.08C100.225 178.034 100.382 176.802 100.076 175.643C99.7696 174.485 99.0253 173.49 97.9999 172.87Z" fill="black"/>
<path d="M138.11 1.11005C124.29 0.610049 111.22 6.76005 101.22 16C90.5799 25.86 83.7199 39 80.4399 53C76.7099 69 77.1299 85.58 78.7799 101.8C79.5999 110 80.4699 118.3 82.4999 126.3C84.4848 134.183 88.0352 141.587 92.9399 148.07C97.5915 154.288 102.6 160.232 107.94 165.87C112.94 171.1 118.6 176.02 125.19 179.13C127.032 180.004 128.929 180.756 130.87 181.38C132.021 181.691 133.248 181.536 134.285 180.948C135.322 180.36 136.085 179.387 136.41 178.24C136.702 177.09 136.539 175.871 135.954 174.839C135.368 173.806 134.407 173.04 133.27 172.7C132.51 172.46 131.76 172.2 131.01 171.92C130.74 171.81 129.93 171.44 130.63 171.76C130.15 171.54 129.63 171.33 129.2 171.1C127.726 170.373 126.296 169.558 124.92 168.66C124.26 168.23 123.6 167.79 122.92 167.33L121.81 166.5C122.45 166.99 121.51 166.26 121.31 166.1C120.017 165.04 118.763 163.937 117.55 162.79C112.566 157.88 107.89 152.667 103.55 147.18L101.79 145L101.17 144.22C101.43 144.55 100.98 143.97 100.98 143.96L100.44 143.25C99.2799 141.703 98.1833 140.11 97.1499 138.47C96.1665 136.893 95.275 135.26 94.4799 133.58C94.2899 133.18 94.1199 132.77 93.9299 132.37C93.7399 131.97 93.9299 132.37 93.9299 132.42L93.6799 131.81C93.2999 130.81 92.9399 129.87 92.6099 128.89C91.4249 125.296 90.5057 121.619 89.8599 117.89C89.5199 116.05 89.2399 114.21 88.9799 112.35L88.8899 111.69C88.9899 112.44 88.8899 111.69 88.8899 111.55C88.8299 111.11 88.7799 110.66 88.7199 110.22C88.5999 109.22 88.4899 108.29 88.3799 107.33C87.4799 99.6301 86.7899 91.9 86.6099 84.14C86.5199 80.28 86.6099 76.42 86.7699 72.56C86.8799 70.56 87.0299 68.65 87.2299 66.71C87.3299 65.81 87.4399 64.91 87.5499 64.02C87.4599 64.73 87.5499 63.64 87.6299 63.43L87.8699 61.8801C88.4842 58.0351 89.346 54.2339 90.4499 50.5C90.9899 48.7001 91.5799 46.91 92.2399 45.16C92.5299 44.39 92.8299 43.63 93.1499 42.87C92.7999 43.71 93.2099 42.73 93.3499 42.43C93.4899 42.1301 93.6999 41.65 93.8799 41.26C95.2167 38.3979 96.7608 35.6372 98.4999 33C98.9066 32.38 99.3266 31.7701 99.7599 31.17C99.9799 30.8567 100.2 30.5567 100.42 30.2701C100.6 30.0201 101.26 29.17 100.72 29.85C101.72 28.59 102.72 27.35 103.82 26.16C105.925 23.845 108.205 21.6953 110.64 19.73C110.77 19.62 111.64 18.9801 111.19 19.2901L111.75 18.8701C112.43 18.3701 113.13 17.87 113.83 17.41C115.09 16.58 116.37 15.79 117.69 15.07C119.01 14.35 120.46 13.65 121.88 13.02C121.16 13.34 121.77 13.07 122.13 12.93L123.13 12.55C123.86 12.28 124.59 12.03 125.33 11.8C126.805 11.3425 128.304 10.9653 129.82 10.67C130.52 10.53 131.22 10.42 131.93 10.31C132.45 10.23 131.65 10.31 131.62 10.31L132.15 10.25L133.4 10.13C134.967 10.0134 136.54 9.98671 138.11 10.05C139.301 10.0422 140.441 9.56556 141.283 8.72334C142.125 7.88113 142.602 6.7411 142.61 5.55005C142.587 4.36379 142.105 3.23253 141.266 2.39356C140.427 1.55459 139.296 1.07309 138.11 1.05005V1.11005Z" fill="black"/>
<path d="M135 186.15C154.684 171.645 170.156 152.166 179.83 129.71C190.063 105.678 193.21 79.2215 188.9 53.46C186.458 38.6757 181.589 24.3966 174.49 11.2C173.88 10.1773 172.892 9.43536 171.74 9.13419C170.587 8.83302 169.363 8.99672 168.33 9.58999C167.317 10.2094 166.583 11.1962 166.281 12.3443C165.979 13.4923 166.133 14.7126 166.71 15.75C168.217 18.5367 169.62 21.38 170.92 24.28C171.1 24.68 171.27 25.07 171.44 25.47C171.44 25.47 172.03 26.82 171.67 25.98C171.95 26.65 172.22 27.32 172.49 27.98C173.077 29.46 173.64 30.9433 174.18 32.43C176.32 38.4071 178.031 44.5293 179.3 50.75C179.62 52.2967 179.91 53.8567 180.17 55.43C180.29 56.14 180.41 56.85 180.51 57.56C180.58 57.99 180.64 58.42 180.7 58.85C180.738 59.021 180.762 59.195 180.77 59.37C181.17 62.52 181.47 65.67 181.65 68.84C182.011 75.1719 181.917 81.5215 181.37 87.84C181.24 89.42 181.07 91 180.88 92.57C180.88 92.86 180.8 93.14 180.77 93.43C180.89 92.43 180.7 93.87 180.69 93.95C180.57 94.8 180.44 95.66 180.3 96.51C179.79 99.58 179.18 102.63 178.45 105.65C177.096 111.281 175.362 116.814 173.26 122.21C173.03 122.82 172.78 123.43 172.54 124.04L172.09 125.14C171.59 126.35 172.45 124.31 171.93 125.51C171.41 126.71 170.76 128.16 170.15 129.51C168.92 132.13 167.6 134.71 166.21 137.25C163.413 142.318 160.293 147.202 156.87 151.87C156.4 152.51 155.93 153.14 155.45 153.77C155.38 153.86 154.58 154.89 155.19 154.11L154.46 155.04C153.4 156.373 152.31 157.707 151.19 159.04C149.137 161.433 147 163.767 144.78 166.04C142.56 168.313 140.16 170.56 137.58 172.78C136.38 173.813 135.167 174.813 133.94 175.78L133.02 176.52L132.68 176.79C131.96 177.35 131.22 177.9 130.48 178.45C128.59 179.84 127.48 182.45 128.86 184.61C130.07 186.48 132.99 187.72 135.02 186.22L135 186.15Z" fill="black"/>
<path d="M165.64 11.16C178.813 25.0534 192.327 38.5867 206.18 51.76C210.14 55.52 214.14 59.2567 218.18 62.97L217.48 57.52C207.027 76.08 196.96 94.84 187.28 113.8C182.427 123.267 177.683 132.79 173.05 142.37C170.717 147.163 168.417 151.963 166.15 156.77C164.15 160.96 162.28 165.22 160.15 169.34C159.15 171.27 158.08 173.16 156.91 174.98C156.29 175.98 155.64 176.85 154.97 177.76C154.58 178.29 155.44 177.19 154.97 177.69L154.42 178.37L153.42 179.54C152.68 180.33 151.899 181.081 151.08 181.79L150.56 182.22C150.99 181.85 150.96 181.91 150.56 182.22C150.16 182.53 149.73 182.8 149.31 183.06C148.89 183.32 148.45 183.57 148 183.8C147.55 184.03 146.41 184.45 147.4 184.11C146.331 184.503 145.235 184.818 144.12 185.05C142.973 185.375 142 186.138 141.412 187.175C140.824 188.212 140.669 189.439 140.98 190.59C141.324 191.724 142.091 192.683 143.123 193.267C144.154 193.851 145.37 194.017 146.52 193.73C155.12 192.03 161.3 185.2 165.63 178C167.768 174.291 169.711 170.472 171.45 166.56C173.71 161.74 175.993 156.933 178.3 152.14C187.7 132.6 197.497 113.267 207.69 94.14C213.41 83.4 219.253 72.7334 225.22 62.14C225.707 61.2771 225.901 60.2794 225.773 59.2967C225.645 58.314 225.202 57.3994 224.51 56.69C210.47 43.7034 196.763 30.37 183.39 16.69C179.563 12.7234 175.767 8.7567 172 4.79003C171.149 3.95635 170.006 3.48938 168.815 3.48938C167.624 3.48938 166.48 3.95635 165.63 4.79003C164.81 5.64779 164.353 6.78857 164.353 7.97503C164.353 9.16149 164.81 10.3023 165.63 11.16H165.64Z" fill="black"/>
<path d="M164.6 383.88L166.28 417.27C166.297 418.251 166.627 419.2 167.223 419.979C167.818 420.759 168.648 421.327 169.59 421.6C171.36 422.01 173.88 421.39 174.67 419.54C177.637 412.517 181.492 405.903 186.14 399.86L177.92 396.4L175.46 409.63L184.13 412.02C184.904 407.351 184.516 402.563 183 398.08C182.78 397.336 182.377 396.659 181.829 396.111C181.281 395.563 180.604 395.16 179.86 394.94C179.094 394.72 178.283 394.711 177.512 394.913C176.741 395.115 176.039 395.522 175.48 396.09C170.588 401.921 166.275 408.214 162.6 414.88L170.82 415.95C170.69 415.24 170.57 414.52 170.47 413.81C170.47 413.61 170.32 412.73 170.4 413.33C170.4 413.01 170.32 412.69 170.28 412.33C170.11 410.81 169.99 409.33 169.92 407.76C169.782 404.787 169.828 401.808 170.06 398.84H161.06L161.55 402.84C161.82 405.09 163.05 406.94 165.45 407.26C167.45 407.53 170 406.26 170.38 404.03L175.61 373.56H166.94L169.24 387.16C169.61 389.36 172.17 390.66 174.18 390.39C175.251 390.24 176.232 389.712 176.947 388.901C177.662 388.091 178.064 387.051 178.08 385.97C178.548 377.424 178.572 368.859 178.15 360.31C178.136 359.229 177.735 358.188 177.02 357.377C176.304 356.566 175.321 356.038 174.25 355.89C173.175 355.736 172.08 355.979 171.171 356.574C170.262 357.168 169.6 358.073 169.31 359.12L167.13 370.53L175.97 371.73L176.02 356.45H167.02C167.253 359.384 167.297 362.33 167.15 365.27C167.07 366.7 166.95 368.13 166.78 369.55C166.78 369.63 166.66 370.48 166.71 370.14C166.76 369.8 166.6 370.85 166.58 370.95C166.45 371.74 166.31 372.52 166.16 373.3C165.72 375.61 166.81 378.3 169.3 378.84C170.45 379.132 171.669 378.969 172.701 378.384C173.734 377.798 174.5 376.837 174.84 375.7C175.56 373.34 176.353 371.007 177.22 368.7C177.46 368.07 177.7 367.45 177.95 366.82C178.06 366.55 178.17 366.27 178.29 365.99C178.41 365.71 178.54 365.38 178.35 365.83C178.84 364.66 179.35 363.5 179.9 362.36C182.016 357.831 184.441 353.454 187.16 349.26L178.77 346.98C178.77 347.25 178.72 347.52 178.69 347.78C178.76 347.25 178.75 347.24 178.69 347.78C178.63 348.32 178.47 348.78 178.32 349.34C178.17 349.9 178 350.34 177.83 350.86C177.66 351.38 177.63 351.36 177.83 350.86C177.75 351.04 177.67 351.22 177.58 351.4C177.124 352.292 176.617 353.157 176.06 353.99C175.75 354.4 175.75 354.42 176.06 354.04L175.55 354.65C175.19 355.05 174.82 355.43 174.44 355.81L181.96 360.18L185.83 342.04C186.31 339.8 185.19 336.98 182.69 336.5C179.478 335.823 176.159 335.83 172.95 336.519C169.74 337.208 166.711 338.564 164.06 340.5L170.67 343.19C170.94 344.59 170.51 342.91 170.67 342.74C170.56 343.39 170.56 343.47 170.67 342.97L170.76 342.65C170.92 342.18 170.88 342.22 170.64 342.79C170.74 342.59 170.84 342.39 170.95 342.2C171.053 342.005 171.17 341.818 171.3 341.64C170.96 342.05 170.9 342.14 171.11 341.89C171.32 341.64 171.65 341.33 171.94 341.07C171.03 341.89 172.15 341.07 172.27 340.95C172.56 340.79 172.46 340.83 171.94 341.06C172.147 340.983 172.357 340.916 172.57 340.86C173.07 340.76 172.99 340.76 172.34 340.86C172.563 340.845 172.787 340.845 173.01 340.86L169 334.23C168.291 335.836 167.475 337.392 166.56 338.89C166.1 339.64 165.61 340.37 165.1 341.09L164.66 341.69L164.47 341.93C164.29 342.16 164.1 342.38 163.91 342.61C163.297 343.251 162.883 344.056 162.718 344.927C162.553 345.799 162.644 346.699 162.98 347.52C163.318 348.334 163.887 349.031 164.618 349.524C165.349 350.016 166.209 350.283 167.09 350.29C178.728 349.903 190.046 346.382 199.85 340.1C200.867 339.484 201.604 338.497 201.906 337.348C202.208 336.198 202.052 334.976 201.47 333.94C200.02 331.69 197.63 331.32 195.31 332.33L164.52 345.69L169.97 352.76L183.92 342L177.56 335.63L165.74 345.41H172.1C172.72 346.13 171.82 344.91 171.71 344.71C172.07 345.38 171.71 344.66 171.61 344.32C171.556 344.133 171.513 343.942 171.48 343.75C171.42 343.42 171.48 343.5 171.48 343.98C171.48 343.46 171.48 342.98 171.56 342.42C171.95 339.42 168.38 337.42 165.86 338.08L160.43 339.59L162.82 348.27C163.31 348.11 163.2 348.09 162.5 348.21C162.99 348.21 162.88 348.21 162.14 348.15C161.52 347.86 161.42 347.84 161.85 348.09C161.35 347.68 161.29 347.65 161.66 347.99C162.25 348.54 161.3 347.34 161.87 348.3C162.02 348.55 162.43 349.67 162.09 348.63C162.571 350.497 163.172 352.331 163.89 354.12C165.76 358.12 170.69 360.43 174.74 358.07C177.2 356.64 178.49 354.16 179.66 351.69C179.9 351.19 180.14 350.69 180.4 350.2C180.57 349.87 181.33 349.02 181.33 348.68C181.33 349.33 180.63 349.42 181.15 348.96C181.46 348.68 182.21 348.18 180.99 349.03C181.85 348.43 180.1 349.29 180.76 349.03C181.76 348.7 179.76 349.03 180.55 349.03L176.05 344.53L176.8 378.53C176.812 379.512 177.14 380.463 177.734 381.245C178.328 382.026 179.157 382.596 180.1 382.87C181.056 383.098 182.059 383.022 182.97 382.653C183.88 382.284 184.653 381.639 185.18 380.81C186.58 378.764 187.509 376.432 187.9 373.984C188.291 371.535 188.134 369.031 187.44 366.65C186.21 362.41 179.95 362.32 178.76 366.65C175.947 376.863 172.653 386.923 168.88 396.83L177.72 398.02L178.05 383.89C178.04 382.806 177.639 381.762 176.921 380.95C176.202 380.138 175.215 379.612 174.14 379.47C171.78 379.16 170.05 380.58 169.21 382.7C167.127 388.072 165.72 393.681 165.02 399.4C164.72 401.6 166.95 403.55 168.92 403.82C169.993 403.967 171.083 403.721 171.989 403.127C172.895 402.534 173.556 401.633 173.85 400.59C176.244 391.972 177.785 383.14 178.45 374.22C178.63 371.99 176.61 370.08 174.55 369.8C173.477 369.644 172.384 369.885 171.476 370.478C170.568 371.071 169.908 371.975 169.62 373.02C167.442 383.234 166.648 393.694 167.26 404.12C167.276 404.999 167.546 405.855 168.038 406.584C168.529 407.313 169.221 407.885 170.03 408.23C170.847 408.586 171.753 408.687 172.628 408.521C173.504 408.356 174.309 407.93 174.94 407.3C177.783 404.074 179.809 400.212 180.85 396.04H172.17C172.4 396.95 172.59 397.86 172.76 398.78L172.84 399.25C172.84 398.9 172.84 398.88 172.84 399.25C172.84 399.62 172.94 400.18 172.97 400.64C173.085 402.43 173.055 404.225 172.88 406.01C172.882 406.996 173.206 407.954 173.804 408.738C174.402 409.521 175.24 410.088 176.19 410.35C178 410.76 180.42 410.12 181.27 408.28C181.741 407.38 181.986 406.38 181.986 405.365C181.986 404.35 181.741 403.35 181.27 402.45C180.438 400.892 179.032 399.72 177.35 399.18C173.94 398 170.63 400.07 168.6 402.69C165.291 407.068 163.39 412.348 163.15 417.83C162.93 421.83 168.15 423.63 170.83 421.01C174.232 417.622 176.844 413.524 178.48 409.01L169.8 406.62L167.8 419.91C167.46 422.16 168.18 424.28 170.41 425.22C171.411 425.646 172.532 425.694 173.566 425.356C174.599 425.017 175.475 424.315 176.03 423.38C176.68 422.194 176.933 420.831 176.753 419.491C176.573 418.151 175.969 416.903 175.03 415.93C174.188 415.035 173.114 414.39 171.928 414.067C170.742 413.744 169.49 413.755 168.31 414.1C167.165 414.493 166.129 415.151 165.286 416.019C164.444 416.888 163.818 417.944 163.46 419.1C163.067 420.378 162.954 421.725 163.13 423.05C163.14 423.207 163.14 423.364 163.13 423.52C163.145 423.007 163.288 422.505 163.546 422.061C163.805 421.618 164.171 421.246 164.61 420.98L166.88 420.37C170.26 419.97 171.17 423.9 170 425.95L168.39 427.56L168.48 427.51L166.2 428.13L165.29 428.03L161.98 423.7L162.14 429.9C162.14 431.094 162.614 432.238 163.458 433.082C164.302 433.926 165.447 434.4 166.64 434.4C167.833 434.4 168.978 433.926 169.822 433.082C170.666 432.238 171.14 431.094 171.14 429.9L171.36 424.1L162.98 426.38C163.099 426.57 163.206 426.767 163.3 426.97C163.2 427.03 163.11 426.12 163.16 426.66C163.212 427.045 163.303 427.423 163.43 427.79C163.34 427.79 163.36 426.69 163.37 427.61C163.37 427.78 163.37 427.95 163.37 428.12C163.37 428.59 163.37 429.06 163.37 429.52C163.28 431.23 163.01 432.93 163.06 434.64C163.034 436.889 163.659 439.098 164.86 441C165.547 441.955 166.328 442.839 167.19 443.64C167.32 443.79 167.46 443.93 167.61 444.06C168.09 444.42 167.36 443.53 167.61 444.06C167.7 444.24 167.81 444.41 167.91 444.58C167.6 444.04 167.85 444.43 167.91 444.81C167.97 445.19 168.1 446.27 168.05 445.41C168.05 445.89 168.11 446.41 168.12 446.85C168.12 448.02 168.12 449.19 168.12 450.36V457.57L168.06 472.24L168 488.65C168 489.844 168.474 490.988 169.318 491.832C170.162 492.676 171.307 493.15 172.5 493.15C173.693 493.15 174.838 492.676 175.682 491.832C176.526 490.988 177 489.844 177 488.65L177.12 458.81V451.36C177.219 448.84 177.132 446.317 176.86 443.81C176.498 441.313 175.308 439.01 173.48 437.27C173.176 436.909 172.841 436.574 172.48 436.27C171.99 435.92 172.73 436.76 172.48 436.27L172.21 435.84C171.71 435.04 172.28 436.02 172.21 436.01C172.125 435.811 172.065 435.603 172.03 435.39C172.03 435.23 171.98 435.05 171.93 434.9C171.76 434.43 171.93 435.77 171.93 434.9C172.04 430.46 173.02 425.81 170.62 421.75C168.22 417.69 162.4 419.63 162.23 424.02L162.01 429.82H171.01L170.85 423.62C170.821 422.643 170.487 421.699 169.895 420.921C169.304 420.143 168.484 419.569 167.55 419.28C163.81 417.78 160.69 421.92 161.62 425.28C161.81 426.047 162.172 426.76 162.679 427.365C163.186 427.97 163.825 428.451 164.547 428.771C165.269 429.092 166.054 429.243 166.843 429.213C167.633 429.183 168.404 428.974 169.1 428.6C170.195 427.885 171.049 426.856 171.552 425.649C172.055 424.442 172.183 423.111 171.92 421.83C171.92 421.32 171.92 421.38 171.83 422.03C171.97 421.55 171.92 421.59 171.69 422.15L171.84 421.86C171.44 422.31 171.41 422.37 171.75 422.01C169.4 424.14 166.84 421.22 168.12 418.74L176.34 422.2L178.34 408.91C178.69 406.6 177.76 403.96 175.2 403.38C174.05 403.093 172.834 403.259 171.803 403.843C170.771 404.428 170.004 405.386 169.66 406.52C169.57 406.78 169.47 407.04 169.37 407.3C169.56 406.86 169.54 406.89 169.37 407.37C169.2 407.85 169.02 408.12 168.83 408.49C168.417 409.29 167.967 410.07 167.48 410.83L166.66 412.03C166.12 412.79 167.01 411.66 166.34 412.43C165.67 413.2 165.06 413.88 164.34 414.56L172.02 417.75C172.02 417.4 172.02 417.05 172.09 416.75C172.16 416.45 172.24 415.83 172.09 416.49C172.21 415.8 172.34 415.11 172.52 414.49C172.692 413.813 172.899 413.146 173.14 412.49C173.14 412.42 173.7 411.21 173.32 412.01C173.47 411.7 173.61 411.38 173.77 411.07C174.072 410.444 174.406 409.833 174.77 409.24C174.95 408.95 175.15 408.66 175.35 408.37C175.82 407.67 175.15 408.49 175.49 408.18C175.737 407.968 175.968 407.737 176.18 407.49C176.18 407.74 175.1 407.93 175.65 407.83C176.39 407.69 174.41 407.83 173.98 407.58C172.72 406.86 172.62 405.12 173.25 403.77L181.63 406.04C182.009 401.906 181.671 397.738 180.63 393.72C179.55 389.47 173 389.4 171.95 393.72C171.754 394.538 171.517 395.346 171.24 396.14C171.24 396.24 170.79 397.26 171 396.78C171.21 396.3 170.67 397.44 170.6 397.58C170.25 398.26 169.86 398.93 169.44 399.58C169.21 399.93 168.97 400.27 168.71 400.58C169.17 399.97 168.47 400.85 168.36 400.98L176.04 404.16C175.735 399.237 175.755 394.3 176.1 389.38C176.19 388.17 176.29 386.96 176.42 385.75C176.49 385.11 176.56 384.47 176.64 383.82L176.76 382.82C177.12 380.33 177.56 377.87 178.07 375.41L169.23 374.22C169.035 378.166 168.625 382.099 168 386C167.27 390.12 166.32 394.21 165.2 398.24L174.04 399.44C173.97 399.93 174.04 399.53 174.04 399.27C174.04 399.01 174.13 398.66 174.18 398.36C174.29 397.68 174.42 397.01 174.55 396.36C174.8 395.09 175.1 393.82 175.43 392.56C176.097 390.046 176.915 387.575 177.88 385.16L169.04 383.96L168.71 398.09C168.715 399.174 169.114 400.219 169.831 401.032C170.548 401.845 171.535 402.37 172.61 402.51C173.681 402.645 174.766 402.396 175.671 401.806C176.575 401.216 177.241 400.325 177.55 399.29C181.33 389.39 184.623 379.33 187.43 369.11H178.8C178.91 369.5 179 369.89 179.1 370.28C179.35 371.28 179.15 369.73 179.1 370.67C179.1 371.07 179.1 371.47 179.1 371.87C179.1 372.27 179.1 372.41 179.05 372.67C179.11 372.21 179.12 372.14 179.05 372.47C178.98 372.8 178.89 373.26 178.78 373.64C178.78 373.78 178.34 374.89 178.53 374.43C178.72 373.97 178.22 375.03 178.15 375.15C177.918 375.557 177.664 375.95 177.39 376.33L185.78 378.6L185.03 344.6C185.012 343.412 184.532 342.278 183.692 341.438C182.852 340.598 181.718 340.118 180.53 340.1C176.96 340.1 174.35 342.45 172.72 345.45C172.15 346.45 171.72 347.58 171.15 348.64C170.88 349.18 170.58 349.64 170.27 350.2C169.71 351.15 170.86 349.68 170.35 350.11C170.2 350.24 169.54 350.81 170.26 350.29C170.98 349.77 170.16 350.29 170.1 350.29C170.91 349.98 171.1 349.89 170.67 350.03C170.24 350.17 170.43 350.1 171.31 349.96C170.25 350.03 172.19 350.26 171.31 349.96C171.93 350.25 172.03 350.27 171.62 350.03C172.11 350.43 172.23 350.51 171.99 350.27C171.75 350.03 171.85 350.14 172.23 350.61C172.114 350.439 172.007 350.262 171.91 350.08C171.805 349.896 171.711 349.706 171.63 349.51C171.87 350.09 171.9 350.14 171.72 349.67C171.51 348.88 171.27 348.1 171.07 347.3C169.92 342.82 165.66 337.48 160.4 339.53C158.21 340.39 156.45 342.59 157.25 345.07C157.586 346.21 158.351 347.174 159.385 347.76C160.419 348.346 161.64 348.508 162.79 348.21L168.23 346.7L162.53 342.36C162.369 344.053 162.566 345.761 163.106 347.373C163.647 348.986 164.521 350.467 165.67 351.72C167.35 353.72 170.29 353.16 172.03 351.72L183.92 342C185.75 340.49 185.6 337.17 183.92 335.63C181.92 333.81 179.55 334.08 177.56 335.63L163.64 346.4C161.88 347.77 162.07 350.72 163.29 352.3C164.77 354.21 167 354.37 169.1 353.46L199.89 340.1L195.35 332.33C193.147 333.753 190.855 335.036 188.49 336.17L186.7 336.98C186.02 337.28 187.25 336.77 186.56 337.04L185.56 337.44C184.33 337.91 183.1 338.35 181.84 338.74C179.409 339.506 176.93 340.114 174.42 340.56C173.77 340.68 173.13 340.78 172.48 340.88C173.13 340.78 172.48 340.88 172.16 340.88L171.29 340.98C169.91 341.12 168.53 341.21 167.14 341.26L170.33 348.94C172.96 345.858 175.148 342.425 176.83 338.74C177.212 338.044 177.412 337.264 177.412 336.47C177.412 335.677 177.212 334.896 176.83 334.2C176.429 333.524 175.86 332.963 175.179 332.573C174.497 332.182 173.726 331.974 172.94 331.97C171.325 331.962 169.727 332.31 168.262 332.99C166.796 333.669 165.498 334.663 164.46 335.9C163.315 337.231 162.489 338.805 162.045 340.504C161.601 342.202 161.552 343.979 161.9 345.7C162.41 348.33 166.28 350.1 168.51 348.39C169.467 347.657 170.488 347.011 171.56 346.46C171.56 346.46 172.62 345.97 172.12 346.19C171.62 346.41 172.72 345.97 172.7 345.98C173.27 345.78 173.85 345.61 174.43 345.46C175.01 345.31 175.61 345.2 176.21 345.11C175.77 345.18 175.77 345.16 176.21 345.11L177.21 345.06C177.81 345.06 178.41 345.06 179.01 345.06L179.81 345.13C178.81 345.04 180.07 345.19 180.2 345.22L177.06 339.68L173.19 357.83C172.925 358.788 172.985 359.806 173.36 360.727C173.735 361.647 174.404 362.417 175.263 362.917C176.121 363.417 177.121 363.619 178.107 363.491C179.092 363.363 180.007 362.913 180.71 362.21C184.806 358.15 187.293 352.743 187.71 346.99C187.707 346.006 187.384 345.05 186.788 344.266C186.192 343.483 185.358 342.916 184.41 342.65C183.453 342.417 182.447 342.491 181.535 342.863C180.623 343.234 179.851 343.884 179.33 344.72C173.619 353.589 169.167 363.207 166.1 373.3L174.78 375.7C176.047 369.394 176.458 362.946 176 356.53C175.82 354.19 174.06 351.91 171.5 352.03C170.313 352.051 169.18 352.531 168.341 353.371C167.501 354.21 167.021 355.343 167 356.53L166.95 371.81C166.958 372.892 167.357 373.935 168.074 374.746C168.791 375.556 169.777 376.08 170.85 376.22C171.923 376.378 173.017 376.138 173.926 375.545C174.834 374.952 175.494 374.046 175.78 373L177.97 361.59L169.13 360.39C169.552 368.939 169.528 377.504 169.06 386.05L177.9 384.85L175.59 371.25C175.33 370.301 174.765 369.463 173.983 368.865C173.201 368.267 172.244 367.942 171.26 367.94C169.41 368.02 167.26 369.26 166.92 371.25L161.69 401.72L170.53 402.92L170.04 398.92C169.76 396.59 168.17 394.3 165.54 394.42C164.355 394.448 163.227 394.931 162.389 395.769C161.551 396.607 161.068 397.735 161.04 398.92C160.579 405.426 160.941 411.965 162.12 418.38C162.365 419.226 162.851 419.982 163.519 420.556C164.188 421.13 165.009 421.497 165.882 421.611C166.755 421.726 167.643 421.584 168.436 421.201C169.23 420.819 169.895 420.214 170.35 419.46C172.05 416.36 173.88 413.33 175.87 410.41C176.87 408.98 177.87 407.57 178.87 406.18L179.69 405.11C179.25 405.68 180.06 404.65 180.1 404.59C180.66 403.89 181.23 403.19 181.81 402.5L174.29 400.5C174.603 401.347 174.867 402.212 175.08 403.09C175.18 403.53 175.27 403.97 175.36 404.42C175.63 405.81 175.31 403.59 175.45 405.01C175.53 405.91 175.58 406.81 175.57 407.71C175.57 408.09 175.57 408.46 175.57 408.84C175.57 409.01 175.4 410.49 175.57 409.66C175.24 411.98 176.13 414.61 178.71 415.2C180.92 415.7 183.78 414.53 184.24 412.05L186.7 398.82C186.968 397.77 186.854 396.66 186.377 395.687C185.901 394.714 185.094 393.942 184.1 393.51C181.87 392.57 179.87 393.51 178.48 395.35C173.797 401.379 169.906 407.983 166.9 415L175.28 417.28L173.6 383.89C173.577 382.704 173.095 381.573 172.256 380.734C171.418 379.895 170.286 379.413 169.1 379.39C166.76 379.5 164.47 381.39 164.6 383.89V383.88Z" fill="black"/>
<path d="M159.6 417.12C156.919 428.473 155.441 440.077 155.19 451.74C155.19 452.933 155.664 454.078 156.508 454.922C157.352 455.766 158.496 456.24 159.69 456.24C160.883 456.24 162.028 455.766 162.872 454.922C163.716 454.078 164.19 452.933 164.19 451.74C164.305 446.193 164.706 440.656 165.39 435.15C165.39 435.07 165.51 434.23 165.47 434.56C165.43 434.89 165.54 434.04 165.55 433.96C165.65 433.24 165.76 432.53 165.87 431.81C166.08 430.46 166.3 429.12 166.55 427.81C167.05 425.043 167.627 422.29 168.28 419.55C168.597 418.399 168.444 417.169 167.854 416.131C167.264 415.093 166.286 414.332 165.135 414.015C163.984 413.698 162.754 413.851 161.716 414.441C160.678 415.031 159.917 416.009 159.6 417.16V417.12Z" fill="black"/>
<path d="M177.5 411.41C181.849 396.265 184.11 380.597 184.22 364.84C184.22 363.647 183.746 362.502 182.902 361.658C182.058 360.814 180.913 360.34 179.72 360.34C178.526 360.34 177.382 360.814 176.538 361.658C175.694 362.502 175.22 363.647 175.22 364.84C175.22 368.673 175.067 372.5 174.76 376.32C174.62 378.16 174.45 379.98 174.26 381.81C174.15 382.76 174.04 383.72 173.92 384.67L173.83 385.38C173.77 385.9 173.75 386.01 173.83 385.73C173.91 385.45 173.83 385.57 173.83 386.08C173.83 386.32 173.76 386.56 173.72 386.79C172.593 394.296 170.956 401.717 168.82 409C168.663 409.57 168.62 410.165 168.693 410.752C168.766 411.339 168.954 411.905 169.246 412.419C169.538 412.933 169.929 413.384 170.395 413.747C170.862 414.111 171.395 414.378 171.965 414.535C172.535 414.692 173.13 414.735 173.717 414.662C174.303 414.589 174.87 414.401 175.384 414.109C175.898 413.817 176.349 413.426 176.712 412.96C177.075 412.493 177.343 411.96 177.5 411.39V411.41Z" fill="black"/>
<path d="M176.52 373.17L175.52 385.17C175.15 389.57 181.98 391.36 183.9 387.44L190.81 373.39L182.58 369.92C180.611 377.737 177.647 385.268 173.76 392.33L182.14 394.6C182.206 391.326 182.615 388.069 183.36 384.88C184.126 381.443 185.183 378.078 186.52 374.82L177.68 373.62C177.58 374.62 177.47 375.57 177.35 376.53C177.29 377.02 177.23 377.53 177.16 377.99C177.25 377.3 177.05 378.75 177.05 378.73C176.783 380.663 176.477 382.59 176.13 384.51C175.45 388.36 174.63 392.19 173.71 395.98C173.553 396.55 173.51 397.145 173.583 397.732C173.656 398.319 173.844 398.885 174.136 399.399C174.428 399.913 174.819 400.364 175.285 400.727C175.752 401.091 176.285 401.358 176.855 401.515C177.425 401.672 178.02 401.715 178.607 401.642C179.193 401.569 179.76 401.381 180.274 401.089C180.788 400.797 181.239 400.406 181.602 399.94C181.965 399.473 182.233 398.94 182.39 398.37L188.94 372.37C189.214 371.319 189.101 370.205 188.622 369.23C188.143 368.255 187.329 367.485 186.33 367.06C184.47 366.28 181.6 366.84 180.71 368.9C178.595 373.661 177.44 378.792 177.31 384C177.324 385.081 177.726 386.12 178.443 386.929C179.159 387.739 180.142 388.264 181.213 388.409C182.284 388.554 183.371 388.31 184.277 387.721C185.184 387.133 185.848 386.238 186.15 385.2C189.465 374.544 191.785 363.604 193.08 352.52C193.29 350.79 191.78 349.03 190.32 348.41C189.499 348.064 188.595 347.968 187.72 348.134C186.845 348.299 186.038 348.719 185.4 349.34C180.575 354.127 176.332 359.467 172.76 365.25L181 368.7L185.52 350.42C186.31 347.24 183.36 343.79 179.98 344.89C176.118 346.13 172.591 348.237 169.67 351.05L174.05 349.89C173.23 349.63 174.96 350.38 174.32 349.99C174.95 350.51 175.1 350.61 174.78 350.3L175.25 350.9C174.7 350.13 175.49 351.1 175.36 351.25C175.23 351.4 175.14 349.9 175.25 350.99C175.35 351.87 175.25 350.99 175.25 350.76C175.25 350.53 175.25 350.26 175.25 350.01C175.25 349.48 175.25 348.95 175.32 348.42C175.47 345.71 175.5 342.93 174.14 340.49C173.115 338.761 171.488 337.472 169.57 336.87C168.59 336.591 167.585 336.411 166.57 336.33C166.14 336.28 165.49 336.12 166.27 336.33C165.91 336.24 165.55 336.18 165.19 336.08C164.83 335.98 164.49 335.86 164.19 335.74C165.19 336.07 164.14 335.74 163.92 335.58C163.7 335.42 163.27 335.23 162.92 335.03C162.57 334.83 162.04 334.37 162.63 334.86C162.024 334.337 161.456 333.773 160.93 333.17C160.72 332.92 160.77 332.98 161.07 333.35C160.96 333.2 160.86 333.05 160.76 332.89C160.53 332.52 160.32 332.15 160.12 331.76C159.612 330.911 158.842 330.251 157.925 329.879C157.008 329.507 155.996 329.445 155.04 329.7C151.04 330.8 149.98 335.09 151.74 338.51C153.13 341.22 155.74 342.51 158.27 343.86C163.65 346.72 169.09 349.457 174.59 352.07L176.87 343.69L175.4 343.54C175.07 343.54 175.13 343.54 175.56 343.54L174.73 343.4C173.9 343.26 173.08 343.09 172.26 342.9C170.43 342.434 168.63 341.856 166.87 341.17C166.57 341.05 166.61 341.06 166.98 341.17L166.21 340.83L165.08 340.28C164.27 339.87 163.47 339.43 162.69 338.96C161.91 338.49 161.14 337.96 160.4 337.48C160.05 337.24 159.71 336.99 159.4 336.74C160.09 337.26 158.79 336.23 158.67 336.13L154.29 343.65C154.7 343.77 155.1 343.89 155.49 344.03C155.88 344.17 156.7 344.32 155.59 344.03C156.294 344.283 156.965 344.618 157.59 345.03C158.805 345.717 159.974 346.482 161.09 347.32L161.87 347.91C160.93 347.19 161.93 347.96 162.12 348.12C162.68 348.56 163.23 349.02 163.78 349.47C164.92 350.42 166.04 351.37 167.19 352.3C172.09 356.3 177.65 359.93 184.25 359.44C185.128 359.425 185.983 359.156 186.712 358.666C187.441 358.177 188.013 357.487 188.36 356.68C188.719 355.862 188.823 354.954 188.657 354.076C188.491 353.198 188.063 352.391 187.43 351.76L177.68 343.76C176.87 343.1 176.02 342.47 175.26 341.76L174.87 341.37C174.65 341.13 174.69 341.2 175.01 341.58C174.62 340.49 175.24 342.65 175.11 343.14C174.26 344.36 174.11 344.68 174.62 344.14C174.12 344.5 174.09 344.56 174.51 344.29C175.23 343.79 173.76 344.49 174.67 344.22C175.58 343.95 176.53 343.63 177.47 343.36C181.423 342.2 185.423 341.233 189.47 340.46C191.47 340.07 193.47 339.72 195.54 339.46L196.25 339.36H196.46L197.87 339.19C198.97 339.06 200.07 338.95 201.17 338.85L198.9 330.46C198.389 330.823 197.858 331.157 197.31 331.46C197 331.64 196.68 331.79 196.37 331.96C195.67 332.34 196.53 331.96 196.08 332.09C195.63 332.22 194.89 332.51 194.27 332.67L193.44 332.86C192.14 333.16 194.3 332.8 192.96 332.94L197.3 338.64C196.92 339.64 197.3 338.64 197.43 338.43C197.56 338.22 197.79 337.83 197.99 337.53C197.42 338.39 197.99 337.53 198.18 337.36C198.37 337.19 199.26 336.36 198.78 336.77C198.3 337.18 199.23 336.5 199.35 336.43C199.47 336.36 200.49 335.83 199.91 336.1C199.33 336.37 200.39 335.95 200.53 335.91C200.67 335.87 202.07 335.65 200.89 335.78L196.39 331.28C196.441 331.872 196.458 332.466 196.44 333.06C196.44 333.32 196.44 333.59 196.44 333.85C196.44 333.95 196.33 334.78 196.44 334.23C196.55 333.68 196.35 334.68 196.32 334.8C196.29 334.92 196.21 335.31 196.14 335.57C195.99 336.15 195.77 336.69 195.6 337.26C195.43 337.83 195.9 336.69 195.6 337.26C195.48 337.5 195.37 337.74 195.25 337.97C194.98 338.5 194.68 338.97 194.36 339.51L193.91 340.15C194.15 339.8 194.14 339.88 193.91 340.15C193.47 340.65 193.02 341.15 192.54 341.58L200.06 345.96L201.52 340.21C201.82 339.06 201.66 337.838 201.074 336.803C200.487 335.769 199.521 335.004 198.38 334.67C197.23 334.389 196.016 334.559 194.988 335.144C193.959 335.73 193.194 336.688 192.85 337.82C192.79 337.96 192.15 339.52 192.48 338.73C192.26 339.26 192.03 339.78 191.79 340.31C191.37 341.22 190.93 342.12 190.48 343.02C189.5 344.933 188.433 346.8 187.28 348.62C186.75 349.47 186.19 350.31 185.62 351.13C185.29 351.6 184.96 352.07 184.62 352.53C184.53 352.65 183.54 353.98 184.03 353.34C182.72 355.04 181.3 356.67 179.84 358.24L187.36 362.62C187.501 361.402 187.715 360.193 188 359C188.18 358.4 188.38 357.8 188.59 357.21C188.69 356.94 188.8 356.68 188.9 356.42C189.16 355.71 188.46 357.34 189.02 356.15C189.53 355.072 190.094 354.021 190.71 353C191.04 352.46 191.39 351.94 191.71 351.42C191.77 351.34 192.43 350.47 192.12 350.87L192.56 350.34L185.04 345.96L183.33 353.32C183.012 354.471 183.164 355.701 183.753 356.74C184.341 357.779 185.319 358.542 186.47 358.86C187.621 359.178 188.851 359.026 189.89 358.437C190.929 357.849 191.692 356.871 192.01 355.72L194.84 347.81C195.118 346.759 195.008 345.643 194.529 344.668C194.049 343.692 193.234 342.922 192.232 342.5C191.231 342.077 190.11 342.031 189.077 342.369C188.044 342.707 187.168 343.407 186.61 344.34C183.72 349 186.45 355.91 191.88 357.11C197.99 358.46 203.56 352.39 201.88 346.41C201.03 343.41 196.56 341.71 194.35 344.41L188.35 351.72L195.41 352.63C195.31 352.45 194.96 351.45 195.16 352.19L194.89 351.19C194.73 350.63 194.83 352.04 194.89 350.93C194.89 350.71 195.06 349.54 194.89 350.46C195.32 348.15 194.26 345.46 191.75 344.92C190.601 344.623 189.381 344.784 188.349 345.37C187.317 345.957 186.554 346.921 186.22 348.06C186.01 348.88 185.77 349.68 185.49 350.47C185.35 350.86 185.21 351.26 185.04 351.64C185.4 350.81 184.83 352.05 184.81 352.1C184.44 352.85 184.03 353.58 183.59 354.29C183.41 354.59 183.22 354.88 183.02 355.17C182.92 355.31 182.08 356.45 182.61 355.78L190.13 360.16C190.559 358.04 191.1 355.944 191.75 353.88C192.103 352.78 192.483 351.69 192.89 350.61C193.09 350.07 193.31 349.54 193.53 349.01C193.21 349.77 193.77 348.44 193.84 348.29C195.652 344.281 197.881 340.473 200.49 336.93L192.1 334.66C192.175 335.589 192.175 336.522 192.1 337.45C192.16 336.45 192.05 337.66 192.01 337.82C191.913 338.277 191.789 338.728 191.64 339.17C191.58 339.36 191.51 339.55 191.44 339.74C191.65 339.28 191.65 339.29 191.44 339.74C191.23 340.19 191.08 340.46 190.88 340.8C190.68 341.14 190.46 341.48 190.23 341.8C190.76 341.02 189.79 342.28 189.66 342.42L197.18 346.8L199.4 340.14L190.72 337.74C190.179 339.703 189.535 341.635 188.79 343.53L188.53 344.16C188.7 343.78 188.67 343.84 188.46 344.33C188.25 344.82 188.09 345.16 187.9 345.57C187.45 346.57 186.97 347.47 186.48 348.4L194.7 351.86C197.471 344.069 201.2 336.652 205.8 329.78L198.03 325.23C197.307 326.531 196.505 327.786 195.63 328.99C195.63 329.06 194.77 330.08 195.35 329.37C195.14 329.63 194.93 329.9 194.71 330.16C194.23 330.73 193.71 331.28 193.22 331.82C192.197 332.903 191.108 333.921 189.96 334.87L189.46 335.27L188.95 335.65C188.29 336.13 187.61 336.58 186.95 337.01L193.1 338.63C193.46 339.42 193.03 338.3 192.98 338.12C192.902 337.85 192.839 337.577 192.79 337.3C192.79 337.73 192.85 337.78 192.79 337.45C192.73 337.12 192.79 336.59 192.79 336.18C192.79 335.77 192.79 335.9 192.79 336.33C192.79 336.06 192.9 335.78 192.97 335.51C193.192 334.651 193.158 333.745 192.872 332.904C192.586 332.064 192.061 331.325 191.36 330.78C190.646 330.253 189.796 329.939 188.911 329.877C188.025 329.815 187.14 330.007 186.36 330.43C177.401 334.365 168.969 339.404 161.26 345.43C159.49 346.8 159.69 349.76 160.91 351.34C162.39 353.26 164.61 353.39 166.71 352.5L201.71 337.59L197.17 329.82L176.32 339.3L181.77 346.36C183 345.01 184.28 343.71 185.63 342.48C186.31 341.87 187.01 341.27 187.71 340.69C187.84 340.59 188.97 339.69 188.29 340.23L189.29 339.47C192.261 337.344 195.441 335.524 198.78 334.04L192.17 328.95C192.17 329.05 191.71 330.08 191.89 329.67C191.804 329.833 191.728 329.999 191.66 330.17C191.34 330.85 191.01 331.53 190.66 332.17C190 333.44 189.26 334.67 188.48 335.87C187.982 336.729 187.78 337.729 187.907 338.714C188.033 339.699 188.481 340.615 189.18 341.32C189.898 342 190.814 342.435 191.794 342.563C192.775 342.691 193.772 342.504 194.64 342.03C198.662 339.813 202.092 336.661 204.64 332.84C205.189 331.899 205.373 330.789 205.16 329.72C204.946 328.652 204.348 327.698 203.48 327.04C202.619 326.378 201.548 326.05 200.465 326.114C199.381 326.178 198.357 326.631 197.58 327.39C196.558 328.372 195.752 329.555 195.214 330.865C194.675 332.176 194.415 333.584 194.45 335C194.54 338.59 198.16 340.37 201.22 338.89C205.486 336.817 208.931 333.369 211 329.1L202.78 325.63C202.62 326.163 202.45 326.683 202.27 327.19C202.18 327.45 202.08 327.7 201.98 327.96C201.88 328.22 201.78 328.43 201.98 328.02C201.501 329.077 200.967 330.109 200.38 331.11C200.1 331.577 199.81 332.037 199.51 332.49L199.04 333.16C199.04 333.23 198.5 333.89 198.78 333.53C199.06 333.17 198.54 333.81 198.49 333.87C198.44 333.93 198.14 334.29 197.96 334.49C197.547 334.95 197.127 335.4 196.7 335.84L204.22 337.84C204.36 338.84 204.22 337.69 204.22 337.46C204.22 337.07 204.17 336.67 204.16 336.28C204.146 335.489 204.173 334.698 204.24 333.91C204.24 333.57 204.39 332.72 204.24 333.53C204.3 333.143 204.37 332.753 204.45 332.36C204.619 331.519 204.832 330.688 205.09 329.87C205.21 329.49 205.34 329.12 205.48 328.74L205.69 328.19C205.52 328.59 205.49 328.65 205.63 328.35C205.98 327.64 206.31 326.93 206.7 326.24C207.09 325.55 207.57 324.92 207.99 324.24C208.18 323.98 208.14 324.02 207.88 324.36L208.26 323.9C208.56 323.54 208.86 323.2 209.18 322.9L204.84 324C204.168 323.851 203.57 323.467 203.156 322.917C202.742 322.367 202.537 321.687 202.58 321C202.52 320.25 202.44 321.3 202.44 321.46C202.33 321.78 202.39 321.66 202.61 321.11C202.49 321.34 202.37 321.57 202.24 321.8L201.52 323.11L198.67 328.32L192.61 339.39L180.61 361.33C180.078 362.275 179.904 363.379 180.12 364.442C180.336 365.504 180.928 366.453 181.786 367.115C182.645 367.777 183.713 368.107 184.796 368.046C185.878 367.984 186.902 367.535 187.68 366.78L189.94 364.2L182.42 359.82C182.006 362.319 181.336 364.769 180.42 367.13C180.42 367.2 180.07 367.98 180.24 367.59C180.41 367.2 180.06 367.98 180.03 368.05C179.76 368.64 179.47 369.22 179.17 369.79C178.559 370.936 177.892 372.051 177.17 373.13L185.39 376.6C185.583 375.605 185.826 374.62 186.12 373.65C186.25 373.23 186.39 372.82 186.53 372.41L186.84 371.6C186.7 371.94 186.69 371.97 186.84 371.68C187.677 369.905 188.681 368.214 189.84 366.63L182.77 367.54C183.13 367.92 182.91 367.74 182.77 367.44C182.89 367.64 183.02 367.84 183.13 368.04C183.41 368.52 183.13 368.25 183.13 367.93C183.13 368.08 183.5 369.01 183.29 368.36C183.08 367.71 183.29 369.62 183.29 368.91C183.29 368.2 183.29 369.01 183.22 369.18C183.15 369.35 183.04 369.73 182.93 370.01L191.61 372.4L193.18 365.81C193.469 364.758 193.366 363.636 192.889 362.654C192.413 361.672 191.596 360.897 190.591 360.473C189.585 360.048 188.46 360.004 187.424 360.347C186.388 360.691 185.512 361.399 184.96 362.34C184.429 363.269 183.852 364.17 183.23 365.04L182.72 365.66C182.41 366.01 182.1 366.36 181.78 366.66C181.089 367.384 180.358 368.069 179.59 368.71L178.97 369.22C179.35 368.92 179.33 368.92 178.91 369.22C178.49 369.52 178.03 369.82 177.58 370.11L184.19 375.19C184.31 374.73 184.45 374.29 184.6 373.83C184.25 374.89 184.77 373.53 184.9 373.3C185.132 372.888 185.389 372.491 185.67 372.11C185.04 372.98 185.84 371.97 186 371.8C186.16 371.63 186.6 371.23 186.91 370.95C186.11 371.68 187.23 370.75 187.45 370.62C187.85 370.371 188.268 370.15 188.7 369.96C187.7 370.43 189.07 369.88 189.3 369.82L183.6 365.48L184.02 371.83C184.036 372.616 184.255 373.384 184.655 374.06C185.056 374.735 185.625 375.296 186.307 375.687C186.988 376.077 187.759 376.285 188.545 376.289C189.331 376.293 190.104 376.094 190.79 375.71C193.167 374.403 195.237 372.603 196.86 370.429C198.483 368.256 199.622 365.76 200.2 363.11C200.431 362.16 200.348 361.16 199.965 360.26C199.582 359.361 198.918 358.609 198.073 358.116C197.228 357.624 196.246 357.418 195.275 357.529C194.303 357.639 193.393 358.061 192.68 358.73C190.183 360.957 188.253 363.748 187.05 366.87H195.73C195.391 365.814 195.131 364.734 194.95 363.64C195.07 364.38 194.89 362.95 194.89 362.94C194.84 362.31 194.83 361.68 194.83 361.04C194.808 360.142 194.52 359.271 194.004 358.536C193.488 357.801 192.765 357.236 191.928 356.911C191.091 356.585 190.176 356.515 189.299 356.709C188.422 356.903 187.622 357.352 187 358C182.494 362.41 179.278 367.966 177.7 374.07L186.54 375.26C186.54 375.01 186.81 373.48 186.54 374.56C186.62 374.19 186.69 373.82 186.79 373.45C186.89 373.08 187.06 372.6 187.2 372.18C187.34 371.76 187.29 371.94 187.12 372.37L187.46 371.69C187.64 371.36 187.84 371.03 188.05 370.69C188.26 370.35 188.33 370.27 188.49 370.06C188.17 370.47 188.18 370.48 188.49 370.06C188.8 369.64 189.01 369.5 189.29 369.24L189.86 368.73C189.44 369.04 189.44 369.04 189.86 368.73L183.24 363.64C181.458 371.314 178.474 378.658 174.4 385.4L182.63 386.47L180.63 372.15C180.39 370.43 178.43 369.15 176.89 368.93C176.013 368.796 175.117 368.929 174.316 369.31C173.516 369.692 172.848 370.305 172.4 371.07C171.224 373.638 169.888 376.13 168.4 378.53C168.07 379.06 167.71 379.59 167.35 380.1C167.15 380.39 166.95 380.67 166.73 380.95C167.12 380.45 166.73 380.95 166.52 381.18C165.62 382.25 164.58 383.18 163.59 384.13C163.11 384.6 164.4 383.57 163.44 384.25C163.23 384.4 163.02 384.55 162.8 384.69C162.263 385.056 161.706 385.39 161.13 385.69L160.26 386.12C159.8 386.34 160.89 385.92 160.08 386.17C159.47 386.36 158.87 386.58 158.24 386.73C157.93 386.8 157.62 386.84 157.31 386.92C156.66 387.07 158.36 386.86 157.19 386.92C156.564 386.955 155.936 386.955 155.31 386.92C155.06 386.92 154.81 386.92 154.56 386.85C155.56 386.98 154.69 386.85 154.47 386.79C153.786 386.631 153.117 386.414 152.47 386.14C150.28 385.24 147.47 387.14 146.93 389.28C146.33 391.91 147.74 393.85 150.07 394.82C156.07 397.31 163.38 395.47 168.41 391.67C173.86 387.55 177.24 381.67 180.11 375.61L171.89 374.53L174 388.89C174.23 390.61 176.2 391.89 177.74 392.11C178.617 392.232 179.51 392.093 180.308 391.711C181.107 391.328 181.775 390.72 182.23 389.96C186.634 382.516 189.916 374.462 191.97 366.06C192.195 365.201 192.162 364.294 191.876 363.453C191.59 362.612 191.063 361.874 190.36 361.33C189.659 360.776 188.807 360.445 187.915 360.381C187.024 360.317 186.133 360.522 185.36 360.97C183.039 362.573 181.124 364.697 179.768 367.171C178.412 369.644 177.653 372.401 177.55 375.22C177.37 380.3 185.13 381.32 186.39 376.42C186.72 375.15 187.15 373.93 187.59 372.7C187.84 372 187.15 373.62 187.7 372.45L188.05 371.7C188.36 371.09 188.68 370.48 189.05 369.88C189.653 368.813 190.321 367.785 191.05 366.8C190.56 367.44 191.15 366.7 191.25 366.58C191.35 366.46 191.69 366.06 191.92 365.81C192.38 365.3 192.86 364.81 193.35 364.33L185.67 361.14C185.654 363.926 186.065 366.699 186.89 369.36C187.167 370.301 187.738 371.129 188.518 371.722C189.299 372.316 190.249 372.645 191.23 372.66C192.204 372.621 193.143 372.283 193.919 371.693C194.695 371.103 195.272 370.288 195.57 369.36C195.4 369.78 195.44 369.66 195.57 369.36L195.95 368.64C196.25 368.11 196.59 367.64 196.95 367.11C197.31 366.58 196.53 367.53 196.95 367.11C197.14 366.93 197.31 366.71 197.49 366.51C197.908 366.074 198.348 365.66 198.81 365.27L191.29 360.89C191.195 361.379 191.075 361.863 190.93 362.34C190.86 362.55 190.24 363.98 190.71 363.02C190.287 363.855 189.813 364.664 189.29 365.44C189.1 365.7 189.15 365.64 189.43 365.27C189.27 365.47 189.1 365.66 188.93 365.84C188.597 366.21 188.243 366.56 187.87 366.89L187.3 367.38C187.71 367.06 187.71 367.04 187.3 367.38C186.89 367.72 186.46 367.91 186.02 368.15L192.79 372.04L192.37 365.69C192.36 365.001 192.194 364.323 191.884 363.708C191.574 363.092 191.128 362.555 190.58 362.137C190.032 361.719 189.396 361.431 188.72 361.295C188.045 361.158 187.347 361.177 186.68 361.35C183.928 362.132 181.429 363.619 179.429 365.664C177.429 367.709 175.999 370.242 175.28 373.01C174.38 376.67 178.47 380.27 181.9 378.09C186.298 375.324 189.949 371.519 192.53 367.01L184.3 363.54L182.85 370C182.553 371.149 182.714 372.369 183.3 373.401C183.886 374.433 184.851 375.197 185.99 375.53C188.6 376.13 190.58 374.73 191.53 372.39C192.215 370.479 192.349 368.414 191.918 366.43C191.486 364.447 190.506 362.624 189.09 361.17C186.93 358.87 183.66 359.84 182.02 362.08C179.392 365.684 177.59 369.822 176.74 374.2C176.456 375.251 176.563 376.37 177.041 377.348C177.519 378.326 178.335 379.098 179.339 379.521C180.342 379.943 181.465 379.987 182.498 379.645C183.532 379.303 184.407 378.598 184.96 377.66C188.083 373.006 190.176 367.738 191.1 362.21C191.41 360.28 190.91 358.12 189.03 357.13C188.169 356.638 187.171 356.441 186.188 356.567C185.204 356.693 184.289 357.137 183.58 357.83L181.31 360.41L188.38 365.86L202.05 340.86L208.82 328.48C209.82 326.66 211.02 324.83 211.35 322.75C211.91 319.31 210.55 316.56 207.23 315.28C206.465 315.057 205.654 315.047 204.883 315.251C204.113 315.455 203.413 315.867 202.86 316.44C199.945 319.595 197.776 323.364 196.515 327.47C195.253 331.576 194.93 335.913 195.57 340.16C195.769 340.917 196.166 341.608 196.719 342.161C197.273 342.714 197.963 343.111 198.72 343.31C199.486 343.517 200.293 343.519 201.06 343.316C201.828 343.112 202.528 342.71 203.09 342.15C207.009 338.187 209.894 333.321 211.49 327.98C211.773 326.93 211.665 325.813 211.187 324.837C210.709 323.86 209.893 323.09 208.89 322.67C206.98 321.86 204.23 322.48 203.27 324.51C202.895 325.31 202.464 326.082 201.98 326.82C201.84 327.03 201.69 327.24 201.54 327.44C201.86 327.04 201.86 327.03 201.54 327.44C201.22 327.85 200.95 328.11 200.64 328.44C200.33 328.77 199.99 329.04 199.64 329.35C199.29 329.66 199.26 329.68 199.64 329.35L199.18 329.69C198.397 330.228 197.575 330.706 196.72 331.12L203.5 335C203.5 334.85 203.62 333.86 203.5 334.46C203.38 335.06 203.69 333.96 203.69 333.96C203.53 334.42 203.47 334.28 203.74 333.96C203.02 334.67 203.93 333.78 204.01 333.7L197 328.32C196.91 328.45 196.14 329.52 196.4 329.18C196.66 328.84 195.94 329.72 195.84 329.83C195.259 330.491 194.641 331.119 193.99 331.71C193.68 331.99 193.37 332.25 193.06 332.51C193.74 331.94 192.83 332.68 192.67 332.79C191.887 333.329 191.075 333.826 190.24 334.28L196.4 340.43C198.235 337.562 199.776 334.517 201 331.34C201.65 329.69 200.67 327.6 199.39 326.61C198.678 326.079 197.829 325.762 196.943 325.699C196.057 325.635 195.171 325.826 194.39 326.25C187.214 329.474 180.788 334.157 175.52 340C174.765 340.778 174.316 341.802 174.254 342.885C174.193 343.967 174.523 345.035 175.185 345.894C175.847 346.752 176.796 347.344 177.858 347.56C178.921 347.776 180.025 347.602 180.97 347.07L201.82 337.59C203.97 336.59 204.66 333.33 203.44 331.43C201.98 329.17 199.61 328.83 197.28 329.82L162.28 344.73L167.73 351.8C167.17 352.23 168.48 351.24 168.6 351.15L170.05 350.09C171.05 349.39 171.99 348.71 172.98 348.09C174.84 346.843 176.733 345.65 178.66 344.51C182.641 342.154 186.762 340.044 191 338.19L184.39 333.11C183.564 336.476 183.917 340.023 185.39 343.16C186.39 345.33 189.67 345.96 191.55 344.77C197.496 341.035 202.42 335.88 205.88 329.77C206.468 328.736 206.629 327.513 206.328 326.363C206.027 325.212 205.289 324.224 204.27 323.61C203.233 323.037 202.015 322.885 200.868 323.185C199.722 323.484 198.734 324.213 198.11 325.22C193.126 332.774 189.095 340.916 186.11 349.46C185.832 350.511 185.942 351.627 186.421 352.603C186.9 353.578 187.716 354.348 188.717 354.77C189.719 355.193 190.84 355.239 191.873 354.901C192.906 354.563 193.782 353.863 194.34 352.93C196.516 348.863 198.243 344.571 199.49 340.13C199.808 338.979 199.656 337.749 199.067 336.71C198.478 335.671 197.501 334.908 196.35 334.59C195.199 334.272 193.969 334.424 192.93 335.013C191.891 335.602 191.128 336.579 190.81 337.73L188.59 344.39C187.17 348.67 193.1 351.98 196.11 348.77C197.904 346.901 199.283 344.675 200.158 342.237C201.034 339.798 201.385 337.203 201.19 334.62C201.17 333.641 200.839 332.693 200.246 331.913C199.654 331.133 198.828 330.561 197.89 330.28C196.933 330.054 195.93 330.132 195.019 330.503C194.109 330.874 193.337 331.52 192.81 332.35C187.282 339.903 183.439 348.555 181.54 357.72C181.296 358.678 181.366 359.689 181.738 360.605C182.111 361.521 182.767 362.294 183.61 362.81C185.23 363.66 187.81 363.7 189.06 362.1C191.842 358.67 193.867 354.689 195 350.42L186.33 348.02C185.677 351.135 186.182 354.381 187.75 357.15C189.08 359.47 192.97 360.34 194.82 358.07L200.82 350.76L193.3 348.76C193.53 349.59 193.3 348.1 193.3 348.65C193.3 349.2 193.5 347.82 193.3 348.39C193.21 348.71 193.3 348.6 193.48 348.05L193.33 348.33L193.17 348.6L193.48 348.2C193.48 348.47 192.63 348.71 193.22 348.48C193.47 348.3 193.49 348.27 193.28 348.4C193.07 348.53 193.1 348.52 193.64 348.27C193.08 348.46 193.64 348.27 193.92 348.27C193.08 348.32 194.54 348.44 194.04 348.27C193.54 348.1 194.81 348.66 194.32 348.38C194.12 348.25 194.15 348.28 194.42 348.48C194.69 348.68 194.72 348.72 194.42 348.48C194.1 347.86 194.42 348.77 194.57 348.7L194.42 348.44C194.25 348.09 194.24 348.09 194.42 348.44C194.6 348.79 194.57 348.8 194.49 348.56C194.461 348.468 194.437 348.375 194.42 348.28C194.3 347.7 194.57 349.28 194.47 348.46C194.4 347.87 194.47 348.53 194.47 348.79C194.59 347.94 194.03 349.55 194.47 348.79L186.25 345.33L183.42 353.23L192.1 355.63L193.81 348.27C194.055 347.312 193.987 346.3 193.614 345.384C193.241 344.468 192.584 343.695 191.74 343.18C190.07 342.3 187.59 342.33 186.28 343.89C182.283 348.538 179.606 354.175 178.53 360.21C178.292 361.167 178.364 362.175 178.736 363.088C179.108 364.001 179.761 364.772 180.6 365.29C181.464 365.774 182.461 365.966 183.443 365.839C184.425 365.711 185.339 365.269 186.05 364.58C192.65 357.49 197.848 349.214 201.37 340.19L192.7 337.8L191.23 343.54C190.996 344.492 191.077 345.495 191.46 346.397C191.843 347.3 192.509 348.054 193.356 348.547C194.204 349.04 195.188 349.246 196.162 349.133C197.137 349.02 198.048 348.594 198.76 347.92C201.01 345.786 202.765 343.185 203.902 340.3C205.038 337.415 205.529 334.315 205.34 331.22C205.19 329.01 203.4 326.44 200.84 326.72C198.105 326.965 195.497 327.987 193.323 329.665C191.149 331.343 189.5 333.607 188.57 336.19C187.57 338.74 190.15 342.19 192.91 341.88C196.675 341.572 200.293 340.279 203.4 338.13C204.239 337.613 204.892 336.841 205.263 335.928C205.633 335.014 205.702 334.006 205.46 333.05C204.89 331.29 203.13 329.56 201.12 329.75C195.98 330.223 190.869 330.974 185.81 332C181.123 332.858 176.507 334.065 172 335.61C169.32 336.61 167 338.17 166.25 341.09C165.5 344.01 167.14 346.79 169.32 348.63C173.15 351.86 177.07 354.99 180.95 358.17L184.13 350.48C183.414 350.52 182.696 350.52 181.98 350.48C180.98 350.48 182.98 350.7 181.98 350.48L181.11 350.3C180.95 350.3 179.11 349.85 179.11 349.67L179.5 349.84L179.09 349.65L178.28 349.25C177.103 348.614 175.971 347.899 174.89 347.11C174.55 346.86 174.18 346.62 173.89 346.35C174.42 346.82 174.2 346.59 173.78 346.26L172.14 344.92C167.37 340.97 162.64 336.74 156.55 334.99C155.593 334.739 154.581 334.805 153.665 335.178C152.749 335.551 151.979 336.212 151.47 337.06C150.59 338.72 150.62 341.21 152.18 342.51C159.118 348.364 167.712 351.906 176.76 352.64C177.745 352.637 178.703 352.312 179.486 351.714C180.269 351.117 180.836 350.279 181.1 349.33C181.51 347.5 180.86 345.12 179.03 344.25C174.83 342.25 170.663 340.183 166.53 338.05C164.53 337.023 162.55 335.973 160.59 334.9L159.74 334.44C159.347 334.193 159.417 334.263 159.95 334.65C159.8 334.52 159.66 334.38 159.53 334.23L159.85 334.67C159.61 334.67 159.08 332.95 159.66 334.49C159.54 334.01 159.56 334.17 159.71 334.99C159.689 335.72 159.451 336.428 159.025 337.021C158.599 337.615 158.005 338.067 157.32 338.32L152.24 336.26C153.981 339.598 156.801 342.249 160.24 343.78C162.237 344.584 164.338 345.099 166.48 345.31C165.41 345.16 166.48 345.37 166.76 345.41C167.253 345.57 167.233 345.57 166.7 345.41C166.26 345.03 166.15 344.94 166.37 345.14C167.11 345.83 165.88 344.36 166.29 345.04C166.7 345.72 166.12 344.04 166.2 344.82C166.268 345.05 166.325 345.284 166.37 345.52C166.27 344.74 166.25 344.59 166.3 345.07V345.33C166.3 345.95 166.3 346.58 166.3 347.2C166.3 348.35 166.13 349.5 166.17 350.65C166.29 354.32 167.92 357.4 171.57 358.58C172.337 358.793 173.146 358.798 173.915 358.596C174.685 358.394 175.387 357.992 175.95 357.43C176.24 357.14 176.54 356.86 176.84 356.59C176.92 356.53 177.76 355.84 177.34 356.17C176.92 356.5 177.79 355.85 177.87 355.8C178.21 355.57 178.55 355.34 178.87 355.13C179.46 354.78 180.06 354.47 180.67 354.13C181.83 353.54 179.88 354.39 181.1 353.94L182.26 353.53L176.83 348L172.31 366.28C171.08 371.23 177.83 374.12 180.53 369.74C181.36 368.41 182.21 367.1 183.11 365.82C183.53 365.21 183.97 364.61 184.41 364.01C184.64 363.71 184.86 363.41 185.09 363.12C184.63 363.72 185.48 362.62 185.48 362.62C187.44 360.167 189.54 357.83 191.77 355.62L184.08 352.43C184.01 353.07 183.93 353.71 183.85 354.34C183.85 354.54 183.75 355.07 183.85 354.58C183.85 354.9 183.76 355.21 183.71 355.58C183.52 356.93 183.3 358.28 183.08 359.58C182.64 362.193 182.14 364.793 181.58 367.38C180.46 372.553 179.1 377.667 177.5 382.72L186.34 383.92C186.324 382.126 186.522 380.337 186.93 378.59C187.143 377.63 187.393 376.68 187.68 375.74C187.82 375.3 187.96 374.87 188.12 374.45C188.12 374.3 188.79 372.76 188.5 373.45L180.25 370L173.7 396L182.38 398.39C184.345 390.242 185.778 381.974 186.67 373.64C186.92 371.43 184.78 369.49 182.77 369.22C180.39 368.9 178.7 370.34 177.84 372.45C174.981 379.507 173.387 387.011 173.13 394.62C172.97 399.07 179.41 400.77 181.52 396.89C185.747 389.128 189.014 380.881 191.25 372.33C191.539 371.278 191.436 370.156 190.959 369.174C190.483 368.192 189.666 367.417 188.661 366.993C187.655 366.568 186.53 366.524 185.494 366.867C184.458 367.211 183.582 367.919 183.03 368.86L176.12 382.91L184.51 385.19L185.51 373.19C185.505 371.998 185.029 370.857 184.186 370.014C183.343 369.171 182.202 368.695 181.01 368.69C179.825 368.718 178.697 369.201 177.859 370.039C177.021 370.877 176.538 372.005 176.51 373.19L176.52 373.17Z" fill="black"/>
</g>
<defs>
<clipPath id="clip0">
<rect width="274.68" height="493.14" fill="white"/>
</clipPath>
</defs>
</svg>
